/* XPM */
static const char *pirata[] = {
/* columns rows colors chars-per-pixel */
"37 60 247 2 ",
"   c #020202",
".  c #0B0B0B",
"X  c #050809",
"o  c #130D0B",
"O  c #160907",
"+  c #171616",
"@  c #0B0F12",
"#  c #352719",
"$  c #192E39",
"%  c #072138",
"&  c #2A2A2B",
"*  c #363838",
"=  c #313433",
"-  c #1E1523",
";  c #4D1C15",
":  c #681A1A",
">  c #712C07",
",  c #6E320C",
"<  c #763609",
"1  c #6C381A",
"2  c #7D3D13",
"3  c #7C3D1B",
"4  c #753816",
"5  c #6B280C",
"6  c #46362A",
"7  c #523732",
"8  c #6C392A",
"9  c #793D21",
"0  c #772E26",
"q  c #432D18",
"w  c #3B4335",
"e  c #7D401B",
"r  c #7A4217",
"t  c #7C541F",
"y  c #58442D",
"u  c #5C4734",
"i  c #565337",
"p  c #7A4828",
"a  c #634D3C",
"s  c #654B37",
"d  c #6B523D",
"f  c #665338",
"g  c #73553C",
"h  c #795738",
"j  c #7B4D32",
"k  c #5F602E",
"l  c #67653F",
"z  c #011847",
"x  c #0A2446",
"c  c #193247",
"v  c #193450",
"b  c #283948",
"n  c #2D374B",
"m  c #1C3C67",
"M  c #1C3D73",
"N  c #243E68",
"B  c #354651",
"V  c #1C4372",
"C  c #1C426C",
"Z  c #29436A",
"A  c #31486A",
"S  c #2A4B75",
"D  c #2A4C79",
"F  c #254776",
"G  c #385374",
"H  c #454545",
"J  c #575A59",
"K  c #6B5543",
"L  c #685848",
"P  c #745A44",
"I  c #735C4A",
"U  c #755944",
"Y  c #765F50",
"T  c #5F6241",
"R  c #7B624A",
"E  c #7A6758",
"W  c #6F6F55",
"Q  c #485B68",
"!  c #5E677B",
"~  c #757776",
"^  c #6C716D",
"/  c #A91B18",
"(  c #A2150E",
")  c #813E15",
"_  c #803C19",
"`  c #9F2416",
"'  c #A9251C",
"]  c #B42B1E",
"[  c #872924",
"{  c #952924",
"}  c #913626",
"|  c #AB2C25",
" . c #A72B26",
".. c #B22D24",
"X. c #B42D2A",
"o. c #B82D28",
"O. c #AC3124",
"+. c #AB3329",
"@. c #A63527",
"#. c #B8332A",
"$. c #A93A37",
"%. c #B53530",
"&. c #991E16",
"*. c #C2302A",
"=. c #844517",
"-. c #9B621F",
";. c #A8711D",
":. c #895924",
">. c #88593C",
",. c #B04B36",
"<. c #916C31",
"1. c #A8722B",
"2. c #855C47",
"3. c #AD4B47",
"4. c #8A634A",
"5. c #896853",
"6. c #926D58",
"7. c #977753",
"8. c #9D794C",
"9. c #AF6E50",
"0. c #867668",
"q. c #967D69",
"w. c #8D796F",
"e. c #B0746C",
"r. c #C7764E",
"t. c #948237",
"y. c #B29132",
"u. c #BAA32A",
"i. c #D3B73A",
"p. c #C7AA3B",
"a. c #E2B73B",
"s. c #E4C739",
"d. c #F8D239",
"f. c #EECB2F",
"g. c #BA8A5A",
"h. c #AD8B53",
"j. c #978678",
"k. c #928476",
"l. c #B8986C",
"z. c #A88878",
"x. c #AE8768",
"c. c #878A5A",
"v. c #CA975A",
"b. c #D79559",
"n. c #D1AF52",
"m. c #CD9C64",
"M. c #C39D6C",
"N. c #CC9D6B",
"B. c #C69765",
"V. c #D39C64",
"C. c #D99765",
"Z. c #CE9C75",
"A. c #CDA36A",
"S. c #D4A363",
"D. c #D9A565",
"F. c #D4A46B",
"G. c #D9A56C",
"H. c #D5A86C",
"J. c #DBAB6C",
"K. c #D9A966",
"L. c #C6A473",
"P. c #CBA577",
"I. c #D8AA74",
"U. c #DDB173",
"Y. c #E6B779",
"T. c #EDCB4B",
"R. c #F1D04C",
"E. c #F2D76B",
"W. c #F6E27C",
"Q. c #576B8C",
"!. c #74858A",
"~. c #708398",
"^. c #898685",
"/. c #988C86",
"(. c #9C9187",
"). c #959493",
"_. c #A89787",
"`. c #B59882",
"'. c #A49993",
"]. c #B39D90",
"[. c #9BA29D",
"{. c #ABA79B",
"}. c #B5A599",
"|. c #BEA98B",
" X c #8795A8",
".X c #98A4AC",
"XX c #B3ACA6",
"oX c #B6B9B7",
"OX c #ABB1AE",
"+X c #C99997",
"@X c #C78F8D",
"#X c #C9AB85",
"$X c #D6B48B",
"%X c #CBB898",
"&X c #D4BC99",
"*X c #C7A892",
"=X c #C6ABA4",
"-X c #C8B6A5",
";X c #D3B9A7",
":X c #C6BCB6",
">X c #D3B1B0",
",X c #ECD28C",
"<X c #D7C5A9",
"1X c #D7C9B5",
"2X c #D0CDB2",
"3X c #E3D4B7",
"4X c #D9E2B5",
"5X c #F7EBB2",
"6X c #D9D69C",
"7X c #BEBFC9",
"8X c #CBC9C8",
"9X c #D5CAC6",
"0X c #D7D4CC",
"qX c #D9D8D8",
"wX c #C6D3CD",
"eX c #E4D9CB",
"rX c #E5DDDA",
"tX c #E5DDD4",
"yX c #E0CFD4",
"uX c #D9EACE",
"iX c #D6E2C9",
"pX c #DAE8D7",
"aX c #DEF0D2",
"sX c #E3E2DD",
"dX c #EBE3DB",
"fX c #E2E8D6",
"gX c #E7EDCF",
"hX c #DBECE2",
"jX c #EEEEED",
"kX c #E6E7E6",
"lX c #F1EFEE",
"zX c #F2EDE4",
"xX c #EEF1EE",
"cX c #E5F4E3",
"vX c #F2F1EE",
"bX c #EFEDF1",
"nX c #F1EEF1",
"mX c #F8EEF2",
"MX c #EEF1F2",
"NX c #EFF4F8",
"BX c #F2F2F2",
"VX c #F9F9F6",
"CX c #F5F6F9",
"ZX c #F5FAFB",
"AX c #FEFEFE",
"SX c #FBFCFD",
"DX c #F8F8F7",
/* pixels */
"BXBXBXBXBXBXBXBXBXBXBXBXBXMXSXSX0X}.0.I d 0.CXMXBXBXBXBXBXBXBXBXBXBXBXBXBX",
"BXBXBXBXBXBXBXBXBXBXBXBXvXAX0Xk.I d U d L 2XCXMXBXBXBXBXBXBXBXBXBXBXBXBXBX",
"BXBXBXBXBXBXBXBXBXBXMXVXzX(.a d U U U I 0XSXjXBXBXBXBXBXBXBXBXBXBXBXBXBXBX",
"BXBXBXBXBXBXBXBXBXxXSX0XE y R P P P d 8XSXCXAXBXBXBXBXBXBXBXBXBXBXBXBXBXBX",
"BXBXBXBXBXBXBXBXBXSX:Xa s R I d s s 0.jXAX8X~ qXCXBXBXBXBXBXBXBXBXBXBXBXBX",
"BXBXBXBXBXBXBXMXZX}.d P R U y K j.:X^.AX).X + BXSXBXBXBXBXBXBXBXBXBXBXBXBX",
"BXBXBXBXBXBXlXSX:Xu U P d u /.qXAX^.n oX    i jX8XCXBXBXBXBXBXBXBXBXBXBXBX",
"BXBXBXBXBXBXSX8XK d I d a oXSXSXjX+ + & X X & J ~ AXjXBXjXBXBXBXBXBXBXBXBX",
"BXBXBXBXBXBXvXE d d g K 8XAXjXSX0X@ X X . . @   J AXjXnXAXBXBXBXBXBXBXBXBX",
"BXBXBXBXxXAX{.s P K a 2XAXjXMXCXqX+ . . . . . . + qXCXSX{.kXCXBXBXBXBXBXBX",
"BXBXBXvXCXkXI U g u OXAXjXBXMXvXVXH   o . X . @   ^ AX~ & SXBXBXBXBXBXBXBX",
"BXBXjXjXAX'.s P s (.AXjXBXvXmXxXAX(.: @.{ : o X . + [.  H AXnXBXBXBXBXBXBX",
"BXCXAXSXlXE d d E BXBXBXBXxXnXZX+XX.#.o.#.*.+.; . X o   = CXBXBXBXBXBXBXBX",
"BXsX{.0X2Xu g s 8XSXBXBXBXlXSX:X' ] X.o.X...o.*.[ o . o X 8XAXjXBXBXBXBXBX",
"AX{.u 5.I d s }.AXjXBXBXBXCXvX7.} ,.O.' o.#.+.O.#.{ O @ X * xXjXlXBXBXBXBX",
"ZXj.g 6.g s a k.0XCXBXBXBXCX3Xg @ # N.9.@.' o.o...#.[ O @   ~ 8XoXAXBXBXBX",
"oXU U L I K R 4.0.BXBXBXBXMX#XV.M.# 7.Y.A.9. .X.X...#.: X . + H ^ AXjXBXBX",
"w.5.I g f d d g 5.kXCXBXCXkXF.V.F.M.8.J.F.U.g.@.| X.X.%.# X o   H SXBXBXBX",
"0.E x.A.h.>.j.k.(.CXMXBXCXrXM.|.'.l.I.G.F.H.Y.C.%.| ..*.{ O o   H SXBXBXBX",
"Y k.$Xv.S.S.<XAXCXBXBXBXZX1X#X8X~ j.H.I.H.B.2.d 2.O.| ..o.; .   ^ AXjXBXBX",
"k.s g.m.8.g.<XCXnXBXBXCXrXm.&X^.6 _.J.F.I.B.7.f . 8 ..| o.[ . X 8XSXBXBXBX",
"sXE h 7.f B.$XBXBXvXBXvX#Xb.N.|.`.P.S.H.S.%XXX#XR 7 ,. .O.X.O ~ AXjXBXBXBX",
"CXsX0.y s g.A.;XVXvXCXtXm.C.C.v.v.v.S.S.%XXX/.k.M.h.: X.| { '.ZXBXBXBXBXBX",
"jXAXXXq 0.;XF.N.1XZXCXsXN.D.V.m.F.B.F.S.<XW # '.$Xf X |  .+XAXBXBXBXBXBXBX",
"BXBXrX_.qXAX$XD.N.3XSXBX#XD.V.N.S.S.F.H.P.-XXX&XJ.6   0 r.dXBXBXBXBXBXBXBX",
"BXBXBXAXCXBXdXL.D.N.1XCX1XF.v.l.I.F.F.v.b.C.Z.V.Y.* O 9.S.L.kXBXBXBXBXBXBX",
"BXBXBXjXvXvXCXeXL.G.B.2XfXL.V.`.=X%X$XM.C.C.b.G.B.6 7.V.V.L.jXBXxXBXBXBXBX",
"BXBXBXBXBXBXBXSXrXP.&X<XpX2XM.H.L.B.F.F.b.C.C.D.M.B.Y.G.U.g.>XVXBXBXBXBXBX",
"BXBXBXBXBXBXBXnXZXsXiXpX3XW.n.U.J.J.H.G.F.C.C.V.V.,.r.m.r.O.' e.vXBXBXBXBX",
"BXCXBXBXBXBXBXBXBXsXiX4Xd.u.f Y g.m.m.m.S.S.P.<Xe.&.O.O. .X.#./ 9.BXCXlXBX",
"BXBXBXBXBXBXBXBXCXkXpX4XT.b x b l.S.m.l.i i.,XZX@X`  .o.+.| +.#./ e.CXCXxX",
"BXBXBXBXBXBXBXBXBXBXkXgXT.B x oX,XP.3X^ x * i.5X>X' +. .| X. ...#.' e.BXSX",
"BXBXBXBXBXBXBXBXBXBXCXjXT.= !.wXk.2XwXc x b u.E.kX$...| |  .3.$.' ' ( 3.9X",
"BXBXBXBXBXBXBXBXBXlXAX!.y.W hX{.L pX!.% l s.E.4XcX+X/ ..+.| e.sX>X=X+X+X>X",
"BXBXBXBXBXBXBXBXnXAXOX% p.4XhX0X0XuXb t.R.6XpXpX2XfX=X$./ ] ' @XAXSXSXSXSX",
"BXBXBXBXBXBXBXBXCXkXv k E.pXpXuXcXOXt.T.4XhXuXfX-X#XBXkX+X3.@.( e.jXlXlXBX",
"BXBXBXBXBXBXvXjXAX! k d.4XpXuXpXpX,Xp.$ .XgXuXpXiXF.P.dXSXMXyX>X=XjXCXBXBX",
"BXBXBXBXxXDXVXAX8Xz l T.uXaXuXuXpXE.w z Q aXiXpX%XA.K.L.dXCXZXZXSXBXBXBXBX",
"BXBXBXBXSXqXwXkX! w i.t.^ fXcXaXuXR.t.c $ [.pXjXlX&XF.K.#XnXvXBXBXBXBXCXBX",
"BXBXBXCX.XZ Z G Z W n.i & J OXiXgXT.y.v v $ pXVXBXBX&XS.S.1XSXBXBXBXBXBXBX",
"BXBXCXkXA F D F S V N n * * = H W n.$ c v x oXAXjXBXvX%XS.L.rXCXNXvXBXBXBX",
"BXxXDXqXS S S S S S S S n * H * y d.h.x x w <XSXBXvXCXlXP.F.L.&XCXBXBXBXBX",
"BXBXCXkXS S D D D D S D S Z B b i s.i * t.f.5XNXBXBXCX<XA.K.K.m.tXCXBXBXBX",
"BXlXSXXXn A A A N Z Z m m F D V J d.i.s.E.gXBXvXBXBXlXA.S.H.I.B.eXCXBXBXBX",
"BXvXZX>.< 3 9 8 t >.7XOX~.G m F Q h.c.B  XAXlXBXBXBXBX%Xg.D.g.;XDXvXBXBXBX",
"lXCXsXp 3 r 3 3 y.:.rXAXAXkX XZ F V M M Q.xXvXBXBXBXBXCX1XM.;XCXNXBXBXBXBX",
"vXZX9X4 ) 3 3 3 -.-.:XSXjXBXAXOXN D S S C wXDXjXBXBXBXBXCXkXCXvXvXBXBXBXBX",
"lXCX0Xp 2 p r 3 1.:.0XSXBXMXjXAXQ.m S S m  XAXZXnXBXBXBXBXBXBXBXBXBXBXBXBX",
"vXxXCX9X1 4 4 3 1 1XSXlXBXBXBXVXwXZ D S V G w.=XZXMXBXBXBXBXBXBXBXBXBXBXBX",
"ZXAXAXzXp 4 p 2 p kXCXBXBXBXBXxXAX~.M A B 7 5 1 eXZXBXBXBXBXBXBXBXBXBXBXBX",
"rXz.q.S.d.y.9 2 >.nXBXBXBXBXBXCXkXI 7 8 3 ) =.4 q.SXjXBXBXBXBXBXBXBXBXBXBX",
"5.> 4 , 1.R.=.> 4.CXBXBXBXBXBXCXrX:.1.=.3 e e ) p tXCXBXBXBXBXBXBXBXBXBXBX",
"z., < < > , 6.5._.SXvXBXBXBXBXBXCX7.;.r 3 r r =.1 1XSXlXBXBXBXBXBXBXBXBXBX",
"BX}.6.5.x.-XBXBXBXBXBXBXBXBXBXvXSX`.;.-.3 e 3 , z.SXlXBXBXBXBXBXBXBXBXBXBX",
"BXAXSXCXSXAXBXBXBXBXBXBXBXBXBXBXZXqX>.r 9 2 r > z.AXxXMXBXBXBXBXBXBXBXBXBX",
"nXnXlXlXBXlXBXBXBXBXBXBXBXBXBXBXvXBXMX4.4 e 3 2 x.vXBXCXBXBXBXBXBXBXBXBXBX",
"BXBXBXBXBXBXBXBXBXBXBXBXBXBXBXBXBXlXSX=X< 3 ;.a.<.j 2.8XCXxXBXBXBXBXBXBXBX",
"BXBXBXBXBXBXBXBXBXBXBXBXBXBXBXBXBXBXBXkXj _ a.-., 3 > 4.ZXBXBXBXBXBXBXBXBX",
"BXCXBXBXBXBXBXBXBXBXBXBXBXBXBXBXBXBXjXAX_.> r 4 ) ) > z.SXlXBXBXBXBXBXBXBX",
"BXBXBXBXBXBXBXBXBXBXBXBXBXBXBXBXBXBXBXCXdXj.].z.p p 6.rXCXvXBXBXBXBXBXCXBX"
};
