/* XPM */
static const char *fondo[] = {
/* columns rows colors chars-per-pixel */
"64 64 197 2 ",
"   c #C78336",
".  c #CA8336",
"X  c #C7843A",
"o  c #CB853E",
"O  c #C7883F",
"+  c #CB893E",
"@  c #CC8640",
"#  c #CD8C43",
"$  c #CD8E48",
"%  c #D08E44",
"&  c #D08F48",
"*  c #CF9146",
"=  c #CE924A",
"-  c #D19246",
";  c #D2944B",
":  c #D49A4D",
">  c #D89D4E",
",  c #CE9552",
"<  c #CE9A59",
"1  c #D19653",
"2  c #D59C52",
"3  c #D99E53",
"4  c #D39D5B",
"5  c #D89F58",
"6  c #D9A04E",
"7  c #D7A153",
"8  c #DBA254",
"9  c #DEAC56",
"0  c #D6A25D",
"q  c #DCA55A",
"w  c #DEA95C",
"e  c #E0AA56",
"r  c #E0A659",
"t  c #E1AC5D",
"y  c #E3B15E",
"u  c #D59E61",
"i  c #D6A364",
"p  c #DBA561",
"a  c #DDAB63",
"s  c #D7A66A",
"d  c #D8A76B",
"f  c #D7A86D",
"g  c #D9A96D",
"h  c #DFB165",
"j  c #DEB16E",
"k  c #D4A972",
"l  c #DBAD73",
"z  c #DCAF7A",
"x  c #DEB274",
"c  c #DDB37B",
"v  c #DBBA7E",
"b  c #E2AD61",
"n  c #E0AF69",
"m  c #E4B363",
"M  c #E6B967",
"N  c #E8BA67",
"B  c #E2B36C",
"V  c #E9B768",
"C  c #E6BA6A",
"Z  c #E9BD6C",
"A  c #E2B574",
"S  c #E9B773",
"D  c #E5BC76",
"F  c #EABF73",
"G  c #E3B679",
"H  c #E5BB7B",
"J  c #EABD7A",
"K  c #EBC16E",
"L  c #F0C86F",
"P  c #EDC473",
"I  c #EFC976",
"U  c #E7C17C",
"Y  c #EAC37A",
"T  c #EECA7B",
"R  c #F1C774",
"E  c #F1C975",
"W  c #F2CC7C",
"Q  c #DBB583",
"!  c #DEB882",
"~  c #DCBB8B",
"^  c #DDBD91",
"/  c #E0B581",
"(  c #E5BD83",
")  c #E9BF84",
"_  c #E2BE8B",
"`  c #E8BE8A",
"'  c #DDC091",
"]  c #DFC69A",
"[  c #E6C186",
"{  c #E9C285",
"}  c #EDC983",
"|  c #E4C38B",
" . c #EAC48A",
".. c #E6C98D",
"X. c #ECCB8D",
"o. c #F1CE82",
"O. c #F1CC8B",
"+. c #EFD181",
"@. c #EED08A",
"#. c #F3D285",
"$. c #F3D48C",
"%. c #F8D68B",
"&. c #F6D98D",
"*. c #F8DB8E",
"=. c #E5C493",
"-. c #E9C693",
";. c #E6C891",
":. c #ECCC93",
">. c #E2C39A",
",. c #E5CB9A",
"<. c #E9CC9B",
"1. c #F1CE94",
"2. c #EED195",
"3. c #EDD896",
"4. c #EDD29C",
"5. c #EFD89B",
"6. c #F2D294",
"7. c #F6DA92",
"8. c #F9DC93",
"9. c #F3D499",
"0. c #F5DB9B",
"q. c #FCDE98",
"w. c #FAE196",
"e. c #FCE29C",
"r. c #D9C5A0",
"t. c #DCCDAA",
"y. c #E5CCA3",
"u. c #EACDA3",
"i. c #E9CFA8",
"p. c #EDD1A4",
"a. c #EFDCA5",
"s. c #EDD3AB",
"d. c #EDDBAE",
"f. c #F1D5A7",
"g. c #F2DCA4",
"h. c #F9DFA2",
"j. c #F1D5AA",
"k. c #F1DCAC",
"l. c #EBD6B3",
"z. c #E6D9B1",
"x. c #ECD9B4",
"c. c #EAD7BB",
"v. c #ECDEBE",
"b. c #F3DBB4",
"n. c #F5DDBB",
"m. c #FBE4A3",
"M. c #FBE9A6",
"N. c #F5E2AD",
"B. c #FAE5A9",
"V. c #FCE9AC",
"C. c #EEE1BF",
"Z. c #F4E3B3",
"A. c #F9E6B4",
"S. c #FCEBB4",
"D. c #F5E3BC",
"F. c #F8E3BC",
"G. c #F6E9BB",
"H. c #FCEDBC",
"J. c #FDF0BA",
"K. c #EFDEC1",
"L. c #F6E4C3",
"P. c #F9E5C4",
"I. c #FBEDC2",
"U. c #F2E6CB",
"Y. c #FBE7CA",
"T. c #F1E8CD",
"R. c #FBEACD",
"E. c #FBF0C3",
"W. c #FEF2C5",
"Q. c #FCF1C4",
"!. c #FBF1CA",
"~. c #FEF3CA",
"^. c #FDF3CA",
"/. c #FEF4CB",
"(. c #FEF4CA",
"). c #FCF4CC",
"_. c #FEF5CF",
"`. c #FDF3CB",
"'. c #F3E9D0",
"]. c #F5ECD3",
"[. c #FDEDD2",
"{. c #F5EEDD",
"}. c #FBF1D3",
"|. c #FBF4D3",
" X c #FBF6D6",
".X c #FEF5D3",
"XX c #FFF9D5",
"oX c #F6F2DB",
"OX c #F9F6DE",
"+X c #FCF4DC",
"@X c #FBF8D9",
"#X c #FFFDDA",
"$X c #FEFEDF",
"%X c #FEFADA",
"&X c #FAF7E6",
"*X c #FFFAE3",
"=X c #FDFBE4",
/* pixels */
"#.o.W #.W o.o.+.#.6.7.e.B.S.H.W.^.).).).).)./.^.^./.^./.W.H.N.2.P Z C 8 : : ; - - - $ $ $ $ $ $ # % o . . . . .     < v | X.} P ",
"W W W W E E E E E P R L E T W #.$.7.0.m.m.m.m.m.m.h.7.$.} F Z M Z m 7 ; : ; ; ; ; - # + o X X o # , 4 s l Q ~ ~ ^ ' ~ ~ ^ r.t.z.",
"T o.$.3.g.N.Z.Z.N.g.5.@.T P K K P P P P P P K K Z Z Z N N Z Z Z m 3 : : : ; & # o # $ < k ~ y.v.T.oX@XXXXX}.R.I.L.G.G.D.D.Z.b.D.",
"g.A.H.E.E.H.H.H.H.I.E.!.E.G.g.X.P Z K P P P P P P P P P F Z m q ; - - % # = 4 l >.c.'.&X*X@X!.D.k.9.:. .{ ( ( H H H H H H H ( ( ",
"J.S.V.e.8.&.&.$.#.#.#.#.$.0.N.G.G.a.} Z N M m m t t 9 9 7 : ; ; 4 i c ] l.U.OX$X#X/.A.g.:. .) ) ) { { { { { { ) ( { [ { [ [ ) ( ",
"m.8.*.*.*.*.$.#.o.W T T E E I I Y 2.k.k.g.2...| | _ | =.,.p.x.L.].OX%X%XXXI.A.g.:. .) ) {  . . .{ ) H H H ( ( ( ( ( H G G D H ( ",
"*.8.8.#.I C m t q 8 8 8 q w m V Z V m V  .g.G.A.Z.A.H.I.W.E.I.H.S.N.g.4.:. . .) { { {  . .) ( ( ` <.l.K.U.'.].].].].T.C.l.y.| H ",
"8.#.Z y y t e q q 7 > : : ; - = ; 3 t t 8 8 h ..4.:.[ ) ) {  .{  .[ ) ) ) {  .{ {  .{ H ( =.l.'.OX*X%X.XW.H.S.S.S.S.S.J.E./.!.L.",
"P m m m y y t e q 8 7 > : : ; ; - - # - : 3 > : q H :.:.-.{ ) ) { { { { { { [ { { H ( i.'.&X%X/.S.V.m.m.e.e.8.8.8.*.*.*.*.8.e.V.",
"y m m m m t t e q 8 7 3 : : ; ; ; - - - $ $ - ; - # - a H  .X. . .[ ) ) ) ) [ H H s.{.=X.XS.m.e.e.e.8.#.#.W E E E P P P P I I T ",
"m m m m y t e e q 8 7 3 3 : : ; ; - - = - % $ $ $ - $ # # ; q A H H H H ( D G u.{.*XW.V.m.m.e.7.#.I P P P P I R R R E E E P P K ",
"y m m m y t e e q 8 7 3 3 : : ; ; - - - - * $ $ $ $ $ - & % $ $ - ; 2 2 ; d v.=X^.M.m.m.e.%.E P P P R R I P P R E K m q 3 : ; ; ",
"y m m y t t e q q 8 7 3 3 : : ; : ; - - = * $ $ $ $ $ $ $ $ - - - ; - # ~ oXXXV.e.m.e.#.I P P I I R I P P I R m 3 # o o o o o o ",
"m m m t t e e e q 8 7 3 > > : ; ; ; - - * * $ $ $ $ * $ $ $ $ = - # , l.*XH.e.e.e.$.E P P I P P P P P P R Z : o o @ @ @ @ @ @ @ ",
"t y t t t q q q q 8 7 3 > : : : ; ; - - - = - - % # # $ - : ; * + k ].XXm.e.e.&.E P I I P P P P P P P P a o X @ @ @ @ @ @ @ @ @ ",
"P m t e q q r q q 7 7 3 > : : : : ; ; - - $ # # - 2 p a q : % # ' OXH.e.e.q.#.P R I P P P P P K K K P a X o # @ @ @ @ @ @ @ @ @ ",
"0.9.} Y V b e q 7 6 > : : : ; ; ; = - ; : 0 a S J D a ; # o < x.%XB.e.e.%.I P R I P P P P P K K K K M # @ @ @ @ @ @ @ @ @ @ @ @ ",
"U $.9.0.9.6.} } J D B B n a a n B D J { O.O.{ A 5 $ # + # v }./.m.e.e.#.I I I I P P Z K K K K K Z P 3 o # @ @ # @ @ @ @ @ @ @ @ ",
"3 q a J } $.9.9.9.9.6.6.6.6.6.6.6.1.X.) B 8 - # # + + i d.%XH.e.e.q.W R T I I I P C Z Z Z Z Z Z Z Z $ @ @ @ @ @ @ @ @ @ @ @ @ @ ",
"8 3 : : 3 q a B A D J J J D A B a 0 : * # # # + O 4 <.).XXS.w.e.8.T I T Y I Y I V C Z Z Z Z Z Z Z m @ @ @ @ @ @ @ @ @ @ @ @ o o ",
"8 3 3 3 3 : : ; ; ; ; ; ; ; - * * - - % # + * i <.`.XX`.B.e.e.&.T I T Y I I Y C m Z C C C C Z C Z a o @ @ @ @ @ @ @ @ @ @ o o @ ",
": : > 3 3 3 3 3 2 2 2 : : : ; - % # # = i | Z..XXX`.H.m.e.q.#.I Y Y I I Y I Y w M M M C C M M M C b @ @ @ @ @ @ @ @ @ @ @ o @ @ ",
"| x p 3 : ; - - - * * # $ * = 4 g H 4.D.).%XXX^.I.S.e.w.$.T Y Y Y Y Y I Y } C w C M M M M m m m m m $ o @ @ @ @ @ @ @ o o o @ @ ",
"XX.XE.G.k.p.<.;.| | ;.:.p.d.D.I.).XXXX.X^.I.S.m.e.w.$.o.Y I Y Y Y Y Y Y Y } w h M M m m m m m m m V : o @ @ @ @ @ @ @ o o o @ @ ",
"B.H.E./..XXXXX%XXXXX%XXXXXXX).`.^.I.H.V.M.e.w.8.#.T Y Y Y Y Y Y Y Y Y Y T } 8 m m m m m m m m m m m w o @ @ # # @ @ @ o o o o o ",
"T #.7.0.m.B.A.S.S.S.S.S.S.V.V.m.e.e.8.&.$.#.} Y Y Y Y Y Y Y Y Y Y Y Y Y } Y > m m m m m m m m m b m m ; o @ @ @ @ @ @ @ @ o o X ",
"Y Y Y Y Y T o.o.#.#.#.#.#.#.#.o.o.} Y Y Y Y Y Y Y Y Y Y Y Y Y Y Y Y Y P } U : t m m m m m m m b b t t w # o @ @ @ @ @ @ @ @ o o ",
"Y Y Y Y Y Y Y Y Y Y Y Y Y Y Y Y Y Y Y Y Y Y Y Y Y Y Y Y Y P P P P P Y P X.} 2 q y m m m b m b t t w w t 8 o @ @ @ @ o o o o o o ",
"Y Y Y Y Y Y Y Y Y Y Y Y Y Y Y Y Y Y Y Y Y Y Y Y Y Y Y Y Y Y P P P P Y P O.X.3 7 t t b b b t t t t t t t t 3 o o @ o o o o o o o ",
"X.X.X.X.} } U P P Y Y Y Y Y U Y Y Y Y Y Y Y Y Y Y Y Y Y Y Y Y Y Y Y Y F X.9.q > q t t t t w w t w t w q q w 3 # o o o o o o o o ",
"R.R.R.R.P.L.D.k.4.X.U D P Y U Y Y Y Y Y Y Y Y D U U D D D D D D D D D D } 0.B : 3 e t t t w w w w w w w q q w q = o o @ @ @ o @ ",
"R.[.[.[.[.[.}.}.[.R.L.j.:.J D D J J J J D D D D D D D D D D D D D D D D } 9.X.3 3 3 q w w w w w w w w w q q w w w 4 % o o o @ # ",
"Y.D.x.s.s.s.x.n.P.[.+X+X[.L.p.{ D D J J J J D D D D D D D D D D D D D D U 6.9.A ; 3 3 q w w w w w w q q q q q w w w w q : % # o ",
", $ # o o o o # = u z >.b.R.+X[.k.| D D J J D D D D D D D D D D D D D D H X.6.6.q ; 2 3 q w q q q q q q q q q w w w t b b b w q ",
"X o @ @ @ @ @ o o X . X # 4 Q s.R.+Xb. .D D D D D D D D D D D D D D D J D { 9.2.X.7 ; 2 2 8 q q q q q q q q 8 8 w t b b a a n h ",
"@ @ @ @ @ @ @ @ @ @ # # @ o X o 1 ! n.[.D.{ B D D D D D D D D D D D D D H H :.2.9.X.0 ; 2 2 3 8 q q q q q q q 3 2 4 q b b b n a ",
"@ @ @ @ @ @ @ @ @ @ @ @ @ # # # o o # d i.R.b.[ x A H D D D D D D D D D H D { :.:.2.1.a ; : : 2 3 8 q q 8 8 8 3 4 2 ; 2 4 q a a ",
"o o o o o o @ @ @ @ @ @ @ @ # # # $ # + + 4 =.L.b.) B B D D D D D D D D D G G  .2.:.2.2.D 2 - : : ; 2 3 8 8 3 3 3 3 2 2 ; ; ; : ",
"@ o o o o o o @ @ @ @ @ @ @ @ @ # $ $ $ - # + 1 _ b.j.( j A G G A A A A A G G G X.1.:.:.9.X.a ; - : : : : 3 3 3 3 2 2 2 2 : ; ; ",
"@ o o o o o o @ @ @ @ @ @ @ # # # $ $ $ $ * - - + = ( d.f.) x A A A A A A A G G H  .:.:.:.1.6.{ a ; - - ; : : 2 2 2 2 2 2 : ; ; ",
"o o o o o o o o o @ @ @ @ @ # # # # # $ $ $ $ - ; - # ; G p.s. .x x A A A A A A A G { X.:.:.:.:.6. .j 3 - - - ; ; : : : : 2 2 ; ",
"o o o o o o o o o @ @ @ @ @ @ # # # # $ $ $ $ * - - ; ; * ; g <.s.-.H A B A A A A A A H  .:.:.:.:.:.4.:.( a 4 ; - $ % - - ; ; ; ",
"o o o o o o o o o o @ @ @ @ @ # # # # $ # $ $ $ - - ; ; : : ; * 0 ( <.<. .H x B A A A A G H  .:.:.:.:.:.:.2.X.[ G a 4 ; - % $ # ",
"o o o o @ @ o o o o o o @ @ @ # # # # # # # $ $ $ = - ; ; ; : : : ; > a ( :.<. .( G A A A B x H )  .X.:.:.:.:.:.:.:.X.{ ) H A x ",
"o o o o o o o o o @ @ @ @ @ @ @ # # # $ # # $ $ $ = - - ; ; ; : : 2 > : : 3 p A [ ..:. .) ( G G A A G H {  .X.......:.:.1.6.9.2.",
"o o o @ @ o o o @ @ @ @ @ @ @ @ # # # # # $ # $ * * = - - ; ; : ; : : 3 3 3 3 > > 8 p B G H [ [ | | [ [ [ |  . ... .| [ H D B a ",
"@ o @ @ @ @ o @ @ @ @ @ @ @ @ @ # # # # $ $ # $ - * = = - - ; ; ; : : > > 3 3 7 8 8 7 3 > 7 7 8 q w w a a a a w q q 8 6 > 7 q a ",
"o @ @ @ @ @ @ @ @ @ @ o @ @ @ @ # # # # # # # $ $ $ $ * - - ; ; ; ; : : : : : > > > 3 3 7 7 8 8 7 7 8 8 8 q q 7 7 7 a H -.j.D.Y.",
"@ @ @ @ @ @ @ @ @ @ @ @ @ @ @ @ @ # # $ # # # # $ $ * * * - - - ; : 2 4 0 q q q p p a a a a w q q q q q 7 > 7 g | s.P.[.[.R.R.R.",
"@ o o o @ @ @ @ @ @ o @ @ @ @ @ @ # # # # # # # # # % - : 4 i d g x x c c ( H ( G G x l g p q q q 8 > > p | b.Y.[.[.[.[.[.[.}.[.",
"o o @ @ @ @ @ @ @ @ @ @ @ @ @ @ @ # # # # + # $ ; 1 i g l x x c c c c x j a q 0 4 : : ; : : : : ; 3 x p.P.[.[.[.[.[.P.b.i._ c l ",
"@ o @ @ @ @ @ @ @ @ @ @ @ @ @ # # # + + # = 1 d g l l l l l x c l g 0 2 ; ; ; ; ; : : 2 2 ; ; 0 _ b.R.[.[.[.P.s._ d 1 # o X X X ",
"@ @ @ @ @ @ @ @ @ @ @ @ @ @ @ @ o # & 1 i g g g l g g l l l g 4 : - - - - ; ; ; ; 1 : - ; g <.L.[.[.[.L.u.z 1 o   X o @ # # # # ",
"@ o @ @ @ @ @ @ @ @ @ @ o o o $ 1 u d g g g g g g l l g 0 1 * * - - - - - - ; ; - - 1 c j.Y.[.[.P.s.c , o . o # # # @ @ @ @ @ # ",
"@ @ @ @ @ @ @ @ @ @ o o # 1 4 i g g d g g g g g l g 4 = # $ * - = - - - ; ; * $ 4 _ b.R.[.R.b._ 4 o X o # # @ @ @ @ @ @ @ @ # # ",
"@ # # @ @ o o o # # 1 4 i f d d d d g g g g g d 1 * $ $ $ $ $ - - - ; * # = f <.F.[.[.Y.i.g $ X o @ # @ @ @ @ @ @ @ @ o @ # # # ",
"o o o o @ # = 4 i d g f d d d d d d g g g i 1 # + # $ $ $ $ - - - # # 1 Q j.P.R.[.n.=.4 o X # # # @ @ @ @ @ @ @ @ @ @ @ @ @ # # ",
"; = 1 4 i d g g g g d d d d d d g g d 4 ; # # # $ $ $ $ $ $ $ O $ i =.n.Y.R.Y.k.Q = X o # # # @ @ @ @ @ @ @ @ @ @ @ @ @ o @ # # ",
"g g g g f f d d d d d g g g g d i 1 * # # $ $ $ $ $ * $ + O , c p.L.Y.Y.L.u.d # X o % # @ @ @ @ @ @ @ @ @ @ @ @ @ @ @ @ @ @ # # ",
"g d d d d d d g g g g d i 4 ; * # # $ $ $ $ $ $ $ # O # 0 | b.P.Y.Y.n._ 4 X   @ # # @ @ @ @ @ @ @ @ @ @ @ @ @ @ @ @ @ @ @ @ # # ",
"g g g d d d i i 4 1 , = $ # # # $ $ $ $ $ $ # + O , c p.L.P.P.L.j.c =   X # # @ @ @ @ @ @ @ @ # @ @ @ @ @ @ @ @ @ @ @ @ @ @ # # ",
"; ; ; ; - - * $ $ # # $ $ $ $ $ $ $ $ $ O o $ i =.b.L.P.P.D.-.i #   # # # @ @ @ @ @ @ @ @ @ @ # # @ @ @ @ @ @ @ @ @ o @ @ @ # # ",
"# # # # # # # $ $ $ $ $ $ $ $ $ $ # + $ u ( j.L.L.P.L.s./ , o o # # # # # @ @ @ @ @ @ @ @ # # # # @ @ @ @ @ @ @ @ @ @ @ @ @ # # ",
"$ $ $ $ $ $ $ $ $ $ $ $ $ $ $ $ $ 1 c i.L.P.L.n.n.<.g $ X o # # # # # # @ @ # @ @ @ @ @ @ @ # # @ @ @ @ @ @ @ @ @ @ @ @ @ @ @ # "
};
