/* XPM */
static const char *moneda[] = {
/* columns rows colors chars-per-pixel */
"64 64 163 2 ",
"   c #110E00",
".  c #171200",
"X  c #1B1601",
"o  c #1D1900",
"O  c #17150B",
"+  c #18160D",
"@  c #16171A",
"#  c #1B1B1D",
"$  c #211E0D",
"%  c #272000",
"&  c #292204",
"*  c #292308",
"=  c #2B281B",
"-  c #3F3814",
";  c #202021",
":  c #2F2D24",
">  c #312F27",
",  c #353223",
"<  c #323129",
"1  c #3D3A2C",
"2  c #343434",
"3  c #3D3D3F",
"4  c #3A3934",
"5  c #413500",
"6  c #403914",
"7  c #413E31",
"8  c #625100",
"9  c #6D5A00",
"0  c #65560D",
"q  c #6C5C0C",
"w  c #786300",
"e  c #554F30",
"r  c #565030",
"t  c #605723",
"y  c #444545",
"u  c #4A4A4B",
"i  c #53534F",
"p  c #4F4F51",
"a  c #6B685E",
"s  c #6F6F6F",
"d  c #706E66",
"f  c #73716A",
"g  c #777778",
"h  c #7D7D7D",
"j  c #767676",
"k  c #8E7707",
"l  c #8B7508",
"z  c #957D01",
"x  c #9E8301",
"c  c #A18600",
"v  c #A58A01",
"b  c #AA8D01",
"n  c #A48B0A",
"m  c #AE9102",
"M  c #AB910B",
"N  c #B39501",
"B  c #B69801",
"V  c #BB9C01",
"C  c #AD9311",
"Z  c #B19715",
"A  c #B39B1D",
"S  c #C09F01",
"D  c #C4A302",
"F  c #CAA700",
"G  c #CDAA01",
"H  c #C9AA0C",
"J  c #D1AE01",
"K  c #D0AE08",
"L  c #D5B101",
"P  c #DBB601",
"I  c #DEB801",
"U  c #D5B209",
"Y  c #D8B408",
"T  c #DCB80D",
"R  c #DDBB17",
"E  c #E3BD01",
"W  c #E1BF0F",
"Q  c #C7AE2E",
"!  c #CAAF28",
"~  c #C2A823",
"^  c #CBB02D",
"/  c #CEB434",
"(  c #ECC602",
")  c #EFC802",
"_  c #F4CD02",
"`  c #F5CF0E",
"'  c #FED502",
"]  c #FFD801",
"[  c #FED70E",
"{  c #FFD80C",
"}  c #F6D009",
"|  c #E4C21E",
" . c #DCC13D",
".. c #F7D528",
"X. c #FEDC2C",
"o. c #E7C831",
"O. c #EDCE38",
"+. c #EFD037",
"@. c #EFD038",
"#. c #FFDF3E",
"$. c #F2D33B",
"%. c #BBA94C",
"&. c #D5BF55",
"*. c #DCC44E",
"=. c #E4C946",
"-. c #E9CD42",
";. c #EDD24B",
":. c #F1D54A",
">. c #F4D84D",
",. c #FBDE4D",
"<. c #F0D447",
"1. c #E1CA58",
"2. c #ECD252",
"3. c #F1D652",
"4. c #F5DA52",
"5. c #F9DD56",
"6. c #F5DB5A",
"7. c #F9DE59",
"8. c #FFE046",
"9. c #FFE14B",
"0. c #FDE156",
"q. c #FFE45E",
"w. c #FEE362",
"e. c #FFE56A",
"r. c #FAE475",
"t. c #FCE579",
"y. c #7E7E81",
"u. c #8F8E86",
"i. c #878788",
"p. c #9D9C97",
"a. c #A2A19E",
"s. c #A5A5A3",
"d. c #A7A7A8",
"f. c #ABABAB",
"g. c #AFAFB0",
"h. c #BCBCBD",
"j. c #B2B3B4",
"k. c #FFEA83",
"l. c #F7E489",
"z. c #C0C0BE",
"x. c #CBC8BC",
"c. c #F1E4A6",
"v. c #FFF1A4",
"b. c #FFF2AD",
"n. c #C2C2C3",
"m. c #CACAC9",
"M. c #D3D3CE",
"N. c #D8D7CE",
"B. c #D2D2D3",
"V. c #DBDBDB",
"C. c #E8E2C5",
"Z. c #FFF8C7",
"A. c #FFF7C8",
"S. c #F5F1D8",
"D. c #E4E4E4",
"F. c #EEEDE6",
"G. c #EDEDED",
"H. c #F0EFE8",
"J. c #F3F3F3",
"K. c #FBFBFB",
"L. c #F8F8F8",
"P. c #FCFCFC",
"I. c #F9F9F9",
/* pixels */
"P.G.I.G.J.G.J.J.J.J.G.J.G.I.G.I.G.I.G.I.G.J.J.J.J.J.J.G.I.G.I.G.I.G.I.G.J.G.J.J.J.J.G.J.G.I.G.I.G.I.G.I.G.J.J.J.J.J.J.G.I.G.I.G.",
"J.J.J.J.J.J.J.J.J.J.J.J.J.J.J.J.J.J.J.J.J.J.J.J.J.J.J.J.J.J.J.J.J.J.J.J.J.J.J.J.J.J.J.J.J.J.J.J.J.J.J.J.J.J.J.J.J.J.J.J.J.J.J.J.",
"G.I.G.I.G.J.J.J.J.J.J.G.I.G.I.G.I.G.I.G.J.G.J.J.J.J.G.J.G.I.G.I.G.I.G.I.G.J.J.J.J.J.J.G.I.G.I.G.I.G.I.G.J.G.J.J.J.J.G.J.G.I.G.P.",
"J.G.J.J.J.J.J.J.J.J.J.J.J.J.G.J.G.J.G.J.J.J.J.J.J.J.J.J.J.G.J.G.J.G.J.J.J.J.J.J.J.J.J.J.J.J.G.J.G.J.G.J.J.J.J.J.J.J.J.J.J.G.J.G.",
"I.G.J.G.J.J.J.J.J.J.J.J.J.J.G.J.G.J.G.J.J.J.J.J.J.J.J.J.J.G.J.G.J.G.J.G.J.J.J.J.J.J.J.J.G.J.G.J.G.J.G.J.J.J.J.J.J.J.J.J.J.G.J.G.",
"G.I.G.J.G.J.J.J.J.J.J.G.I.G.I.G.I.G.I.G.J.G.J.J.J.J.G.J.G.I.G.I.G.I.G.I.G.J.J.J.J.J.J.G.I.G.I.G.I.G.I.G.J.G.J.J.J.J.J.J.G.I.G.I.",
"J.J.J.J.J.J.J.J.J.J.J.J.J.J.J.J.J.J.J.J.J.J.J.J.J.J.J.J.J.J.J.J.J.J.J.J.J.J.J.J.J.J.J.J.J.J.J.J.J.J.J.J.J.J.J.J.J.J.J.J.J.J.J.J.",
"P.G.I.G.J.J.J.J.J.J.J.J.G.I.G.I.G.I.G.I.G.J.J.J.J.J.J.G.I.G.I.G.I.G.I.G.J.G.J.J.J.J.G.J.G.I.G.I.G.I.G.J.G.J.J.J.J.J.J.G.J.G.I.G.",
"G.J.G.J.G.J.J.J.J.J.J.J.J.G.J.G.J.G.J.G.J.J.J.J.J.J.J.J.J.I.J.I.J.I.J.I.G.J.J.J.J.J.J.J.J.G.J.G.J.G.J.G.J.J.J.J.J.J.J.J.G.J.G.I.",
"G.J.J.J.J.J.J.J.J.J.J.J.J.J.J.G.J.J.J.J.J.J.J.J.J.J.G.V.B.V.B.V.B.V.B.V.G.J.J.J.J.J.J.J.J.J.J.G.J.J.J.J.J.J.J.J.J.J.J.J.J.J.J.J.",
"P.G.I.G.J.G.J.J.J.J.G.J.G.I.G.I.G.I.G.I.G.J.J.J.J.J.h.; # # # # # # # 3 D.J.J.J.J.J.G.J.G.I.G.I.G.I.G.I.G.J.J.J.J.J.J.G.I.G.I.G.",
"J.J.J.J.J.J.J.J.J.J.J.J.J.J.J.J.J.J.J.J.J.J.J.J.V.V.p.$ o o X X X X . , n.B.D.J.J.J.J.J.J.J.J.J.J.J.J.J.J.J.J.J.J.J.J.J.J.J.J.J.",
"G.I.G.J.G.J.J.J.J.J.J.G.J.G.I.G.I.G.J.G.J.J.J.D.y @ e *.W E L S V S V z = # g J.J.J.J.G.J.G.I.G.I.G.J.G.J.J.J.J.J.J.J.J.G.J.G.I.",
"I.G.J.G.J.J.J.J.J.J.J.J.G.I.G.I.G.I.G.J.G.J.G.m.7 O t ,.[ ] _ I I P J b %   a V.J.J.J.J.G.I.G.I.G.I.G.J.G.J.J.J.J.J.J.G.J.G.I.G.",
"J.J.J.J.J.J.J.J.J.J.J.J.J.J.J.J.J.J.J.J.J.J.h.< %.1.-.[ ' ' ' ' ' E L G b b q y D.J.J.J.J.J.J.J.J.J.J.J.J.J.J.J.J.J.J.J.J.J.J.J.",
"G.I.G.J.G.J.J.J.J.J.J.G.I.G.I.G.I.G.I.G.J.D.s.< &.w.8.' _ _ _ _ _ P J L D D w 1 m.G.J.G.I.G.I.G.I.G.I.G.J.G.J.J.J.J.G.J.G.I.G.P.",
"I.G.J.J.J.J.J.J.J.J.J.J.J.J.G.J.G.J.J.J.J.h u N.r.w.8._ N c c c c x B L L F B k : h.J.J.J.J.G.J.G.J.G.J.J.J.J.J.J.J.J.J.J.G.J.G.",
"I.G.J.G.J.J.J.J.J.J.J.J.G.J.G.J.G.J.G.J.V.s i S.t.6.$.( b x x x x x N J G F D c * a.D.J.G.J.G.J.G.J.G.J.J.J.J.J.J.J.J.J.J.G.J.G.",
"G.I.G.I.G.J.J.J.J.J.J.G.I.G.I.G.I.G.I.D.u y.C.r.w.^ c b F J G G G J V x c D F V v - y.J.I.G.I.G.I.G.I.G.J.G.J.J.J.J.J.J.G.I.G.P.",
"J.J.J.J.J.J.J.J.J.J.J.J.J.J.J.J.J.J.G.m.y u.A.w.6.~ x v U T T T T P D x c D F D V 5 d V.J.J.J.J.J.J.J.J.J.J.J.J.J.J.J.J.J.J.J.J.",
"I.G.I.G.J.J.J.J.J.J.J.J.G.I.G.I.G.P.n.2 j.c.e.7.A V J U :.7.5.5.5.| J G G b B J V N 0 u D.I.G.I.G.I.G.I.G.J.J.J.J.J.J.G.J.G.I.G.",
"G.J.G.J.G.J.J.J.J.J.J.G.J.G.J.G.I.J.n.# n.b.7.;.C D T R ;.3.3.3.3.R J P L m N G D D 8 2 G.G.J.G.I.G.J.G.J.J.J.J.J.J.J.J.G.J.G.I.",
"G.J.J.J.J.J.J.J.J.J.J.J.J.J.J.J.J.J.n.# n.b.=.M F o.5.:.Z n n n n x D _ P J V b G F 8 2 G.J.J.J.J.J.J.J.J.J.J.J.J.J.J.J.J.J.J.J.",
"P.G.I.G.J.G.J.J.J.J.G.J.G.I.G.I.G.G.f.2 x.v.=.x F O.w.>.n z x c c x V ) I P V c J F 9 1 m.J.G.I.G.I.G.I.G.J.J.J.J.J.J.G.I.G.I.G.",
"J.J.J.J.J.J.J.J.J.J.J.J.J.J.J.J.I.u.y M.l.e.=.x F O.9.` v z B _ _ B x N _ E V c J F B l > n.J.J.J.J.J.J.J.J.J.J.J.J.J.J.J.J.J.J.",
"G.I.G.J.G.J.J.J.J.J.J.G.J.G.I.G.I.h 2 H.k.5. .v K +.#._ v z V ' ' V z v _ E V b G D D z O h.I.G.I.G.J.G.J.J.J.J.J.J.J.J.G.J.G.I.",
"I.G.I.G.J.J.J.J.J.J.J.J.G.I.G.I.J.h 2 F.k./ m K <.X.{ _ v z V ' ' V z v _ E J F v F G z + n.J.I.G.I.G.J.G.J.J.J.J.J.J.G.J.G.I.G.",
"J.J.J.J.J.J.J.J.J.J.J.J.J.J.J.J.J.h 2 F.k.Q v Y 4.X.' _ v z V ' ' V z v _ E P F x F G z + h.J.J.J.J.J.J.J.J.J.J.J.J.J.J.J.J.J.J.",
"G.I.G.I.G.J.J.J.J.J.J.G.I.G.I.G.P.h 2 F.k.Q v Y 4.X.' _ v z V ' ' V z v _ ' ( F x F G z O h.P.G.I.G.I.G.J.G.J.J.J.J.J.J.G.I.G.P.",
"I.G.J.G.J.J.J.J.J.J.J.J.J.J.G.J.J.h 2 F.k.Q v Y 4.X.' _ v z B _ _ B x N _ ' ) F x F G z + n.J.J.G.J.G.J.J.J.J.J.J.J.J.J.J.G.J.G.",
"I.G.J.G.J.J.J.J.J.J.J.J.G.J.G.J.J.h 2 F.k.Q v Y 4.X.' _ b z x c c x V _ ' ' ) F x F G z + n.J.J.G.J.G.J.J.J.J.J.J.J.J.J.J.G.J.G.",
"G.I.G.I.G.J.J.J.J.J.J.G.I.G.I.G.P.h 2 F.k.Q v Y 4.X.' _ b z x c c c F ' ' ' ) F x F G z O h.P.G.I.G.I.G.J.G.J.J.J.J.G.J.G.I.G.P.",
"J.J.J.J.J.J.J.J.J.J.J.J.J.J.J.J.J.h 2 F.k.Q v Y 4.X.' _ v z B _ _ _ _ ' ' ' ) F x F G z + h.J.J.J.J.J.J.J.J.J.J.J.J.J.J.J.J.J.J.",
"I.G.I.G.J.G.J.J.J.J.J.J.G.I.G.I.J.h 2 F.k.Q v Y 4.X.' _ v z V ' ' ' ' ' ' ' ( F x F G z + n.J.I.G.I.G.J.G.J.J.J.J.J.J.G.J.G.I.G.",
"G.J.G.J.G.J.J.J.J.J.J.G.J.G.I.G.P.h 2 F.k.Q v Y 4.X.' _ v z V ' ' ' ' ' ' E P F x F G z O h.I.G.I.G.J.G.J.J.J.J.J.J.J.J.G.J.G.I.",
"G.J.J.J.J.J.J.J.J.J.J.J.J.J.J.J.I.h 2 F.k./ M K :.X.{ _ v z V ' ' ' ' ' ' E J F v F G z + h.I.J.J.J.J.J.J.J.J.J.J.J.J.J.J.J.J.J.",
"P.G.I.G.J.G.J.J.J.J.G.J.G.I.G.I.G.h 2 H.k.7. .v K @.#._ v z V ' ' ' ' ' ' E V v F D D z + n.G.I.G.I.G.I.G.J.J.J.J.J.J.G.I.G.I.G.",
"G.J.J.J.J.J.J.J.J.J.J.J.J.J.J.J.I.i.y M.l.e.=.x F O.9.` v z V ' ' ' ' ' ' E V c J D N l < n.I.J.J.J.J.J.J.J.J.J.J.J.J.J.J.J.J.J.",
"G.J.G.J.J.J.J.J.J.J.J.G.J.G.J.G.I.D.g.2 x.v.=.x F O.q.>.n z V ' ' ' ' ' I P V c J F 9 7 M.G.I.G.J.G.J.G.J.J.J.J.J.J.J.J.G.J.G.I.",
"I.G.I.G.J.J.J.J.J.J.G.J.G.I.G.I.G.P.h.# n.b.=.M F o.7.3.Z n H [ [ ' ' _ P J V b G F 8 2 D.I.G.I.G.I.G.J.G.J.J.J.J.J.J.G.J.G.I.G.",
"J.J.J.J.J.J.J.J.J.J.J.J.J.J.J.J.J.J.h.# n.b.7.2.C D T R ;.6.6.0.0.| P P L m N G D D 8 2 D.J.J.J.J.J.J.J.J.J.J.J.J.J.J.J.J.J.J.J.",
"G.I.G.I.G.J.J.J.J.J.J.G.J.G.I.G.I.G.m.2 j.c.e.7.A V J U :.5.5.5.5.| J G G b B J V m 0 p G.G.I.G.I.G.I.G.J.J.J.J.J.J.G.J.G.I.G.P.",
"I.G.J.G.J.J.J.J.J.J.J.J.G.J.G.J.G.J.G.B.y u.Z.w.6.~ x v U T T T T P D x x D F D V 5 f D.G.J.G.J.G.J.G.J.J.J.J.J.J.J.J.J.J.G.J.G.",
"I.G.J.J.J.J.J.J.J.J.J.J.J.J.G.J.G.J.J.G.u y.C.r.w.! c b F J G G G J V x c F G V v 6 i.I.J.J.G.J.G.J.J.J.J.J.J.J.J.J.J.J.J.G.J.G.",
"G.I.G.J.G.J.J.J.J.J.J.G.I.G.I.G.I.G.I.G.D.j i S.t..._ ( b x x x x x N J J L G c * s.G.G.I.G.I.G.I.G.I.G.J.G.J.J.J.J.G.J.G.I.G.P.",
"J.J.J.J.J.J.J.J.J.J.J.J.J.J.J.J.J.J.J.J.J.i.u N.r.X.{ _ N c c c v c B L L L D k : h.J.J.J.J.J.J.J.J.J.J.J.J.J.J.J.J.J.J.J.J.J.J.",
"I.G.J.G.J.G.J.J.J.J.J.J.G.I.G.I.G.I.G.J.G.D.d.< &.q.#.' _ _ _ _ _ P J L D F w , m.G.J.J.G.I.G.I.G.I.G.J.G.J.J.J.J.J.J.G.J.G.I.G.",
"G.I.G.J.G.J.J.J.J.J.J.G.J.G.I.G.I.G.J.G.J.J.h.< %.1.-.[ ' ' ' ' ' E L G m b q y D.J.J.G.J.G.I.G.I.G.J.G.J.J.J.J.J.J.J.J.G.J.G.I.",
"J.J.J.J.J.J.J.J.J.J.J.J.J.J.J.J.J.J.J.J.J.J.G.m.1 O t ,.[ ] _ I I P J b %   a V.J.J.J.J.J.J.J.J.J.J.J.J.J.J.J.J.J.J.J.J.J.J.J.J.",
"P.G.I.G.J.G.J.J.J.J.G.J.G.I.G.I.G.I.G.I.G.J.J.D.y @ r *.W E L D S D B z = # h J.J.J.G.J.G.I.G.I.G.I.G.I.G.J.J.J.J.J.J.G.J.G.I.G.",
"G.J.J.J.J.J.J.J.J.J.J.J.J.J.J.J.J.J.J.J.J.J.J.J.V.V.p.$ o o o o X o . , z.V.D.J.J.J.J.J.J.J.J.J.J.J.J.J.J.J.J.J.J.J.J.J.J.J.G.J.",
"G.J.G.J.J.J.J.J.J.J.J.J.J.G.J.G.J.G.J.G.J.J.J.J.J.I.g.; # # # # # # # 3 V.I.J.J.J.J.J.J.J.G.J.G.J.G.J.G.J.J.J.J.J.J.J.J.G.J.G.I.",
"I.G.I.G.J.G.J.J.J.J.J.J.G.I.G.I.G.I.G.J.G.J.J.J.J.J.G.B.V.B.V.B.V.B.V.B.J.J.J.J.J.J.J.J.G.I.G.I.G.I.G.J.G.J.J.J.J.J.J.G.I.G.I.G.",
"J.J.J.J.J.J.J.J.J.J.J.J.J.J.J.J.J.J.J.J.J.J.J.J.J.J.J.J.J.J.J.J.J.J.J.J.J.J.J.J.J.J.J.J.J.J.J.J.J.J.J.J.J.J.J.J.J.J.J.J.J.J.J.J.",
"G.I.G.I.G.J.J.J.J.J.J.G.I.G.I.G.I.G.I.G.J.G.J.J.J.J.G.J.G.I.G.I.G.I.G.J.G.J.J.J.J.J.J.G.I.G.I.G.I.G.I.G.J.G.J.J.J.J.G.J.G.I.G.P.",
"I.G.J.G.J.J.J.J.J.J.J.J.G.J.G.J.G.J.G.J.J.J.J.J.J.J.J.J.J.G.J.G.J.G.J.G.J.J.J.J.J.J.J.J.G.J.G.J.G.J.G.J.J.J.J.J.J.J.J.J.J.G.J.G.",
"J.G.J.J.J.J.J.J.J.J.J.J.J.J.G.J.G.J.J.J.J.J.J.J.J.J.J.J.J.G.J.G.J.J.J.J.J.J.J.J.J.J.J.J.J.J.G.J.G.J.J.J.J.J.J.J.J.J.J.J.J.G.J.G.",
"G.I.G.I.G.J.J.J.J.J.J.G.I.G.I.G.I.G.I.G.J.G.J.J.J.J.G.J.G.I.G.I.G.I.G.I.G.J.J.J.J.J.J.G.I.G.I.G.I.G.I.G.J.G.J.J.J.J.G.J.G.I.G.P.",
"J.J.J.J.J.J.J.J.J.J.J.J.J.J.J.J.J.J.J.J.J.J.J.J.J.J.J.J.J.J.J.J.J.J.J.J.J.J.J.J.J.J.J.J.J.J.J.J.J.J.J.J.J.J.J.J.J.J.J.J.J.J.J.J.",
"I.G.J.G.J.J.J.J.J.J.G.J.G.J.G.I.G.I.G.J.G.J.J.J.J.J.J.G.J.G.I.G.I.G.I.G.J.J.J.J.J.J.G.J.G.J.G.I.G.I.G.J.G.J.J.J.J.J.J.G.J.G.I.G.",
"G.I.G.J.G.J.J.J.J.J.J.G.J.G.I.G.I.G.J.G.J.J.J.J.J.J.J.J.G.J.G.I.G.I.G.J.G.J.J.J.J.J.J.G.J.G.I.G.I.G.J.G.J.J.J.J.J.J.J.J.G.J.G.I.",
"J.J.J.J.J.J.J.J.J.J.J.J.J.J.J.J.J.J.J.J.J.J.J.J.J.J.J.J.J.J.J.J.J.J.J.J.J.J.J.J.J.J.J.J.J.J.J.J.J.J.J.J.J.J.J.J.J.J.J.J.J.J.J.J.",
"P.G.I.G.J.G.J.J.J.J.G.J.G.I.G.I.G.I.G.I.G.J.J.J.J.J.J.G.I.G.I.G.I.G.I.G.J.G.J.J.J.J.G.J.G.I.G.I.G.I.G.I.G.J.J.J.J.J.J.G.I.G.I.G.",
"G.J.J.J.J.J.J.J.J.J.J.J.J.J.J.J.J.J.J.J.J.J.J.J.J.J.J.J.J.J.J.J.J.J.J.J.J.J.J.J.J.J.J.J.J.J.J.J.J.J.J.J.J.J.J.J.J.J.J.J.J.J.J.J."
};
