/* XPM */
static const char *muro_ba[] = {
/* columns rows colors chars-per-pixel */
"64 64 207 2 ",
"   c #0E0A0A",
".  c #040303",
"X  c #130D0C",
"o  c #19110E",
"O  c #17110F",
"+  c #151415",
"@  c #1C1614",
"#  c #1C1B1B",
"$  c #191817",
"%  c #211513",
"&  c #251A15",
"*  c #2C1D16",
"=  c #241D1C",
"-  c #2C1E1B",
";  c #311F1B",
":  c #24201D",
">  c #2C211C",
",  c #252217",
"<  c #34231D",
"1  c #3B261C",
"2  c #3D2A1E",
"3  c #252323",
"4  c #2B2423",
"5  c #2E2926",
"6  c #2D292A",
"7  c #332321",
"8  c #3A2724",
"9  c #342B25",
"0  c #3D2B25",
"q  c #3B2C29",
"w  c #312E2C",
"e  c #3C342E",
"r  c #3A3333",
"t  c #393739",
"y  c #393837",
"u  c #422C1E",
"i  c #49361F",
"p  c #6B2B12",
"a  c #692710",
"s  c #722F14",
"d  c #6F3013",
"f  c #432C24",
"g  c #422D2A",
"h  c #482F2C",
"j  c #4C3324",
"k  c #4D3D22",
"l  c #4B322C",
"z  c #4A382F",
"x  c #543625",
"c  c #563827",
"v  c #52362D",
"b  c #54392B",
"n  c #5B3C2C",
"m  c #5A3825",
"M  c #453230",
"N  c #4C3531",
"B  c #4C3A34",
"V  c #443E3B",
"C  c #473A36",
"Z  c #523632",
"A  c #5B3B33",
"S  c #563D39",
"D  c #613E2A",
"F  c #5E402E",
"G  c #43403F",
"H  c #5C4030",
"J  c #55423C",
"K  c #5C433F",
"L  c #584838",
"P  c #65432E",
"I  c #69442F",
"U  c #654A2F",
"Y  c #78472D",
"T  c #6D532E",
"R  c #755C2F",
"E  c #654334",
"W  c #6B4634",
"Q  c #664936",
"!  c #6E4933",
"~  c #694639",
"^  c #6C4C3A",
"/  c #634639",
"(  c #734C34",
")  c #734C3B",
"_  c #7B4F3B",
"`  c #704735",
"'  c #6A503E",
"]  c #7A5036",
"[  c #7E5A37",
"{  c #76533C",
"}  c #7B523B",
"|  c #775A37",
" . c #756237",
".. c #3D3E40",
"X. c #454443",
"o. c #4B4A49",
"O. c #4A4746",
"+. c #5C4943",
"@. c #514D4C",
"#. c #524945",
"$. c #57514F",
"%. c #575353",
"&. c #595352",
"*. c #5F5D5C",
"=. c #5B5756",
"-. c #644F46",
";. c #734D40",
":. c #7B5544",
">. c #755E42",
",. c #7C5944",
"<. c #635D5B",
"1. c #695C59",
"2. c #776246",
"3. c #66615F",
"4. c #6C615D",
"5. c #736256",
"6. c #646363",
"7. c #6C6564",
"8. c #6E6966",
"9. c #6D6B6B",
"0. c #736965",
"q. c #7B6D61",
"w. c #746D6B",
"e. c #796D6C",
"r. c #7D716E",
"t. c #7A6F70",
"y. c #747271",
"u. c #7C7472",
"i. c #7E7C7B",
"p. c #864B30",
"a. c #84553D",
"s. c #8D5B3E",
"d. c #835A3B",
"f. c #83462C",
"g. c #836733",
"h. c #8B6939",
"j. c #886836",
"k. c #916E39",
"l. c #99763D",
"z. c #A07D3B",
"x. c #805646",
"c. c #855A44",
"v. c #8D5D41",
"b. c #905D40",
"n. c #8C6143",
"m. c #8F6C44",
"M. c #936242",
"N. c #9A6545",
"B. c #9E6D47",
"V. c #926951",
"C. c #A36B47",
"Z. c #A46D48",
"A. c #A86E4A",
"S. c #AD734C",
"D. c #A77649",
"F. c #B3784D",
"G. c #A87955",
"H. c #BD7E52",
"J. c #82756E",
"K. c #917C66",
"L. c #837875",
"P. c #877E7C",
"I. c #887E7C",
"U. c #847370",
"Y. c #A88445",
"T. c #B08A46",
"R. c #BB8B4C",
"E. c #B9874D",
"W. c #B88250",
"Q. c #BE8757",
"!. c #89817C",
"~. c #9A867E",
"^. c #C3994C",
"/. c #C68456",
"(. c #C28A52",
"). c #C68958",
"_. c #C39652",
"`. c #CD9554",
"'. c #CA935F",
"]. c #CB9C51",
"[. c #D29D55",
"{. c #CDA051",
"}. c #D4A453",
"|. c #D7A954",
" X c #C78D60",
".X c #8B8483",
"XX c #878584",
"oX c #958D89",
"OX c #9B8E89",
"+X c #948984",
"@X c #9A908C",
"#X c #989393",
"$X c #A0938C",
"%X c #A89C95",
"&X c #B0A19A",
"*X c #ADA5A5",
"=X c #AAA6A5",
"-X c #B1ABA9",
";X c #BDB0A6",
":X c #B5B0AE",
">X c #BAB6B5",
",X c #C3B4A9",
"<X c #C0BCB8",
"1X c #C8C0B8",
"2X c #CBCCCD",
"3X c #D3D3D5",
"4X c None",
/* pixels */
"4X4X4X4X4X4X4X4X4X4X4X4X4X4X4X4X4X4X4X4X4X4X4X4X4X4X4X4X4X4X4X4X4X4X4X4X4X4X4X4X4X4X4X4X4X4X4X4X4X4X4X4X4X4X4X4X4X4X4X4X4X4X4X4X",
"4X4X4X4X4X4X4X4X4X4X4X4X4X4X4X4X4X4X4X4X4X4X4X4X4X4X4X4X4X4X4X4X4X4X4X4X4X4X4X4X4X4X4X4X4X4X4X4X4X4X4X4X4X4X4X4X4X4X4X4X4X4X4X4X",
"4X4X4X4X4X4X4X4X4X4X4X4X4X4X4X4X4X4X4X4X4X4X4X4X4X4X4X4X4X4X4X4X4X4X4X4X4X4X4X4X4X4X4X4X4X4X4X4X4X4X4X4X4X4X4X4X4X4X4X4X4X4X4X4X",
"4X4X4X4X4X4X4X4X4X4X4X4X4X4X4X4X4X4X4X4X4X4X4X4X4X4X4X4X4X4X4X4X4X4X4X4X4X4X4X4X4X4X4X4X4X4X4X4X4X4X4X4X4X4X4X4X4X4X4X4X4X4X4X4X",
"4X4X4X4X4X4X4X4X4X4X4X4X4X4X4X4X4X4X4X4X4X4X4X4X4X4X4X4X4X4X4X4X4X4X4X4X4X4X4X4X4X4X4X4X4X4X4X4X4X4X4X4X4X4X4X4X4X4X4X4X4X4X4X4X",
"4X4X4X4X4X4X4X4X4X4X4X4X4X4X4X4X4X4X4X4X4X4X4X4X4X4X4X4X4X4X4X4X4X4X4X4X4X4X4X4X4X4X4X4X4X4X4X4X4X4X4X4X4X4X4X4X4X4X4X4X4X4X4X4X",
"4X4X4X4X4X4X4X4X4X4X4X4X4X4X4X4X4X4X4X4X4X4X4X4X4X4X4X4X4X4X4X4X4X4X4X4X4X4X4X4X4X4X4X4X4X4X4X4X4X4X4X4X4X4X4X4X4X4X4X4X4X4X4X4X",
"4X4X4X4X4X4X4X4X4X4X4X4X4X4X4X4X4X4X4X4X4X4X4X4X4X4X4X4X4X4X4X4X4X4X4X4X4X4X4X4X4X4X4X4X4X4X4X4X4X4X4X4X4X4X4X4X4X4X4X4X4X4X4X4X",
"4X4X4X4X4X4X4X4X4X4X4X4X4X4X4X4X4X4X4X4X4X4X4X4X4X4X4X4X4X4X4X4X4X4X4X4X4X4X4X4X4X4X4X4X4X4X4X4X4X4X4X4X4X4X4X4X4X4X4X4X4X4X4X4X",
"4X4X4X4X4X4X4X4X4X4X4X4X4X4X4X4X4X4X4X4X4X4X4X4X4X4X4X4X4X4X4X4X4X4X4X4X4X4X4X4X4X4X4X4X4X4X4X4X4X4X4X4X4X4X4X4X4X4X4X4X4X4X4X4X",
"4X4X4X4X4X4X4X4X4X4X4X4X4X4X4X4X4X4X4X4X4X4X4X4X4X4X4X4X4X4X4X4X4X4X4X4X4X4X4X4X4X4X4X4X4X4X4X4X4X4X4X4X4X4X4X4X4X4X4X4X4X4X4X4X",
"4X4X4X4X4X4X4X4X4X4X4X4X4X4X4X4X4X4X4X4X4X4X4X4X4X4X4X4X4X4X4X4X4X4X4X4X4X4X4X4X4X4X4X4X4X4X4X4X4X4X4X4X4X4X4X4X4X4X4X4X4X4X4X4X",
"4X4X4X4X4X4X4X4X4X4X4X4X4X4X4X4X4X4X4X4X4X4X4X4X4X4X4X4X4X4X4X4X4X4X4X4X4X4X4X4X4X4X4X4X4X4X4X4X4X4X4X4X4X4X4X4X4X4X4X4X4X4X4X4X",
"4X4X4X4X4X4X4X4X4X4X4X4X4X4X4X4X4X4X4X4X4X4X4X4X4X4X4X4X4X4X4X4X4X4X4X4X4X4X4X4X4X4X4X4X4X4X4X4X4X4X4X4X4X4X4X4X4X4X4X4X4X4X4X4X",
"4X4X4X4X4X4X4X4X4X4X4X4X4X4X4X4X4X4X4X4X4X4X4X4X4X4X4X4X4X4X4X4X4X4X4X4X4X4X4X4X4X4X4X4X4X4X4X4X4X4X4X4X4X4X4X4X4X4X4X4X4X4X4X4X",
"4X4X4X4X4X4X4X4X4X4X4X4X4X4X4X4X4X4X4X4X4X4X4X4X4X4X4X4X4X4X4X4X4X4X4X4X4X4X4X4X4X4X4X4X4X4X4X4X4X4X4X4X4X4X4X4X4X4X4X4X4X4X4X4X",
"4X4X4X4X4X4X4X4X4X4X4X4X4X4X4X4X4X4X4X4X4X4X4X4X4X4X4X4X4X4X4X4X4X4X4X4X4X4X4X4X4X4X4X4X4X4X4X4X4X4X4X4X4X4X4X4X4X4X4X4X4X4X4X4X",
"4X4X4X4X4X4X4X4X4X4X4X4X4X4X4X4X4X4X4X4X4X4X4X4X4X4X4X4X4X4X4X4X4X4X4X4X4X4X4X4X4X4X4X4X4X4X4X4X4X4X4X4X4X4X4X4X4X4X4X4X4X4X4X4X",
"4X4X4X4X4X4X4X4X4X4X4X4X4X4X4X4X4X4X4X4X4X4X4X4X+ # # # 4X4X4X4X4X4X4X4X4X4X4X# # 4X4X4X4X4X4X4X4X4X4X4X4X4X4X4X4X4X4X4X4X4X4X4X",
"4X4X4X4X4X4X4X4X4X4X4X4X4X4X4X4X4X4X4X4X# , > 4 t y..Xu.9.6 # + $ $ $ $ $ # o.9.y.3.3 4X4X4X4X4X4X4X4X4X4X4X4X4X4X4X4X4X4X4X4X4X",
"4X4X4X4X4X4X4X4X4X4X4X4X4X4X4X4X4X4X3 > 2 z.T.B.Q -.J..X*X#X=.> < < < < < 7 M +.u..XXX3.4X4X4X4X4X4X4X4X4X4X4X4X4X4X4X4X4X4X4X4X",
"4X4X4X4X4X4X4X4X4X4X4X4X4X4X4X4X4X9 > h.D.T.T.Y.Y.D.Q / +.oX>X8.@ * > > > > * > < J oX:Xw.4X4X4X4X4X4X4X4X4X4X4X4X4X4X4X4X4X4X4X",
"4X4X4X4X4X4X4X4X4X4X4X4X4X4X4X4X9 F ( ( Q C 9 , C Q d.A.n +.oX>X0.n a.s.N.N.N.N.N.N.V.+X:X=.4X4X4X4X4X4X4X4X4X4X4X4X4X4X4X4X4X4X",
"4X4X4X4X4X4X4X4X4X4X4X4X4X4X4X# < ( 2 o b ! j < W A & { v.< B %X1XJ.B.F.).`.`.`.`.`.`.G.$XoXr 4X4X4X4X4X4X4X4X4X4X4X4X4X4X4X4X4X",
"4X4X4X4X4X4X4X4X4X4X4X4X4X4X4X@ j < q & n s.P u s.E @ q / j - U.<X1X'.[.}.|.|.|.|.|.|.[.K.-X~.^ 4X4X4X4X4X4X4X4X4X4X4X4X4X4X4X4X",
"4X4X4X4X4X4X4X4X4X4X4X4X4X4X# * n & N & ! v.P u s.D % 0 J P ; S @X,X).(.(.(.(.].{.{._.R.G.!.,Xn.3 4X4X4X4X4X4X4X4X4X4X4X4X4X4X4X",
"4X4X4X4X4X4X4X4X4X4X4X4X4X4X= c > q Z & ! v.P 1 a.E % g M ' P @ 0.+X,.{ E E ) } { [ U i j <.&X) 9 4X4X4X4X4X4X4X4X4X4X4X4X4X4X4X",
"4X4X4X4X4X4X4X4X4X4X4X4X4X4X> D & M ! 1 P b.I * A ` * f M >.R - L.%X_.^.^.R.W.W.E.^.^.E.D.0..X:.( 4X4X4X4X4X4X4X4X4X4X4X4X4X4X4X",
"4X4X4X4X4X4X4X4X4X4X4X4X4X4X> D @ 7 j & f D u & A a.1 f M 2.R 7 r.;X'.[.[.[.}.|.}.[.[.[.`.q.I.x.] 4X4X4X4X4X4X4X4X4X4X4X4X4X4X4X",
"4X4X4X4X4X4X4X4X4X4X4X4X4X4X= Y s a p p f @.X.& ` S.f f M 2.R 7 e.;X X/.).`.}.|.}.`.`.)./.q.I.x.] 4X4X4X4X4X4X4X4X4X4X4X4X4X4X4X",
"4X4X4X4X4X4X4X4X4X4X4X4X4X4X= Y d f.p.p +.6.i.3.n S.u f M >.R 7 e.;XQ.A.D.R.`.`.`.`.`.F.C.5.r.;.P 4X4X4X4X4X4X4X4X4X4X4X4X4X4X4X",
"4X4X4X4X4X4X4X4X4X4X4X4X4X4X> D 5 #X=Xy..X<.6.XXP H.u f M 2.R o 7.%X:.E v f x c ) { v.} E <.L.~ b 4X4X4X4X4X4X4X4X4X4X4X4X4X4X4X",
"4X4X4X4X4X4X4X4X4X4X4X4X4X4X= m C *X*XP.!.8.=.6.! /.u 0 L R.T - 0.OXc.a.( ! ! ! _ _ a.a.} 1.J.E q 4X4X4X4X4X4X4X4X4X4X4X4X4X4X4X",
"4X4X4X4X4X4X4X4X4X4X4X4X4X4X# * n X.5.0 @.@.@.@.a.H.2 q >.k.< N e.OXc.a.s.v.v.v.s.s.s.a.a.4.r.A : 4X4X4X4X4X4X4X4X4X4X4X4X4X4X4X",
"4X4X4X4X4X4X4X4X4X4X4X4X4X4X4X& x > > X 0 %.O.H F.v.& e D.P < K t.P.S E } } } } } } } E J w.1.8 4X4X4X4X4X4X4X4X4X4X4X4X4X4X4X4X",
"4X4X4X4X4X4X4X4X4X4X4X4X4X4X4X# < W 0 & ] 0 = c s.E &  .l.% B 7.9.V 7 < < < < < < < < < &.w.M 6 4X4X4X4X4X4X4X4X4X4X4X4X4X4X4X4X",
"4X4X4X4X4X4X4X4X4X4X4X4X4X4X4X4Xe E { q z < @ % b B R R.[ q =.*.t 4 - * * * * * * * 9 V 7.@.4X4X4X4X4X4X4X4X4X4X4X4X4X4X4X4X4X4X",
"4X4X4X4X4X4X4X4X4X4X4X4X4X4X4X4X4X> 1 H c.d.h.h.k.m.T ^ +.7.*.r 7 N Z v v v v Z Z S %.*.O.4X4X4X4X4X4X4X4X4X4X4X4X4X4X4X4X4X4X4X",
"4X4X4X4X4X4X4X4X4X4X4X4X4X4X4X4X4X4X& 1 2 L 5.2.{ ' M &.&.%.y   7 l h l h l l B #.@.t # 6 4X4X4X4X4X4X4X4X4X4X4X4X4X4X4X4X4X4X4X",
"4X4X4X4X4X4X4X4X4X4X4X4X4X4X4X4X4X4Xj E f @ + r X.G w : e = X .   @ @ O = w 4 6 6 $ % X 4X4X4X4X4X4X4X4X4X4X4X4X4X4X4X4X4X4X4X4X",
"4X4X4X4X4X4X4X4X4X4X4X4X4X4X4X4X4X4Xx s.A 0 # X.o.O.# & ! Q < . O g l - 6.i.O...+ < ! D > 4X4X4X4X4X4X4X4X4X4X4X4X4X4X4X4X4X4X4X",
"4X4X4X4X4X4X4X4X4X4X4X4X4X4X4X4X4X9 I N.E 0 O.2X3X2XX.f ) S.P o 8 Z Z 7 9.3X3X>X6 h c.Z.c 4X4X4X4X4X4X4X4X4X4X4X4X4X4X4X4X4X4X4X",
"4X4X4X4X4X4X4X4X4X4X4X4X4X4X4X4X4Xf s.S.~ & 4 9.y.9.3 - A M.N.1 % * = @ y y.y.6.= 0 j h.v.* 4X4X4X4X4X4X4X4X4X4X4X4X4X4X4X4X4X4X",
"4X4X4X4X4X4X4X4X4X4X4X4X4X4X4X4X4Xf C.A._ b c c c c c c l { A.` ( } [ g.g.g.g.g.h.v.} A.N.D 4 4X4X4X4X4X4X4X4X4X4X4X4X4X4X4X4X4X",
"4X4X4X4X4X4X4X4X4X4X4X4X4X4X4X4X4Xf S.a.1 * < < < < < < l g P s.n W E i k k k k k j ) b ( ] > 4X4X4X4X4X4X4X4X4X4X4X4X4X4X4X4X4X",
"4X4X4X4X4X4X4X4X4X4X4X4X4X4X4X4X4Xl G.:.g = 4X4X4X4X4X: Z q v v.0 M g + 4X4X4X4X4X4 S 4 W a.5 4X4X4X4X4X4X4X4X4X4X4X4X4X4X4X4X4X",
"4X4X4X4X4X4X4X4X4X4X4X4X4X4X4X4X4X4X4X4X4X4X4X4X4X4X4X4X4X4X4X4X4X4X4X4X4X4X4X4X4X4X4X4X4X4X4X4X4X4X4X4X4X4X4X4X4X4X4X4X4X4X4X4X",
"4X4X4X4X4X4X4X4X4X4X4X4X4X4X4X4X4X4X4X4X4X4X4X4X4X4X4X4X4X4X4X4X4X4X4X4X4X4X4X4X4X4X4X4X4X4X4X4X4X4X4X4X4X4X4X4X4X4X4X4X4X4X4X4X",
"4X4X4X4X4X4X4X4X4X4X4X4X4X4X4X4X4X4X4X4X4X4X4X4X4X4X4X4X4X4X4X4X4X4X4X4X4X4X4X4X4X4X4X4X4X4X4X4X4X4X4X4X4X4X4X4X4X4X4X4X4X4X4X4X",
"4X4X4X4X4X4X4X4X4X4X4X4X4X4X4X4X4X4X4X4X4X4X4X4X4X4X4X4X4X4X4X4X4X4X4X4X4X4X4X4X4X4X4X4X4X4X4X4X4X4X4X4X4X4X4X4X4X4X4X4X4X4X4X4X",
"4X4X4X4X4X4X4X4X4X4X4X4X4X4X4X4X4X4X4X4X4X4X4X4X4X4X4X4X4X4X4X4X4X4X4X4X4X4X4X4X4X4X4X4X4X4X4X4X4X4X4X4X4X4X4X4X4X4X4X4X4X4X4X4X",
"4X4X4X4X4X4X4X4X4X4X4X4X4X4X4X4X4X4X4X4X4X4X4X4X4X4X4X4X4X4X4X4X4X4X4X4X4X4X4X4X4X4X4X4X4X4X4X4X4X4X4X4X4X4X4X4X4X4X4X4X4X4X4X4X",
"4X4X4X4X4X4X4X4X4X4X4X4X4X4X4X4X4X4X4X4X4X4X4X4X4X4X4X4X4X4X4X4X4X4X4X4X4X4X4X4X4X4X4X4X4X4X4X4X4X4X4X4X4X4X4X4X4X4X4X4X4X4X4X4X",
"4X4X4X4X4X4X4X4X4X4X4X4X4X4X4X4X4X4X4X4X4X4X4X4X4X4X4X4X4X4X4X4X4X4X4X4X4X4X4X4X4X4X4X4X4X4X4X4X4X4X4X4X4X4X4X4X4X4X4X4X4X4X4X4X",
"4X4X4X4X4X4X4X4X4X4X4X4X4X4X4X4X4X4X4X4X4X4X4X4X4X4X4X4X4X4X4X4X4X4X4X4X4X4X4X4X4X4X4X4X4X4X4X4X4X4X4X4X4X4X4X4X4X4X4X4X4X4X4X4X",
"4X4X4X4X4X4X4X4X4X4X4X4X4X4X4X4X4X4X4X4X4X4X4X4X4X4X4X4X4X4X4X4X4X4X4X4X4X4X4X4X4X4X4X4X4X4X4X4X4X4X4X4X4X4X4X4X4X4X4X4X4X4X4X4X",
"4X4X4X4X4X4X4X4X4X4X4X4X4X4X4X4X4X4X4X4X4X4X4X4X4X4X4X4X4X4X4X4X4X4X4X4X4X4X4X4X4X4X4X4X4X4X4X4X4X4X4X4X4X4X4X4X4X4X4X4X4X4X4X4X",
"4X4X4X4X4X4X4X4X4X4X4X4X4X4X4X4X4X4X4X4X4X4X4X4X4X4X4X4X4X4X4X4X4X4X4X4X4X4X4X4X4X4X4X4X4X4X4X4X4X4X4X4X4X4X4X4X4X4X4X4X4X4X4X4X",
"4X4X4X4X4X4X4X4X4X4X4X4X4X4X4X4X4X4X4X4X4X4X4X4X4X4X4X4X4X4X4X4X4X4X4X4X4X4X4X4X4X4X4X4X4X4X4X4X4X4X4X4X4X4X4X4X4X4X4X4X4X4X4X4X",
"4X4X4X4X4X4X4X4X4X4X4X4X4X4X4X4X4X4X4X4X4X4X4X4X4X4X4X4X4X4X4X4X4X4X4X4X4X4X4X4X4X4X4X4X4X4X4X4X4X4X4X4X4X4X4X4X4X4X4X4X4X4X4X4X",
"4X4X4X4X4X4X4X4X4X4X4X4X4X4X4X4X4X4X4X4X4X4X4X4X4X4X4X4X4X4X4X4X4X4X4X4X4X4X4X4X4X4X4X4X4X4X4X4X4X4X4X4X4X4X4X4X4X4X4X4X4X4X4X4X",
"4X4X4X4X4X4X4X4X4X4X4X4X4X4X4X4X4X4X4X4X4X4X4X4X4X4X4X4X4X4X4X4X4X4X4X4X4X4X4X4X4X4X4X4X4X4X4X4X4X4X4X4X4X4X4X4X4X4X4X4X4X4X4X4X",
"4X4X4X4X4X4X4X4X4X4X4X4X4X4X4X4X4X4X4X4X4X4X4X4X4X4X4X4X4X4X4X4X4X4X4X4X4X4X4X4X4X4X4X4X4X4X4X4X4X4X4X4X4X4X4X4X4X4X4X4X4X4X4X4X",
"4X4X4X4X4X4X4X4X4X4X4X4X4X4X4X4X4X4X4X4X4X4X4X4X4X4X4X4X4X4X4X4X4X4X4X4X4X4X4X4X4X4X4X4X4X4X4X4X4X4X4X4X4X4X4X4X4X4X4X4X4X4X4X4X"
};
