/* XPM */
static const char *player_sf[] = {
/* columns rows colors chars-per-pixel */
"64 64 253 2 ",
"   c #011426",
".  c #001529",
"X  c #0C1A2C",
"o  c #0A1629",
"O  c #1C1A2B",
"+  c #181629",
"@  c #131E32",
"#  c #1B1B34",
"$  c #0A152B",
"%  c #360D28",
"&  c #241C2C",
"*  c #2B1D2C",
"=  c #28142A",
"-  c #371729",
";  c #2A1B35",
":  c #381734",
">  c #2E0D2A",
",  c #182438",
"<  c #0E2236",
"1  c #2B212E",
"2  c #35252D",
"3  c #292738",
"4  c #332332",
"5  c #382737",
"6  c #3C313C",
"7  c #2E323D",
"8  c #440A26",
"9  c #5B0B28",
"0  c #471528",
"q  c #571929",
"w  c #580D33",
"e  c #451A35",
"r  c #561437",
"t  c #680A29",
"y  c #760B29",
"u  c #67152C",
"i  c #77152A",
"p  c #641833",
"a  c #751134",
"s  c #49232A",
"d  c #572628",
"f  c #42263A",
"g  c #472938",
"h  c #562B35",
"j  c #47333B",
"k  c #57353A",
"l  c #66262A",
"z  c #75282A",
"x  c #692836",
"c  c #673737",
"v  c #74393D",
"b  c #763738",
"n  c #6F322C",
"m  c #731C1B",
"M  c #67453C",
"N  c #1D2C44",
"B  c #292D42",
"V  c #392A43",
"C  c #2A3448",
"Z  c #333445",
"A  c #39394A",
"S  c #253A56",
"D  c #472C44",
"F  c #4A3544",
"G  c #563744",
"H  c #503A54",
"J  c #683A45",
"K  c #753D41",
"L  c #793F43",
"P  c #753945",
"I  c #662F50",
"U  c #4B2951",
"Y  c #3A4357",
"T  c #364356",
"R  c #384A65",
"E  c #3D546C",
"W  c #4A4349",
"Q  c #5A4644",
"!  c #454553",
"~  c #594956",
"^  c #575157",
"/  c #69464A",
"(  c #764143",
")  c #7A4245",
"_  c #784948",
"`  c #66554B",
"'  c #76544D",
"]  c #775754",
"[  c #6C4E59",
"{  c #7B6656",
"}  c #485569",
"|  c #585569",
" . c #4D4F6C",
".. c #6B526C",
"X. c #5B6678",
"o. c #586071",
"O. c #66677A",
"+. c #676A72",
"@. c #B5281C",
"#. c #850C2B",
"$. c #960C2C",
"%. c #881A27",
"&. c #9A182A",
"*. c #950E31",
"=. c #891636",
"-. c #911235",
";. c #A6142A",
":. c #B51A29",
">. c #A71634",
",. c #992827",
"<. c #853729",
"1. c #973A2D",
"2. c #843D39",
"3. c #8C2A2E",
"4. c #A52329",
"5. c #B8252A",
"6. c #B73627",
"7. c #B73937",
"8. c #A7342F",
"9. c #CA2B1D",
"0. c #D52E1D",
"q. c #DB331D",
"w. c #D9361B",
"e. c #C9311E",
"r. c #E7391C",
"t. c #F6391C",
"y. c #E32C1E",
"u. c #C82925",
"i. c #D42B24",
"p. c #CC3525",
"a. c #D73624",
"s. c #E53622",
"d. c #F33B21",
"f. c #EA2F22",
"g. c #C41E26",
"h. c #894338",
"j. c #964937",
"k. c #954327",
"l. c #A4442C",
"z. c #A74B3A",
"x. c #B55237",
"c. c #B34F31",
"v. c #EA441D",
"b. c #FB461E",
"n. c #FC541F",
"m. c #D8442B",
"M. c #D54535",
"N. c #CB4C31",
"B. c #E64525",
"V. c #F64A23",
"C. c #F55822",
"Z. c #EB5232",
"A. c #E84E2E",
"S. c #CB6736",
"D. c #F06834",
"F. c #89274F",
"G. c #BD3B40",
"H. c #844A42",
"J. c #87574C",
"K. c #9A5443",
"L. c #8A5153",
"P. c #A65946",
"I. c #B65B48",
"U. c #AF4C53",
"Y. c #866956",
"T. c #986856",
"R. c #967159",
"E. c #A86959",
"W. c #AE6C52",
"Q. c #967B64",
"!. c #8B7773",
"~. c #B26D6C",
"^. c #B35662",
"/. c #CE594A",
"(. c #D66649",
"). c #DB6757",
"_. c #DA7652",
"`. c #C96E54",
"'. c #E8694B",
"]. c #E66955",
"[. c #E67956",
"{. c #F57049",
"}. c #CC7163",
"|. c #E87A64",
" X c #F07C65",
".X c #9F8768",
"XX c #B38B6B",
"oX c #B88A5E",
"OX c #D1825C",
"+X c #E5885E",
"@X c #D0906A",
"#X c #E8986A",
"$X c #EE8B6D",
"%X c #D7A976",
"&X c #D1A271",
"*X c #ECA574",
"=X c #F5A776",
"-X c #FBB77A",
";X c #F2A86F",
":X c #FEC17D",
">X c #596F8B",
",X c #777A87",
"<X c #6B7790",
"1X c #9A798E",
"2X c #B07F93",
"3X c #71859C",
"4X c #6E88A3",
"5X c #5684A2",
"6X c #868C97",
"7X c #929097",
"8X c #AC8D8F",
"9X c #959DA8",
"0X c #8A95AB",
"qX c #9BA8B5",
"wX c #A4AAB7",
"eX c #AAB2BA",
"rX c #ABA7AE",
"tX c #D18D8A",
"yX c #EB9788",
"uX c #EC988D",
"iX c #CEAC85",
"pX c #ECB783",
"aX c #F8B884",
"sX c #EAA397",
"dX c #F5A996",
"fX c #F7A78A",
"gX c #F5B7A6",
"hX c #EEB5AB",
"jX c #DBADA5",
"kX c #FDC484",
"lX c #FFCC8D",
"zX c #FEC788",
"xX c #FFD08F",
"cX c #FFCE91",
"vX c #F4C690",
"bX c #FFD192",
"nX c #EEC592",
"mX c #F5CCBA",
"MX c #97AAC2",
"NX c #ADB5C5",
"BX c #B7C2CD",
"VX c #C8C6CD",
"CX c #C5CDD5",
"ZX c #D0D6DB",
"AX c #F4D7D1",
"SX c #F8E1DC",
"DX c #D5E0EA",
"FX c #F9EBE7",
"GX c #FEFDFC",
"HX c #F7F6F7",
"JX c #EFEDED",
"KX c #DDDEE1",
"LX c None",
/* pixels */
"LXLXLXLXLXLXLXLXLXLXLXLXLXLXLXLXLXLXLXLXLXLXLXLXLXLXLXLXLXLXLXLXLXLXLXLXLXLXLXLXLXLXLXLXLXLXLXLXLXLXLXLXLXLXLXLXLXLXLXLXLXLXLXLX",
"LXLXLXLXLXLXLXLXLXLXLXLXLXLXLXLXLXLXLXLXLXLXLXLXLXW 6 LXLXLXLXLXLXLXLXLXLXLXLXLXLXLXLXLXLXLXLXLXLXLXLXLXLXLXLXLXLXLXLXLXLXLXLXLX",
"LXLXLXLXLXLXLXLXLXLXLXLXLXLXLXLXLXLXLXLXLXLXLXLXLXj J.j , , @ LXLXLXLXLXLXLXLXLXLXLXLXLXLXLXLXLXLXLXLXLXLXLXLXLXLXLXLXLXLXLXLXLX",
"LXLXLXLXLXLXLXLXLXLXLXLXLXLXLXLXLX, 4 3 LXLXLXLXLX5 _ J._ h 2 6 H ..LXLXLXLXLXLXLXLXLXLXLXLXLXLXLXLXLXLXLXLXLXLXLXLXLXLXLXLXLXLX",
"LXLXLXLXLXLXLXLXLXLXLXLXLXLXLXLXLX, _ k 3 LXLXLXLXC h P.I.c.7.6.6.,.d - - 3 LXLXLXLXLXLXLXLXLXLXLXLXLXLXLXLXLXLXLXLXLXLXLXLXLXLX",
"LXLXLXLXLXLXLXLXLXLXLXLXLXLXLXLXLX, G E./ 5 1 * s d l.C.'.$X$X+X XA.0.0.u.&.q - 3 LXLXLXLXLXLXLXLXLXLXLXLXLXLXLXLXLXLXLXLXLXLXLX",
"LXLXLXLXLXLXLXLXLXLXLXLXLXLXLXLXLX, 1 J J.H.c.c.C.C.C.{.mXGXGXGXGXgXA.w.w.q.9.;.9 - V LXLXLXLXLXLXLXLXLXLXLXLXLXLXLXLXLXLXLXLXLX",
"LXLXLXLXLXLXLXLXLXLXLXLXLXLXLXLXLXLX3 ; 2 l.{.fX{.v.v.dXVX6XZXVX6XZX$Xw.w.].sXU.$.$.9 ~ LXLXLXLXLXLXLXLXLXLXLXLXLXLXLXLXLXLXLXLX",
"LXLXLXLXLXLXLXLXLXLXLXLXLXLXLXLXLXLX9XB <.D.gXGXgXv.v.dX6X  wX,X  9XdXB.w.sXGXhX7.$.$.t A LXLXLXLXLXLXLXLXLXLXLXLXLXLXLXLXLXLXLX",
"LXLXLXLXLXLXLXLXLXLXLXLXLXj G X X , A 1.v.{.FXGXFX$Xv.dXCX} eXrX+.VXyXa.yXSXGXHX).@.;.$.y ; LXLXLXLXLXLXLXLXLXLXLXLXLXLXLXLXLXLX",
"LXLXLXLXLXLXLXLXLXLXLXLXLX4 _ ' ' ' b B.b.V.].[.gXFXyX/.hXZXKXJXJXsXM.sXHXhX].).M.e.u.;.*...R LXLXLXLXLXLXLXLXLXLXLXLXLXLXLXLXLX",
"LXLXLXLXLXLXLXLXLXLXLXLXLX& G ( _ ( N.V.V.v.r.r.B.sXFXyX/.hXmX@XAXtXtXFXhXM.0.9.e.u.a.u.;.F.>XS LXLXLXLXLXLXLXLXLXLXLXLXLXLXLXLX",
"LXLXLXLXLXLXLXLXLXLXLXLXLXLX3 f g ,.B.V.V.v.r.B.Z.'.|.hXtXsXFXAXsXhXSXuX].m.a.p.a.u.5.5.;.-...R LXLXLXLXLXLXLXLXLXLXLXLXLXLXLXLX",
"LXLXLXLXLXLXLXLXLXLXLXLXLXLXY X = 6.V.V.d.s.r.Z.dXSXAXdXsX}./.).M.M.).gXSXdXM.p.i.a.u.;.*.*.F.5X, LXLXLXLXLXLXLXLXLXLXLXLXLXLXLX",
"LXLXLXLXLXLXLXLXLXLXLXLXLXLXLX< q i.d.s.s.y.q.'.SXAX].a.m.a.0.0.q.0.a.).FXFX|.u.u.5.:.u.&.$.F.5X< LXLXLXLXLXLXLXLXLXLXLXLXLXLXLX",
"LXLXLXLXLXLXLXLXLXLXLXLXLXLXLX, i f.d.s.s.s.i.u.}.tXa.9.0.a.a.a.q.q.q.m.hXyXM.p.5.&.*.*.*.$.F.5X, LXLXLXLXLXLXLXLXLXLXLXLXLXLXLX",
"LXLXLXLXLXLXLXLXLXLXLXLXLXLXLX, %.d.d.d.u.4.i y y i i %.%.%.%.%.&.&.4.4.4.4.5.a.a.u.>.-.a #.F.5X, LXLXLX@ ! ! X , LXLXLXLXLXLXLX",
"LXLXLXLXLXLXLXLXLXLXLXLXLXLXLX3 %.f.5.4.w e / / f : = = g g e e e e % % % : p &.4.5.u.:.*.t I 5XN LXLXk <.k.k.<.z 3 LXLXLXLXLXLX",
"LXLXLXLXLXLXLXLXLXLXLXLXLXLXLXA 9 u 0 % = j ] ' F 4 o 5 ' / / / G 5 = k Q Q 5 > : : p -.>.$.p C @ 7 q 9.b.n.C.C.B.3.2 | LXLXLXLX",
"LXLXLXLXLXLXLXLXLXLXLXLXO 1 1 3 & j F 5 ; 5 5 4 ; h h 6 ' ' ' / j ; 2.2.x h f x h ; ; > w =.#.8 t 9 m u.&.&.&.a.b.t.6.=.: LXLXLX",
"LXLXLXLXLXLXLXLXLXLXLXLXO F Y.Y.Y.] / D ; * 4 c I.(.h.6 / / G f + h x.x.8.1.1.z.v ; 5 5 ; ; a #.$.y % 9 t #.u.t.t.d.s.%.3 LXLXLX",
"LXLXLXLXLXLXLXLXLXLXLXLXLX3 G J J / / D 4 P.`.oXoX&X@X_ f f f 5 O o + + + + + c P ; F / D V + 8 $.t > i 5.u.i.i.u.%.p V LXLXLXLX",
"LXLXLXLXLXLXLXLXLXLXLXLXLXLXB 6 j G G 5 k %X.X3 A 7 Q.@X`.I.`.`.P.1   C S X . X o f ] ] F V j f 9 9 > O : w w w r V Z LXLXLXLXLX",
"LXLXLXLXLXLXLXLXLXLXLXLXLXLX+.R.E.f ; * `.%XZ ,XCXT o Q.kX-X-X-X-XQ X BXZX,   . . h.J G F ` #X@Xk 8 y w # C , @ 3 O.LXLXLXLXLXLX",
"LXLXLXLXLXLXLXLXLXLXLXLXLXLX{ aX}.2 + 3 %X%XA rXeXO.  Y.lXzXkXkX:XQ . 6X,XX   .   K.k 6 G W.@X*X&Xk t $.r O.LXLXLXLXLXLXLXLXLXLX",
"LXLXLXLXLXLXLXLXLXLXLXLXLX5 Y.*X1.= j G Q.iXD q o o = R.lXzXzXzXkX`   .     . .   c k / G 3.4./.-XT.8 ;.;.h LXLXLXLXLXLXLXLXLXLX",
"LXLXLXLXLXLXLXLXLXLXLXLXLXLXY.aXI.x j j 6 iX8X8.s - z OXlXzXzXzXzX.X3   . . . . W 6 g j k 8.N._.-XT.8 ;.s.3.4 LXLXLXLXLXLXLXLXLX",
"LXLXLXLXLXLXLXLXLXLXLXLXLXLXQ &XpX`.b s { nXmX$X6.c._.;XlXlXzXzXzXzX.X3   . . W %XE.c c z.M.(.=XOXc t ;.q.r.d LXLXLXLXLXLXLXLXLX",
"LXLXLXLXLXLXLXLXLXLXLXLXLXLXLXQ XXpX#XI.pXzXaXdX+X*XlXXXQ.%XxXlX%X{ &XXXQ.R.T.@XzXaX[.(.#XK.@XQ.l 9 #.&.0.t.q LXLXLXLXLXLXLXLXLX",
"LXLXLXLXLXLXLXLXLXLXLXLXLXLXLXLXc R.Q.H.pXlXaXaXcXcXlXvXQ.{ .X.X' R.-XlXlXkX-X=XaXbX#XK.Y.F { ~ % #.#.;.y.t.q LXLXLXLXLXLXLXLXLX",
"LXLXLXLXLXLXLXLXLXLXLXLXLXLXLXLXLX* f F Q.pXbXcXlXlXlXlXlX.X` ` @XkXzXzXlXzXzXlXzX-XT.4 O 1 3 ,X: -.$.:.f.t.q LXLXLXLXLXLXLXLXLX",
"LXLXLXLXLXLXLXLXLXLXLXLXLXLXLXLXLXLXLXLXW Y.*XbXbXbXbXlXlXlXlXlXzXzXzXlXlXlXxXaX#XK.6 LXLXLXLXLX; r =.:.y.t.d LXLXLXLXLXLXLXLXLX",
"LXLXLXLXLXLXLXLXLXLXLXLXLXLXLXLXLXLXLXLXLXW _ R.#X*X*XaXlXlXcXcXlXlXlX-X=X*X#XP.b 5 LXLXLXLXLXLXLX# f =.i.f.s LXLXLXLXLXLXLXLXLX",
"LXLXLXLXLXLXLXLXLXLXLXLXLXLXLXLXLXLXLXLXLXLXLX5 K.c c _ T.E.~.}.}.}.~.H.c c K [ | LXLXLXLXLXLXLXLXLX, : 5.&.f LXLXLXLXLXLXLXLXLX",
"LXLXLXLXLXLXLXLXLXLXLXLXLXLXLXLXLXLXLXLXLXLXLXLX< @ # $ = 0 0 0 0 0 0 O T } R R 6XeXLXLXLXLXLXLXLXLXLX; i q LXLXLXLXLXLXLXLXLXLX",
"LXLXLXLXLXLXLXLXLXLXLXLXLXLXLXLXLXLXLXLXLXX.Y F h g c & h z.z.j.j.j.j.h ,XwX0X..D ,XLXLXLXLXLXLXLXLXLXLXF F LXLXLXLXLXLXLXLXLXLX",
"LXLXLXLXLXLXLXLXLXLXLXLXLXLXLXLXLXLXLXLXX.} qXjX8.d j.h.s T.;X;X;X#X[.7.5.7.G.8.1X>XO.LXLXLXLXLXLXLXLXLXLXLXLXLXLXLXLXLXLXLXLXLX",
"LXLXLXLXLXLXLXLXLXLXLXLXLXLXLXLXLXLXLXLXk 8XHXSX$XT.Q j.2.s Y.*X-X+X`.|. X X|. XAXVXH ~ | LXLXLXLXLXLXLXLXLXLXLXLXLXLXLXLXLXLXLX",
"LXLXLXLXLXLXLXLXLXLXLXLXLXLXLXLXLXLX} [ e.A.hXKXJXJX,Xh j.<.s ' OXyXAXGXGXGXJXJXAX$Xp.3. .X.LXLXLXLXLXLXLXLXLXLXLXLXLXLXLXLXLXLX",
"LXLXLXLXLXLXLXLXLXLXLXLXLXLXLXLXLX} VXFX$Xs.M.~.tXdXE.s n h.k | ..tXsXfXdXsX2XtX{.r.Z.yXVX<X} LXLXLXLXLXLXLXLXLXLXLXLXLXLXLXLXLX",
"LXLXLXLXLXLXLXLXLXLXLXLXLXLXLXLX< E BXHXHXuXp.#.,.w.r.@.d j 7XZXwX8X2.w.r.e.#.&.q.V.fXHXHXNXC LXLXLXLXLXLXLXLXLXLXLXLXLXLXLXLXLX",
"LXLXLXLXLXLXLXLXLXLXLXLXLXLXLXLXLX, } BXHXFX}.y [ hXdXdX] <XDXrX+.CX| XXgXtX[ t 5.yXFXDX9X| } LXLXLXLXLXLXLXLXLXLXLXLXLXLXLXLXLX",
"LXLXLXLXLXLXLXLXLXLXLXLXLXLXLXLXLXK K.O.NXCXNXO.X.HXHXGXVX0X9X! o.NX..^ CXDXX.~ 1XVXCX,XL.j.W LXLXLXLXLXLXLXLXLXLXLXLXLXLXLXLXLX",
"LXLXLXLXLXLXLXLXLXLXLXLXLXLXLXZ ( #X#XI.| 0XMX<XB L.U.U.^.H R } >X^ c s A Y , N 3XMX<XP._.;XE.V LXLXLXLXLXLXLXLXLXLXLXLXLXLXLXLX",
"LXLXLXLXLXLXLXLXLXLXLXLXLXLXZ Y.*XcXzX;XK.B C 3 0 0 0 % 1XVXeXwX9XY d l q 9 t % @ S I /.=XlXaXW.^ 7XLXLXLXLXLXLXLXLXLXLXLXLXLXLX",
"LXLXLXLXLXLXLXLXLXLXLXLXLXLXJ.pXlXcXxX-XK.7 LX- p.m.m.l 9X8XH.J O.4XA 0 q p.i.$.> LX4 P.aXbXlXkXXX[ LXLXLXLXLXLXLXLXLXLXLXLXLXLX",
"LXLXLXLXLXLXLXLXLXLXLXLXLXk OXlXlXlXzX;XI.~ LX- i.p.8.d 9X!.m l | 6XI 8 0 s.t.:.> LXj I.-XlXlXxX-Xh.7 LXLXLXLXLXLXLXLXLXLXLXLXLX",
"LXLXLXLXLXLXLXLXLXLXLXLXLXk /.#XlXlX[.(.`.3 LX= $.;.,.q 9XVX7X7XwX6Xx 9 0 r.t.:.> LX2 oX_._.kXaX[.<., LXLXLXLXLXLXLXLXLXLXLXLXLX",
"LXLXLXLXLXLXLXLXLXLXLXLXLXZ c I._.[.(.(.W.7 LXo = = - + } 3X3X3X<XT & = 0 r.t.:.% C 5 W.`.I._._.z.4 LXLXLXLXLXLXLXLXLXLXLXLXLXLX",
"LXLXLXLXLXLXLXLXLXLXLXLXLXLX3 * 2.I.c 2 f LXLX@ C Z Z Z C C C C C B B , 0 r.t.g.8 R R j g s z.j.4 LXLXLXLXLXLXLXLXLXLXLXLXLXLXLX",
"LXLXLXLXLXLXLXLXLXLXLXLXLXLXLXLXLXF LXLXLXLXLX, ! ! ! ! A A Z Z Z Z A B - s.V.i.t | 4XX.LXLXA Z LXLXLXLXLXLXLXLXLXLXLXLXLXLXLXLX",
"LXLXLXLXLXLXLXLXLXLXLXLXLXLXLXLXLXLXLXLXLXLX@ Z ! ! ! ! C @ X @ < < B B % 5.V.u.#...BXNX>XE R LXLXLXLXLXLXLXLXLXLXLXLXLXLXLXLXLX",
"LXLXLXLXLXLXLXLXLXLXLXLXLXLXLXLXLXLXLXLXLXLXX 3 A Z Z C , X LXLXLX< < N O z 5.0 w D <XNXCXBXwX>XN LXLXLXLXLXLXLXLXLXLXLXLXLXLXLX",
"LXLXLXLXLXLXLXLXLXLXLXLXLXLXLXLXLXLXLXLXLXO 2 2 & O O O O O LXLXLXLXY 5 & 0 u + 0 - N S R R T S R LXLXLXLXLXLXLXLXLXLXLXLXLXLXLX",
"LXLXLXLXLXLXLXLXLXLXLXLXLXLXLXLXLXLXLXLXLX2 S.S.1.<.z l p 5 LXLXLXLXf j.j.0 0 - p p o.R LXLXLXLXLXLXLXLXLXLXLXLXLXLXLXLXLXLXLXLX",
"LXLXLXLXLXLXLXLXLXLXLXLXLXLXLXLXLXLXLXLXZ 2 S.S.N.c.l.z l H LXLXLXLXL c.S.1.<.l.3.x >XS LXLXLXLXLXLXLXLXLXLXLXLXLXLXLXLXLXLXLXLX",
"LXLXLXLXLXLXLXLXLXLXLXLXLXLXLXLXLXLXLXLXo.W c l l d l z x U LXLXLXLXg k.c.h.n n s - R } LXLXLXLXLXLXLXLXLXLXLXLXLXLXLXLXLXLXLXLX",
"LXLXLXLXLXLXLXLXLXLXLXLXLXLXLXLXLXLXLXLXLXLX# - - = = - - V LXLXLXLXLXf s * = - - + } 9XLXLXLXLXLXLXLXLXLXLXLXLXLXLXLXLXLXLXLXLX",
"LXLXLXLXLXLXLXLXLXLXLXLXLXLXLXLXLXLXLXLXB 6 P.x.z l q + $ LXLXLXLXLXLXLX+ 0 l z z.b F A ,XLXLXLXLXLXLXLXLXLXLXLXLXLXLXLXLXLXLXLX",
"LXLXLXLXLXLXLXLXLXLXLXLXLXLXLXLXLXLXLX7 h j.x.z.<.l d = O LXLXLXLXLXLXLX& d z k.c.l.x f C LXLXLXLXLXLX_ L.L.LXLXLXLXLXLXLXLXLXLX",
"LXLXLXLXLXLX] 7X[ !.K v v v v v v K ( 4 * 2 2 2 1 * & & h ) L L L L L K 1 * 1 4 4 2 1 & & J K v v v v K ) L L ) K P P LXLXLXLXLX",
"LXLXLXLXLXLXLXL.LX_ ( ( ( K K ( ( ( ) ) K K K K ( ( ) ) ) _ _ ) ) ) ) _ ) ) ) ) L L ) ) ) L L ) ( K ( ( ( ) ) ) ) _ LXLXLXLXLXLX",
"LXLXLXLXLXLXLXLXLXLXLXLXLXLXLXLXLXLXLXLXLXLXLXLXLXLXLXLXLXLXLXLXLXLXLXLXLXLXLXLXLXLXLXLXLXLXLXLXLXLXLXLXLXLXLXLXLXLXLXLXLXLXLXLX",
"LXLXLXLXLXLXLXLXLXLXLXLXLXLXLXLXLXLXLXLXLXLXLXLXLXLXLXLXLXLXLXLXLXLXLXLXLXLXLXLXLXLXLXLXLXLXLXLXLXLXLXLXLXLXLXLXLXLXLXLXLXLXLXLX"
};
