/* XPM */
static const char *tesoro1[] = {
/* columns rows colors chars-per-pixel */
"64 64 233 2 ",
"   c #28161F",
".  c #36121E",
"X  c #311A1E",
"o  c #290E1D",
"O  c #1F1323",
"+  c #231422",
"@  c #2C1522",
"#  c #2F1821",
"$  c #331423",
"%  c #3C1922",
"&  c #362B34",
"*  c #362630",
"=  c #491C1D",
"-  c #59261B",
";  c #502E1E",
":  c #652C19",
">  c #68291B",
",  c #752B18",
"<  c #743315",
"1  c #763215",
"2  c #653616",
"3  c #431A23",
"4  c #4B1B24",
"5  c #411522",
"6  c #541A25",
"7  c #5C1B25",
"8  c #561928",
"9  c #5A1B28",
"0  c #551623",
"q  c #641D23",
"w  c #681F23",
"e  c #452327",
"r  c #5A2322",
"t  c #572425",
"y  c #4C3337",
"u  c #652224",
"i  c #6A2223",
"p  c #6C2B24",
"a  c #662A2C",
"s  c #732324",
"d  c #742A24",
"f  c #7B2A22",
"g  c #722B29",
"h  c #7A2524",
"j  c #683725",
"k  c #694617",
"l  c #774A18",
"z  c #765516",
"x  c #745618",
"c  c #6F4539",
"v  c #3E3444",
"b  c #463B48",
"n  c #39455F",
"m  c #3E506B",
"M  c #77544A",
"N  c #44556E",
"B  c #78757B",
"V  c #60606C",
"C  c #5B6979",
"Z  c #8A310F",
"A  c #993B0E",
"S  c #8D2F1F",
"D  c #992F1C",
"F  c #893318",
"G  c #94311E",
"H  c #9B3718",
"J  c #AC3D0C",
"K  c #A53E0A",
"L  c #A33614",
"P  c #A93B12",
"I  c #A53D1C",
"U  c #A83E1D",
"Y  c #A43714",
"T  c #B23C0B",
"R  c #832822",
"E  c #8D2E21",
"W  c #832825",
"Q  c #8E3121",
"!  c #813122",
"~  c #923321",
"^  c #9A3D24",
"/  c #973A23",
"(  c #9D480D",
")  c #935815",
"_  c #8C4C16",
"`  c #AC430A",
"'  c #BB4606",
"]  c #BA4B03",
"[  c #B4440C",
"{  c #B5490E",
"}  c #B6480A",
"|  c #BB570D",
" . c #B8570C",
".. c #AB411D",
"X. c #AC4816",
"o. c #B04513",
"O. c #B64A18",
"+. c #A85A17",
"@. c #B95615",
"#. c #8E6412",
"$. c #9A7512",
"%. c #BD671A",
"&. c #BB7916",
"*. c #AA7312",
"=. c #94462F",
"-. c #AE4522",
";. c #AA4A26",
":. c #B14522",
">. c #B84D20",
",. c #AD5324",
"<. c #B55723",
"1. c #A94E38",
"2. c #B36C2C",
"3. c #C2640E",
"4. c #C66B0D",
"5. c #CE7A0C",
"6. c #C2790A",
"7. c #D97F09",
"8. c #C46715",
"9. c #C77313",
"0. c #C16829",
"q. c #CA7929",
"w. c #C97E37",
"e. c #C46831",
"r. c #C0510C",
"t. c #A25D4D",
"y. c #AE6947",
"u. c #85756D",
"i. c #8C5F4D",
"p. c #C17446",
"a. c #BD9717",
"s. c #BC982C",
"d. c #DA8B0A",
"f. c #DA8709",
"g. c #CC8C13",
"h. c #D58914",
"j. c #CF9611",
"k. c #E2980B",
"l. c #E49D16",
"z. c #E89012",
"x. c #DEA21D",
"c. c #DFA701",
"v. c #EBAB0A",
"b. c #F2B206",
"n. c #F5BE09",
"m. c #F2AD10",
"M. c #F3B717",
"N. c #EEB00D",
"B. c #D18725",
"V. c #D1992E",
"C. c #D69637",
"Z. c #C88C32",
"A. c #DFB726",
"S. c #ECBB26",
"D. c #EBB436",
"F. c #F4BC31",
"G. c #E9AA29",
"H. c #FDCB17",
"J. c #F6C326",
"K. c #F5C939",
"L. c #F9D238",
"P. c #EBCB3E",
"I. c #B3964C",
"U. c #BAA344",
"Y. c #87817E",
"T. c #A1806B",
"R. c #978C5C",
"E. c #D2904B",
"W. c #D6AD51",
"Q. c #E0B545",
"!. c #C99574",
"~. c #D7AE6D",
"^. c #E1BE78",
"/. c #F8DA4A",
"(. c #F1CD4C",
"). c #FAE048",
"_. c #DEC377",
"`. c #F0D764",
"'. c #ECCF77",
"]. c #F8E477",
"[. c #FFE362",
"{. c #526B83",
"}. c #617487",
"|. c #69849A",
" X c #728695",
".X c #7892A1",
"XX c #878281",
"oX c #988A87",
"OX c #A39B82",
"+X c #BAAC85",
"@X c #859BAA",
"#X c #8AA3B3",
"$X c #96AFB6",
"%X c #A1B1B7",
"&X c #D39680",
"*X c #C7B18B",
"=X c #E4BE8F",
"-X c #C5B1B2",
";X c #B6C7BB",
":X c #CEC399",
">X c #ECCE86",
",X c #ECD384",
"<X c #EEDC96",
"1X c #F9E487",
"2X c #F3E78F",
"3X c #DDC4AC",
"4X c #EADBA8",
"5X c #EBDCB7",
"6X c #FAF5B9",
"7X c #F2E9AB",
"8X c #A6BAC2",
"9X c #B4C6C3",
"0X c #C7D9D3",
"qX c #C7DBCF",
"wX c #EFDDCB",
"eX c #D1E8D6",
"rX c #DAF2DA",
"tX c #FAF5C7",
"yX c #ECECDA",
"uX c #E4E5D8",
"iX c #F5F2DA",
"pX c #EFE6D1",
"aX c #DFF0E1",
"sX c #EEE9E7",
"dX c #E9F8E4",
"fX c #F5F5E2",
"gX c #F9FAE5",
"hX c #F3F3EE",
"jX c #FBFBEB",
"kX c #FCFCF4",
"lX c #FDFDFC",
"zX c #F5F6F4",
"xX c None",
/* pixels */
"xXxXxXxXxXxXxXxXxXxXxXxXxXxXxXxXxXxXxXxXxXxXxXxXxXxXxXxXxXxXxXxXxXxXxXxXxXxXxXxXxXxXxXxXxXxXxXxXxXxXxXxXxXxXxXxXxXxXxXxXxXxXxXxX",
"xXxXxXxXxXxXxXxXxXxXxXxXxXxXxXxXxXxXxXxXxXxXxXxXxXxXxXxXxXxXxXxXxXxXxXxXxXxXxXxXxXxXxXxXxXxXxXxXxXxXxXxXxXxXxXxXxXxXxXxXxXxXxXxX",
"xXxXxXxXxXxXxXxXxXxXxXxXxXxXxXxXxXxXxXxXxXxXxXxXxXxXxXxXxXxXxXxXxXxXxXxXxXxXxXxXxXxXxXxXxXxXxXxXxXxXxXxXxXxXxXxXxXxXxXxXxXxXxXxX",
"xXxXxXxXxXxXxXxXxXxXxXxXxXxXxXxXxXxXxXxXxXxXxXxXxXxXxXxXxXxXxXxXxXxXxXxXxXxXxXxXxXxXxXxXxXxXxXxXxXxXxXxXxXxXxXxXxXxXxXxXxXxXxXxX",
"xXxXxXxXxXxXxXxXxXxXxXxXxXxXxXxXxXxXxXxXxXxXxXxXxXxXxXxXxXxXxXxXxXxXxXxXxXxXxXxXxXxXxXxXxXxXxXxXxXxXxXxXxXxXxXxXxXxXxXxXxXxXxXxX",
"xXxXxXxXxXxXxXxXxXxXxXxXxXxXxXxXxXxXxXxXxXxXxXxXxXxXxXxXxXxXxXxXxXxXxXxXxXxXxXxXxXxXxXxXxXxXxXxXxXxXxXxXxXxXxXxXxXxXxXxXxXxXxXxX",
"xXxXxXxXxXxXxXxXxXxXxXxXxXxXxXxXxXxXxXxXxXxXxXxXxXxXxXxXxXxXxXxXxXxXxXxXxXxXxXxXxXxXxXxXxXxXxXxXxXxXxXxXxXxXxXxXxXxXxXxXxXxXxXxX",
"xXxXxXxXxXxXxXxXxXxXxXxXxXxXxXxXxXxXxXxXxXxXxXxXxXxXxXxXxXxXxXxXxXxXxXxXxXxXxXxXxXxXxXxXxXxXxXxXxXxXxXxXxXxXxXxXxXxXxXxXxXxXxXxX",
"xXxXxXxXxXxXxXxXxXxXxXxXxXxXxXxXxXxXxXxXxXxXxXxXxXxXxXxXxXxXxXxXxXxXxXxXxXxXxXxXxXxXxXxXxXxXxXxXxXxXxXxXxXxXxXxXxXxXxXxXxXxXxXxX",
"xXxXxXxXxXxXxXxXxXxXxXxXxXxXxXxXxXxXxXxXxXxXxXxXxXxXxXxXxXxXxXxXxXxXxXxXxXxXxXxXxXxXxXxXxXxXxXxXxXxXxXxXxXxXxXxXxXxXxXxXxXxXxXxX",
"xXxXxXxXxXxXxXxXxXxXxXxXxXxXxXxXxXxXxXxXxXxXxXxXxXxXxXxXxXxXxXxXxXxXxXxXxXxXxXxXxXxXxXxXxXxXxXxXxXxXxXxXxXxXxXxXxXxXxXxXxXxXxXxX",
"xXxXxXxXxXxXxXxXxXxXxXxXxXxXxXxXxXxXxXxXxXxXxXxXxXxXxXxXxXxXxXxXxXxXxXxXxXxXxXxXxXxXxXxXxXxXxXxXxXxXxXxXxXxXxXxXxXxXxXxXxXxXxXxX",
"xXxXxXxXxXxXxXxXxXxXxXxXxXxXxXxXxXxXxXxXxXxXxXxXxXxXxXxXxXxXxXxXxXxXxXxXxXxXxXxXxXxXxXxXxXxXxXxXxXxXxXxXxXxXxXxXxXxXxXxXxXxXxXxX",
"xXxXxXxXxXxXxXxXxXxXxXxXxXxXxXxXxXxXxXxXxXxXxXxXxXxXxXxXxXxXxXxXxXxXxXxXxXxXxXxXxXxXxXxXxXxXxXxXxXxXxXxXxXxXxXxXxXxXxXxXxXxXxXxX",
"xXxXxXxXxXxXxXxXxXxXxXxXxXxXxXxXxXxXxXxXxXuXxXxXxXxXxXxXxXxXxXxXxXxXxXxXxXxXxXxXxXxXxXxXxXxXxXxXxXxXxXxXxXxXxXxXxXxXxXxXxXxXxXxX",
"xXxXxXxXxXxXxXxXxXxXxXxXxXxXxXxXxXxXxXxXyXfXyXxXxXxXxXxXxXxXxXxXxXxXxXxXxXxXxXxXxXxXxXxXxXxXxXxXxXxXxXxXxXxXxXxXxXxXxXxXxXxXxXxX",
"xXxXxXxXxXxXxXxXxXxXxXxXxXxXxXxXxXxXxXxXfXjXiXxXxXxXxXxXxXhXhXhXhXhXsXxXxXxXxXxXxXxXxXxXxXxXxXuXxXxXxXxXxXxXxXxXxXxXxXxXxXxXxXxX",
"xXxXxXxXxXxXxXxXxXxXxXxXxXxXxXfXyXxXxXxXxXfXxXxXxXxXxXxXzXzXhXkXkXhX0X@XxXxXxXxXxXxXxXxXxXxXyXfXxXxXxXxXxXxXxXxXxXxXxXxXxXxXxXxX",
"xXxXxXxXxXxXxXxXxXxXxXxXxXxXxXgXgXxXxXxXxXxXxXxXxXxXxXzXlXzXaXgXgXuX8X.X|.xXxXxXxXxXxXxXxXxXyXgXyXxXxXxXxXxXxXxXxXxXxXxXxXxXxXxX",
"xXxXxXxXxXxXxXxXxXxXxXxXxXxXxXxXxXxXxXxXxXxXxXxXxXxXzXlXlXkXjXjXdXrXeX@X@X%XxXxXxXxXxXxXxXxXxXxXxXxXxXxXxXxXxXxXxXxXxXxXxXxXxXxX",
"xXxXxXxXxXxXxXxXxXxXxXxXxXxXxXxXxXxXxXxXlXwX0.xXxXxXjXdXdXdXjXdXrXqX$X8X$X}.* 7 w q M sXgXxXxXxXxXxXxXxXxXxXxXxXxXxXxXxXxXxXxXxX",
"xXxXxXxXxXxXxXxXxXxXxXxXxXxXxXxXxXxXxXlXpX!...<.xXt.u.9XeXeX0X9X$X.X}. XC v t ~ ^ t.-XzX=Xq.xXxXxXxXxXxXxXxXxXxXxXxXxXxXxXxXxXxX",
"xXxXxXxXxXxXxXxXxXxXxXxXxXxXxXxXxXxXzXkX&XF ~ ....H t B ;XqX8X#X|.{.m n v t ~ :.:.&XlXiXe.A K ' xXxXxXxXxXxXxXxXxXxXxXxXxXxXxXxX",
"xXxXxXxXxXxXxXxXxXxXxXxXxXxXxXxXxXxXkX].&.7 d f f f s % oXqX8X#X|.{.m * 4 s f d i.sXtXK.+.= : ' xXxXxXxXxXxXxXxXxXxXxXxXxXxXxXxX",
"xXxXxXxXxXxXxXxXxXxXxXxXxXxXxXxXxXhXtXI.) / ^ ^ ^ ^ ^ / c B 8X#X|.N & t Q ^ ^ / y.iX5X&.; + : ' xXxXxXxXxXxXxXxXxXxXxXxXxXxXxXxX",
"xXxXxXxXxXxXxXxXxXxXxXxXxXxXxXxXxXjX2XM , .............., y B @X}.b t ~ U ......!.iX3Xd @ + : ' xXxXxXxXxXxXxXxXxXxXxXxXxXxXxXxX",
"xXxXxXxXxXxXxXxXxXxXxXxXxXxXxXxXxX6XL.k 7 R R R R R R R R i e V b = h R R R R u *X1XV.u @ + : ' xXxXxXxXxXxXxXxXxXxXxXxXxXxXxXxX",
"xXxXxXxXxXxXxXxXxXxXxXxXxXxXxXxXxX].M.k r G G G G G G ~ ~ Q f > p f ~ G ~ ~ ~ p ~.(.5.u @ + : ' xXxXxXxXxXxXxXxXxXxXxXxXxXxXxXxX",
"xXxXxXxXxXxXxXxXxXxXxXxXxXxXxXxXxX/.m.k > ..U U U U U U U U U U U U U U U U U ! W.F.3.u @ + : ' xXxXxXxXxXxXxXxXxXxXxXxXxXxXxXxX",
"xXxXxXxXxXxXxXxXxXxXxXxXxXxXxXxXxX/.m.k 3 i i w w w w w i i i i i i i i u u u 4 U.F.3.u @ % A ' xXxXxXxXxXxXxXxXxXxXxXxXxXxXxXxX",
"xXxXxXxXxXxXxXxXxXxXxXxXxXhXxXxXxX/.m.k 5 q 7 7 7 7 7 7 T.:X*X,., 9 7 7 7 9 9 % U.F.3.u - K J H xXxXxXxXxXxXxXxXxXxXxXxXxXxXxXxX",
"xXxXxXxXxXxXxXxXxXxXxXxXiXgXfXxXxX/.m.k o . . . . . e oX_.[./.k.6.l . $ . . $ @ U.K.4.H [ L R E xXxXjXuXxXxXxXxXxXxXxXxXxXxXxXxX",
"xXxXxXxXxXxXxXxXxXxXxXxXxXjXxXxXxX).m.R.XXY.Y.Y.u.M j 4X/.c.g.K.H.*.t M u.XXXXXXW.M.7.[ G W Y [ xXxXjXfXuXxXxXxXxXxXxXxXxXxXxXxX",
"xXxXxXxXxXxXxXxXxXxXxXxXxXxXxXxXxXV.8.W.>X>X>X>XE.O.e.(.J.#.& :XK.5.D 1.^.,X,X,XC.4.@.E E ` ' xXxXxXxXuXxXxXxXxXxXxXxXxXxXxXxXxX",
"xXxXxXxXxXxXxXxXxXxXxXxXxXxXxXxXxXO.o. .| | | | } p.wXK._ X @ & a.d.Y D @.| | | O.o.^ H [ A < xXxXxXxXxXxXxXxXxXxXxXxXxXxXxXxXxX",
"xXxXxXxXxXxXxXxXxXxXxXxXxXxXxXxXxX`.M.b.b.b.b.b.f.>.E.K.j.k * R.A.d.P ..v.b.b.b.b.b.k.[ 1 # : ' xXxXxXxXxXxXxXxXxXxXxXxXxXxXxXxX",
"xXxXxXxXxXxXxXxXxXxXxXxXxXxXxXxXxXxX9.) z z z z k , | K.H.$.y ,XL.f.A r x z x z +.%.+.- + O : ' xXxXxXxXxXxXxXxXxXxXxXxXxXxXxXxX",
"xXxXxXxXxXxXxXxXxXxXxXxXxXxXxXxXxXxX%.- + $ $ $ $ 3 < &.v.Q.*X(.B._ - $ $ $ $ @ =.<.F + + + : ' xXxXxXxXxXxXxXxXxXxXxXxXxXxXxXxX",
"xXxXxXxXxXxXxXxXxXxXxXxXxXxXxXxXxX6XS.k % 9 6 6 6 4 % >  .C.~.h._ 4 $ 6 9 8 8 % U.D.( @ + + : ' xXxXxXxXxXxXxXxXxXxXxXxXxXxXxXxX",
"xXxXxXxXxXxXxXxXxXxXxXxXxXxXxXxXxX6XJ.k 4 d g g g g p t , Z Z Z = 3 g g g g g e U.D.(   + + : [ xXxXxXxXxXxXxXxXxXxXxXxXxXxXxXxX",
"xXxXxXxXxXxXxXxXxXxXxXxXxXxXxXxXtX6XJ.k p :.-.-.-.-.-.-.r @ @ @ % p -.:.-.-.-.p U.D.(   + O - 3.n.xXxXxXxXxXxXxXxXxXxXxXxXxXxXxX",
"xXxXxXxXxXxXxXxXxXxXxXxXxXxXxX^.~.].l.2 r E S S S S Q Q d u u u i h Q Q Q Q E t s.G.(   + - F X.5.N.xXxXxXxXxXxXxXxXxXxXxXxXxXxX",
"xXxXxXxXxXxXxXxXxXxXxXxXxX<X>X0.%.K.f.2 6 s s s s s s s s s h h s s s s s s s 6 s.l.A X , P Y D P d.k.g.xXxXxXxXxXxXxXxXxXxXxXxX",
"xXxXxXxXxXxXxXxXxXxXxXxXxXf.| I 2.L.d._ 7 0 7 u u 7 9 9 9 9 9 9 9 9 9 9 9 8 8 a V.l.` Z T H I o.I P H G xXxXxXxXxXxXxXxXxXxXxXxX",
"xXxXxXxXxXxXxXxXxXxXxXxXe ; F E.`.H.b.7.2.u.a &.*.4 $ $ $ $ $ $ $ $ $ $ @ y u.W./.G.O.w.O.5.v.v.k.: 3 e xXxXxXxXxXxXxXxXxXxXxXxX",
"xXxXxXxXxXxXxXxXxXxXxXxXxXOXE.C.C.4.4.f.S.`.+X(.g.F #.l < < < < < < 1 1 i.+X].L.V.Z.Q.(.<.@.5.5.&.*.$.$.xXxXxXxXxXxXxXxXxXxXxXxX",
"xXxXxXxXxXxXxXxXxXxXxXxXxX1XQ.3.X.y.y.q.d.x.1X(.9.X.d.3.{ { { { { { { [ W.].M.f.4.Z.Q.h.%.@.@.Y I d.k.g.xXxXxXxXxXxXxXxXxXxXxXxX",
"xXxXxXxXxXxXxXxXxXxXxXxXxXk.| L 1.<X<Xp.;.,.l.4.P / =.^ E W W W W f W =.q.l.f.X.h.h.;.,.x.N.f.P J [ Y S xXxXxXxXxXxXxXxXxXxXxXxX",
"xXxXxXxXxXxXxXxXxXxXxXxXxXxXxX .4.<.@.~.7X_.,.[ ' w.<XS.+.W xXxXxXxXxX5X6X^.;.k.3.w.(.P.%.{ o.L xXxXxXxXxXxXxXxXxXxXxXxXxXxXxXxX",
"xXxXxXxXxXxXxXxXxXxXxXxXxXxXxXxXxXxXxXZ.E.B.H xX` 8.E.9.X.xXxXxXxXxXxXE.E.q.^ xXxX%.B.h.o.H xXxXxXxXxXxXxXxXxXxXxXxXxXxXxXxXxXxX",
"xXxXxXxXxXxXxXxXxXxXxXxXxXxXxXxXxXxXxXxX] ] xXxXxX` J J xXxXxXxXxXxXxX] ] ` G xXxXxX` ` H xXxXxXxXxXxXxXxXxXxXxXxXxXxXxXxXxXxXxX",
"xXxXxXxXxXxXxXxXxXxXxXxXxXxXxXxXxXxXxXxXxXxXxXxXxXxXxXxXxXxXxXxXxXxXxXxXxXxXxXxXxXxXxXxXxXxXxXxXxXxXxXxXxXxXxXxXxXxXxXxXxXxXxXxX",
"xXxXxXxXxXxXxXxXxXxXxXxXxXxXxXxXxXxXxXxXxXxXxXxXxXxXxXxXxXxXxXxXxXxXxXxXxXxXxXxXxXxXxXxXxXxXxXxXxXxXxXxXxXxXxXxXxXxXxXxXxXxXxXxX",
"xXxXxXxXxXxXxXxXxXxXxXxXxXxXxXxXxXxXxXxXxXxXxXxXxXxXxXxXxXxXxXxXxXxXxXxXxXxXxXxXxXxXxXxXxXxXxXxXxXxXxXxXxXxXxXxXxXxXxXxXxXxXxXxX",
"xXxXxXxXxXxXxXxXxXxXxXxXxXxXxXxXxXxXxXxXxXxXxXxXxXxXxXxXxXxXxXxXxXxXxXxXxXxXxXxXxXxXxXxXxXxXxXxXxXxXxXxXxXxXxXxXxXxXxXxXxXxXxXxX",
"xXxXxXxXxXxXxXxXxXxXxXxXxXxXxXxXxXxXxXxXxXxXxXxXxXxXxXxXxXxXxXxXxXxXxXxXxXxXxXxXxXxXxXxXxXxXxXxXxXxXxXxXxXxXxXxXxXxXxXxXxXxXxXxX",
"xXxXxXxXxXxXxXxXxXxXxXxXxXxXxXxXxXxXxXxXxXxXxXxXxXxXxXxXxXxXxXxXxXxXxXxXxXxXxXxXxXxXxXxXxXxXxXxXxXxXxXxXxXxXxXxXxXxXxXxXxXxXxXxX",
"xXxXxXxXxXxXxXxXxXxXxXxXxXxXxXxXxXxXxXxXxXxXxXxXxXxXxXxXxXxXxXxXxXxXxXxXxXxXxXxXxXxXxXxXxXxXxXxXxXxXxXxXxXxXxXxXxXxXxXxXxXxXxXxX",
"xXxXxXxXxXxXxXxXxXxXxXxXxXxXxXxXxXxXxXxXxXxXxXxXxXxXxXxXxXxXxXxXxXxXxXxXxXxXxXxXxXxXxXxXxXxXxXxXxXxXxXxXxXxXxXxXxXxXxXxXxXxXxXxX",
"xXxXxXxXxXxXxXxXxXxXxXxXxXxXxXxXxXxXxXxXxXxXxXxXxXxXxXxXxXxXxXxXxXxXxXxXxXxXxXxXxXxXxXxXxXxXxXxXxXxXxXxXxXxXxXxXxXxXxXxXxXxXxXxX",
"xXxXxXxXxXxXxXxXxXxXxXxXxXxXxXxXxXxXxXxXxXxXxXxXxXxXxXxXxXxXxXxXxXxXxXxXxXxXxXxXxXxXxXxXxXxXxXxXxXxXxXxXxXxXxXxXxXxXxXxXxXxXxXxX",
"xXxXxXxXxXxXxXxXxXxXxXxXxXxXxXxXxXxXxXxXxXxXxXxXxXxXxXxXxXxXxXxXxXxXxXxXxXxXxXxXxXxXxXxXxXxXxXxXxXxXxXxXxXxXxXxXxXxXxXxXxXxXxXxX",
"xXxXxXxXxXxXxXxXxXxXxXxXxXxXxXxXxXxXxXxXxXxXxXxXxXxXxXxXxXxXxXxXxXxXxXxXxXxXxXxXxXxXxXxXxXxXxXxXxXxXxXxXxXxXxXxXxXxXxXxXxXxXxXxX",
"xXxXxXxXxXxXxXxXxXxXxXxXxXxXxXxXxXxXxXxXxXxXxXxXxXxXxXxXxXxXxXxXxXxXxXxXxXxXxXxXxXxXxXxXxXxXxXxXxXxXxXxXxXxXxXxXxXxXxXxXxXxXxXxX"
};
