/* XPM */
static const char *coleccionable[] = {
/* columns rows colors chars-per-pixel */
"64 64 235 2 ",
"   c #020101",
".  c #090705",
"X  c #0B0908",
"o  c #140D07",
"O  c #1E1901",
"+  c #191508",
"@  c #191611",
"#  c #1B1916",
"$  c #2C1D0E",
"%  c #231C14",
"&  c #2F2700",
"*  c #352C01",
"=  c #362716",
"-  c #3D3426",
";  c #453A05",
":  c #422E18",
">  c #4C3218",
",  c #493419",
"<  c #51361A",
"1  c #553A1C",
"2  c #5C3E1E",
"3  c #483925",
"4  c #513D25",
"5  c #403C34",
"6  c #5A4B0C",
"7  c #645402",
"8  c #61401F",
"9  c #7A6501",
"0  c #54422B",
"q  c #5C4528",
"w  c #594C34",
"e  c #5C523F",
"r  c #654624",
"t  c #6D4B25",
"y  c #744D26",
"u  c #695429",
"i  c #79542A",
"p  c #614D30",
"a  c #685436",
"s  c #745936",
"d  c #79643B",
"f  c #7D7133",
"g  c #4A4848",
"h  c #5C564B",
"j  c #635B4B",
"k  c #75674E",
"l  c #666666",
"z  c #6C6C6C",
"x  c #767777",
"c  c #897302",
"v  c #967D00",
"b  c #987F00",
"n  c #86592B",
"m  c #865B2C",
"M  c #855E30",
"N  c #93612E",
"B  c #886335",
"V  c #966834",
"C  c #9E6D35",
"Z  c #986E3A",
"A  c #877935",
"S  c #A26D34",
"D  c #A86F35",
"F  c #AC7236",
"G  c #A8763C",
"H  c #B37638",
"J  c #B47B3C",
"K  c #BC7D3B",
"L  c #C07F3C",
"P  c #8C744E",
"I  c #977548",
"U  c #A97D44",
"Y  c #B17F41",
"T  c #867D69",
"R  c #9C8200",
"E  c #A18601",
"W  c #A48904",
"Q  c #A98D00",
"!  c #AE9101",
"~  c #B59601",
"^  c #B69802",
"/  c #BC9D02",
"(  c #B49B1E",
")  c #BFA006",
"_  c #BDA111",
"`  c #BBA222",
"'  c #C09F01",
"]  c #C4A402",
"[  c #C8A704",
"{  c #CDAA01",
"}  c #D1AD01",
"|  c #D6B101",
" . c #D8B302",
".. c #DDB901",
"X. c #DCB80C",
"o. c #C8AA19",
"O. c #E2BC01",
"+. c #E1BF1B",
"@. c #C4813D",
"#. c #CB853F",
"$. c #CB893F",
"%. c #C5AB28",
"&. c #C9AE29",
"*. c #D2B62B",
"=. c #CDB432",
"-. c #D0B738",
";. c #D3BA3A",
":. c #EAC302",
">. c #F3CB02",
",. c #FFD602",
"<. c #FFD802",
"1. c #FCD50D",
"2. c #F5D21C",
"3. c #DDC02D",
"4. c #E6C628",
"5. c #FDDA28",
"6. c #E7C931",
"7. c #EACB32",
"8. c #EFD032",
"9. c #FEDC30",
"0. c #9F8656",
"q. c #AE8247",
"w. c #B78546",
"e. c #AA8956",
"r. c #B79054",
"t. c #B6945B",
"y. c #B5A349",
"u. c #948B75",
"i. c #AF956C",
"p. c #BBA775",
"a. c #CC8640",
"s. c #C58A45",
"d. c #CC8A43",
"f. c #CE8C47",
"g. c #CA914B",
"h. c #CD924B",
"j. c #D2954B",
"k. c #D4964A",
"l. c #D4994D",
"z. c #CA9656",
"x. c #D19654",
"c. c #D59C52",
"v. c #D89E53",
"b. c #D39C5A",
"n. c #DAA255",
"m. c #D5A15C",
"M. c #DCA65A",
"N. c #DEA95C",
"B. c #E1AC5D",
"V. c #E3B05F",
"C. c #C69B63",
"Z. c #D29F60",
"A. c #D5A364",
"S. c #DDAB63",
"D. c #D6A66A",
"F. c #D8A76C",
"G. c #D4AB6B",
"H. c #DAAA6C",
"J. c #CBAA79",
"K. c #D7AD76",
"L. c #DBB47A",
"P. c #E1AD61",
"I. c #E0AF69",
"U. c #E4B363",
"Y. c #E5B76B",
"T. c #E9BC6C",
"R. c #E4B975",
"E. c #E3BB7B",
"W. c #DAC141",
"Q. c #E3CA4C",
"!. c #F3D749",
"~. c #F6DB55",
"^. c #FEE047",
"/. c #FEE154",
"(. c #FDE25E",
"). c #EBC16E",
"_. c #EDC473",
"`. c #EBC47A",
"'. c #EFC97A",
"]. c #F0C674",
"[. c #F1C876",
"{. c #F2CD7C",
"}. c #FEE362",
"|. c #FEE767",
" X c #FDE673",
".X c #B6AB8C",
"XX c #A4A296",
"oX c #CDB485",
"OX c #DBB886",
"+X c #E6BE83",
"@X c #E3BD8A",
"#X c #C3BFAA",
"$X c #DCC291",
"%X c #E9C286",
"&X c #E8C486",
"*X c #EAC38A",
"=X c #ECCA8D",
"-X c #F1CE83",
";X c #F3D183",
":X c #F4D48A",
">X c #F9DA8E",
",X c #ECCC92",
"<X c #E7C898",
"1X c #EED297",
"2X c #F5D996",
"3X c #FDE988",
"4X c #FBE29C",
"5X c #FDEC99",
"6X c #D9C9A5",
"7X c #E8CCA3",
"8X c #ECD2AA",
"9X c #F2DBA6",
"0X c #EDDAB7",
"qX c #F2DBB4",
"wX c #F4DDBB",
"eX c #FBE6A8",
"rX c #F5E9AF",
"tX c #F5E3B5",
"yX c #F9E7B6",
"uX c #FBECBC",
"iX c #FDF0B5",
"pX c #FCF1B8",
"aX c #E7DDCA",
"sX c #F5E4C4",
"dX c #F9E5C5",
"fX c #FAEDC3",
"gX c #F6E8C8",
"hX c #FBEACC",
"jX c #FDF1C5",
"kX c #FDF3CB",
"lX c #F6EED3",
"zX c #FBF4D5",
"xX c #F4F3E8",
"cX c #F7F7FA",
"vX c #FDFDFF",
/* pixels */
";X;X{.{.{.;X-X-X;X2X2XeXeXyXuXfXkXkXkXkXkXkXkXjXjXjXjXjXjXuXyX2X&XT.T.B.c.l.l.j.j.j.f.d.d.d.d.d.d.d.d.d.d.$.$.a.$.$.d.K.$X,X=X%X",
"{.{.{.{.{.{.{.{.{.{.{.{.{.;X:X:X2X2XeXeXeXrXyXyXeXeXeX2X1X-X_.T.T.T.N.c.l.l.j.j.j.j.f.d.d.a.a.a.a.f.h.x.b.A.F.K.K.K.K.K.L.OX$X6X",
"{.-X:X:X1X2X9X2X2X1X:X-X'._._._._._._.'.'.'.'.'._._._.T.T.T.T.T.Y.N.l.l.k.k.j.j.f.d.d.h.z.A.K.OX7X0XsXgXgXhXhXgXsXsXtXtXtXtXtXqX",
"2XeXyXuXuXuXuXuXuXfXfXfXyX9X,X'._._._._._._.).).T.T.T.T.T.T.T.U.n.l.l.j.j.j.j.x.F.OX7X0XgXlXzXhXfXtX9X9X1X,X,X*X*X*X*X%X%X%X*X*X",
"uXuXyXeX4X2X2X2X2X2X2X2X9XeXyXyX9X,X`._.).T.T.T.T.Y.U.U.U.N.n.c.j.c.m.F.OX<X0XgXzXzXkXuXtX9X,X,X*X*X%X%X%X%X%X+X+X+X+X+X+X+X+X+X",
"eX2X2X>X>X>X:X:X;X-X;X{.{.{.'.-X1X9X9X1X=X%XE.R.R.I.H.K.L.L.@X<X8XwXgXlXzXkXfXuX9X9X,X*X*X*X*X*X*X%X%X%X+X+X+X+X+X+X+X+X+X+X+X+X",
">X>X>X>X-X`.T.Y.U.U.P.P.U.Y.T._.T.T.Y.%X1X9XtXqXtXyXuXfXfXjXkXkXkXjXuXyX9X9X,X=X*X%X%X%X*X*X%X&X+X@X*X<X7X8X0X0X0X0X0X8X7X<X%X+X",
">X:X`.T.U.B.B.M.n.n.l.l.l.k.l.c.n.B.U.P.N.I.%X1X$XoXoXoXoXoXoXoXoXoXoXJ.J.J.@X*X%X%X%X%X+X+X*X<X0XgXlXzXzXkXkXfXfXfXjXjXjXfXgXwX",
"'.T.U.V.V.B.B.M.n.n.v.l.l.k.k.j.j.f.h.j.c.n.c.M.s @ @ @ @ @ @ @ @ @ @ @ @ # e.*X%X%X+X+X<X0XlXzXzXkXuXyXeXeXeX4X4X4X4X4X4X4XeXeX",
"U.U.U.U.V.B.B.N.n.n.n.c.l.l.j.j.h.d.s.s.s.s.s.s.r                         . 0.+XE.OX<XsXzXzXjXyXeXeX4X4X2X>X:X;X;X{.{.{.{.{.;X;X",
"U.U.U.U.V.B.B.N.n.n.n.c.c.l.l.j.d.s.w.w.i = = = f y.` / / / ! E E E E E v c 6 - - 3 #XzXuXeXeX4X2X>X;X{.[.].].].].].].].]._._._.",
"U.U.U.U.B.B.B.N.n.n.n.c.l.j.h.g.s.w.G G 1       A |.9.<.<.<.:. . . . . .{ ) ;     . .XiXeX4X>X;X{.[.].]._._._._.].]._.).T.U.U.P.",
"U.U.U.V.B.B.B.M.n.n.n.c.l.g.s.w.J G s 3 u A A A =.9.1.,.,.,.>.:.:.:...| { { c 7 7 7 d k L.;X[._.].[._._._._._._._.U.n.j.d.d.d.d.",
"U.U.U.B.B.B.B.M.n.n.n.l.g.w.w.G C V 3   f |.}.}.9.,.,.<.<.<.<.<.<.<.:.| | | [ ] ] / *   t.{._._._._._._._._._.P.k.d.a.a.a.a.a.a.",
"U.U.B.B.B.B.N.M.n.n.c.h.w.Y S V i 1 w g e.}.}.}.9.,.:...............{ ] } | { [ ) / 7 * A e.I._._._._._._.T.c.a.#.a.a.a.a.a.a.a.",
"U.V.B.B.B.N.M.M.n.c.h.s.Y C B i =   x cXrX(.}.}.9.<.[ v b b b b b b v b ]  .| | [ / / ^ * . t.[._._._._.U.h.#.a.a.a.a.a.a.a.a.a.",
"-X_.Y.P.B.N.B.n.n.l.s.Y Z M i r 3 # u.xXeX(.~.!.8.>.[ R E E E E E E E E / { { { [ ] / ^ ; O 0.G.Y.).).T.j.#.a.a.a.a.a.a.a.a.a.a.",
"2X2X:X=X`.R.I.N.m.g.w.Z B i 3 X z xX9X X|.}.=.W W E / } } } } } } } } } ! R R R ] | ] / ! Q ; % t.).).n.a.a.a.a.a.a.a.a.a.a.a.a.",
"Y.`.=X1X2X1X=X&XL.C.t.I k a 3   x vXiX(.(.}.&.v b b /  . . . . . . .| | ! b R R ] | [ / / / * . e.T.U.d.a.a.a.a.a.a.a.a.a.a.a.a.",
"n.n.M.I.R.`.&XOXJ.i.0.P w @ j #X6X3X X}.W.( / [ [ [ +.!.!.!.!.!.!.!.+.| { [ [ [ ~ Q [ } ] / R c 6 3 r.d.a.a.a.a.a.a.a.a.a.a.a.a.",
"n.v.c.c.c.c.z.r.q.I B s =   z vXiX(.(.}.=.v ^  .| | 7.}.}.}.}.}.}.}.4.| | |  .| Q v ]  .] / ) ^ & X U d.a.a.a.a.a.a.a.a.a.a.#.#.",
"v.c.c.c.l.g.w.G V i t q =   z vXiX(.Q.&.o.^ o.7.7.7.*.&.&.&.&.&.&.&._ ~  .:...| ] ^ ^ ^ ] { ] ^ & X U d.a.a.a.a.a.a.a.a.a.a.#.#.",
"c.c.c.l.h.w.G V i t q 4 =   z vXiX(.=.v ~  .7.}.}.}.%.v v v v v v v v v ..<.O.|  .| Q v [  .] ^ & X q.d.a.a.a.a.a.a.a.a.#.#.#.a.",
"1X&XL.A.z.w.Z M u r 3 = 3 g XXkX5X}.=.v ~ | 7.}./.^.o.v b b Q ^ ^ ^ Q b [ O.O.O. .| Q b [ | ] ^ 7 ; B N K a.a.a.a.a.a.#.#.#.#.a.",
"kXkXfX0X6X.Xu.P k j 5   l cXpX}.}.}.=.v ~ | 7.}.9.,.[ v b v | ,.,.,./ v b R ..,.O.| Q v [  .] / / ~ & . S d.a.a.a.a.a.a.#.#.#.#.",
"eXyXyX0X6X.Xu.x k j 5   l vXpX(.~.!.&.R / X.7./.5.,.[ v b v | <.,.,./ v b b ..,.O.| ~ E ] { ] ] / ^ & . S a.a.a.a.a.a.a.#.#.#.#.",
"-X-X=X$XoXi.T k j j 5   l vXpX}.;.W ^ } 4.~.9.1.<.,.[ v b v | ,.,.,./ v b R ..,.O.| } { Q E [ } ] ^ & . S d.a.a.a.a.a.a.a.a.#.#.",
"`.`.L.G.t.I k a p w -   l vXpX}.-.v ~  .7.}.9.,.,.,.[ v b v | <.,.,./ v b b ..,.O.| | | Q b [ | ] ^ & . U f.a.a.a.a.a.a.a.a.#.#.",
"`.E.K.C.e.P s a w w -   l vXpX}.-.v ~ | 7.}.9.,.,.,.[ v b v | <.,.,./ v b b ..,.>.>...| Q b [ | ] ^ & . q.v.a.a.a.a.a.#.#.#.#.#.",
"`.R.G.t.I k a w w w -   l vXpX}.-.v ~ | 7.}.9.,.,.,.[ v b v | <.,.,./ v v v ..,.,.,.O.| Q b [ | ] ^ & . q.B.l.a.a.#.#.#.#.#.#.#.",
"=X&XJ.i.P k p w w w -   l vXpX}.-.v ~ | 7.}.9.,.,.,.[ v b b ~ { { { Q b / { :.,.,.,.O.| Q b [ | ] ^ & . q.B.N.l.d.a.#.#.#.#.#.#.",
"sX0X6X.Xu.k j e w w -   l vXpX}.-.v ~ | 7.}.9.,.,.,.[ v b b v v v v v v ..<.,.,.,.,.O.| Q b [ | ] ^ & . q.B.N.N.v.d.a.#.#.#.#.a.",
"gX0X6X.Xu.z j h h h 5   l vXpX}.-.v ~ | 7.}.9.,.,.,.[ v b b Q ^ ^ ^ ^ ^ :.,.,.,.,.,.O.| Q b [ | ] ^ & . q.B.N.N.N.M.c.d.a.#.a.a.",
"sX0X#Xi.T k j h h h 5   l vXpX}.-.v ~ | 7.}.9.,.,.,.[ v b v | ,.,.,.,.,.,.,.,.,.,.,.O.| Q b [ | ] ^ & . q.N.M.M.N.N.N.M.v.j.d.d.",
"Z.g.U V i q 4 4 4 0 -   l vXpX}.-.v ~ | 7.}.9.,.,.,.[ v b v | <.,.,.,.,.,.,.,.,.,.,.O.| Q b [ | ] ^ & . q.M.M.M.N.N.N.B.P.S.N.M.",
"@.K F N y 2 < > > > =   l vXpX}.-.v ~ | 7.}.9.,.,.,.[ v b v | <.,.,.,.,.,.,.,.,.O. . .| Q b [ | ] ^ & . q.M.M.n.M.N.B.B.P.S.P.P.",
"#.K F N y 2 < > > > =   l vXpX}.;.b ^ | 6.}.9.<.,.,.[ v b b | <.,.,.,.,.,.,.,.,.O.| | } Q R [ | ] ^ & . q.M.n.n.n.v.n.N.P.P.P.P.",
"a.K F N y 2 < > > > =   l vXpX(.~.Q.%.Q o.4.7.^.5.,.[ v b b | ,.,.,.,.,.,.,.,.,.O.| ^ Q / [ ] ] ) ^ & . q.n.n.n.v.c.c.c.c.M.N.S.",
"#.K F N y 2 < > > > =   l vXpX(.(.}.=.v ~ | 7.}.9.,.[ v b v | ,.,.,.,.,.,.,.,.,.O.| Q v [  .] / ] ^ & . q.n.n.n.v.v.c.c.c.l.l.c.",
"#.K F N y 2 < > > > , = g x .XiX3X}.=.v ~ | 7.}.!.9.o.v b v | <.,.,.,.,.,.,.>.:...| Q b [ | ] ^ 9 6 u s s.v.v.v.c.c.c.c.c.l.j.j.",
"#.K F N y 8 < > > > > > $   z vXiX}.=.v ~  .7.}.}.}.%.v v v | ,.,.,.,.,.,.,.O.|  .| Q v [  .] ^ & . U c.j.j.l.l.c.c.c.c.c.c.l.l.",
"#.L F N i 8 1 > > > > > $   z vXiX}.W.( _ ] +.!.!.!.*.( ( ( 4.5.5.5.1.>.>.>.O.| [ ] ~ Q [ { ] ^ & X e.n.j.j.j.j.j.l.l.c.c.c.l.l.",
"#.L H V n r 1 < > > > > $   z vXiX(.(.}.=.v ^  . .| 7.}.}.}.}.}.(.(.4.|  . . .| Q b ] | ] / / ^ & X p.=XR.S.c.j.j.j.j.j.j.j.l.l.",
"#.@.H S m y 2 < > > > > = X l aX9X X|.}.;.W / } { { 4.~.~.~.~.~.~.~.4.| } { { { ! E ] | ] / Q E , % p.,X,X,X&XR.S.m.c.j.j.j.j.j.",
"#.@.K F N i r 1 > > > > > , - # T xXeX(.~.~.&.R R R ] X.X.X.X.X.X.X. .| ~ R R R ' } [ ) / ^ ; + e.oX*X,X,X,X,X,X,X=X&XE.I.S.M.b.",
"#.#.L H S m y 2 < > > > > > =   z cXrX}.}.}.&.b R R ^ | | | | | | | | | ! b b R ] | [ / / ^ * . e.E.E.%X*X=X=X=X=X=X=X=X=X=X=X=X",
"#.#.@.K F N i r 1 > > > > > : = - g XXzX5X(.8.O.O.O.] Q Q Q Q Q Q Q Q Q ^ [ [ [ } | [ ^ 7 * P i.L.&X+X+X+X&X&X*X,X,X,X,X,X=X*X%X",
"#.#.#.L H C n t 2 1 > > > > > > $   x vXiX(.9.,.,.<.[ v v v v v v v v v ]  . . . .| [ / * . e.Y.R.R.E.E.E.E.E.E.E.R.R.I.I.S.N.N.",
"#.#.#.@.K F N i r 2 < > > > > > : = h x p.}.!.9.2.,.O.{ { { { { { { ] ^ { | { [ { [ 9 6 u s r.n.n.n.n.n.M.M.n.M.M.n.n.n.M.S.R.+X",
"#.a.a.#.L H S m i r 1 < > > > > > > =   f |.}.}.9.,.,.,.<.<.<.<.<.<.:.| | | [ ) ] / *   Z n.n.n.n.n.n.n.n.n.n.n.M.S.R.*X8XtXdXhX",
"#.#.a.#.@.K H C m y r 1 < > > > > > = o u y.y.y.3.5.1.,.,.,.,.>.>.>.O.| } { E c c c 8 3 e.H.S.S.N.M.n.n.n.n.N.L.<XqXdXhXhXhXhXhX",
"#.#.#.#.#.@.K F V n y r 1 < > > > > > > $       A |.9.<.<.<.:. . . . . .[ / ;     . P b.b.m.c.c.c.c.c.n.I.<XqXdXhXhXhXhXhXhXsXsX",
"#.#.a.a.a.#.@.K F V n y 8 1 < > > > > > $ X o X f Q.4.O.O.O.{ ' ' ' ' ' ! Q ; @ @ # Z k.l.c.l.l.l.m.E.8XsXgXhXhXgXdXqX7X@XK.A.b.",
"#.#.a.a.a.a.#.@.K F N n t 8 1 > > > > > , 3 3 4 = + O $ $ O O O O O O O O O u Z U q.g.l.l.l.c.S.*XqXdXhXhXgXwX7XL.A.x.d.a.a.a.a.",
"a.a.a.a.a.a.a.#.L H D N i t r 1 < 1 3 4 4 4 4 0 %                         . s w.s.h.j.j.c.K.<XwXhXhXgXwX<XK.x.d.$.$.a.a.a.a.a.d.",
"a.#.a.a.a.a.a.a.#.L H D N n y r q q 0 0 0 0 0 0 3 = = = = = = = : > 1 q t i G s.g.h.b.L.8XsXdXdXtX8XL.x.s.#.a.d.d.d.a.a.a.a.a.d.",
"a.a.a.a.a.a.a.a.a.@.L J G I P d s a p q q 0 0 0 0 0 4 1 1 1 4 r t i m V G w.s.g.b.@XqXdXhXdXqX@XA.d.a.a.a.a.a.a.a.a.a.a.a.a.a.d.",
"a.a.a.a.a.a.a.a.d.h.z.z.t.e.U I P d s a p p p p q q 4 2 q r t y i B V G J s.D.<XqXdXhXsX8XL.x.a.a.a.a.a.a.a.a.a.a.a.a.a.a.a.a.a.",
"#.$.a.d.f.h.x.b.A.F.F.D.C.z.t.e.I I P d s s y t t t t t y y i m V S G w.J.7XwXdXdXwX<XF.h.a.d.d.a.a.a.a.a.a.a.a.a.a.a.a.a.a.a.d.",
"x.x.b.m.A.F.F.F.F.F.F.F.F.A.C.t.r.e.I Z B m m m m m m m m B V C G r.J.7XwXsXsXqX@XZ.d.a.d.d.d.d.a.a.a.a.a.a.a.a.a.a.a.a.a.a.d.d.",
"F.F.F.F.F.F.F.F.F.F.F.F.F.F.A.C.z.w.G S S S C C S S C C S S U t.OX8XqXwXwX8XL.x.a.a.d.d.a.a.a.a.a.a.a.a.a.a.a.a.a.a.a.a.a.a.a.d.",
"F.F.F.F.F.F.F.F.F.F.F.A.A.b.h.d.s.s.w.J J J J J J J J w.r.J.$X8X0XwXqX<XF.h.a.a.d.a.d.a.a.a.a.a.a.a.a.a.a.a.a.a.a.a.a.a.a.a.a.d.",
"F.F.F.F.F.A.A.A.b.x.x.f.d.d.a.d.s.s.s.s.s.s.s.s.s.g.D.<X8X0X0XqX8X@XZ.d.a.a.d.a.a.a.a.a.a.a.a.a.d.a.a.a.a.a.a.a.a.a.a.a.a.a.a.d.",
"j.j.x.j.j.j.f.d.d.d.d.d.d.d.d.d.s.s.s.s.d.d.d.x.OX8XqXwXwXwX8XL.x.a.a.d.d.d.a.a.a.a.a.a.a.a.a.a.d.a.a.a.a.a.a.a.a.a.a.a.a.a.a.d."
};
