/* XPM */
static const char *fondo1[] = {
/* columns rows colors chars-per-pixel */
"64 64 186 2 ",
"   c #CB853F",
".  c #CC893F",
"X  c #CC8640",
"o  c #C68B43",
"O  c #CC8C44",
"+  c #CD8E49",
"@  c #D08F45",
"#  c #CF9046",
"$  c #CF924B",
"%  c #D19147",
"&  c #D2944B",
"*  c #D49A4E",
"=  c #CE9551",
"-  c #CF9856",
";  c #D19652",
":  c #D59C52",
">  c #D89E53",
",  c #D39C5B",
"<  c #D89F59",
"1  c #D7A054",
"2  c #DAA255",
"3  c #D6A15C",
"4  c #DBA55A",
"5  c #DEA95C",
"6  c #E0A658",
"7  c #E1AC5D",
"8  c #E3B05F",
"9  c #D39F62",
"0  c #CFA061",
"q  c #D6A263",
"w  c #D9A663",
"e  c #DDAB63",
"r  c #D7A76A",
"t  c #D8A76B",
"y  c #D7A86C",
"u  c #DAA96C",
"i  c #DEB065",
"p  c #DFB26D",
"a  c #D7AC73",
"s  c #DAAC72",
"d  c #D7AF78",
"f  c #DBAF79",
"g  c #DCB175",
"h  c #DDB37A",
"j  c #E1AE61",
"k  c #E0AE69",
"l  c #E4B363",
"z  c #E5B867",
"x  c #E3B46B",
"c  c #E6BA6A",
"v  c #E9BD6C",
"b  c #E2B575",
"n  c #E5BB76",
"m  c #E9BE72",
"M  c #E2B679",
"N  c #E5BB7B",
"B  c #E9BE7B",
"V  c #EBC16E",
"C  c #E7C077",
"Z  c #EDC574",
"A  c #EEC875",
"S  c #E7C17F",
"D  c #EBC47A",
"F  c #EDC97B",
"G  c #F0C775",
"H  c #F1C876",
"J  c #F1CC7C",
"K  c #DDB683",
"L  c #DDB983",
"P  c #DEBC8B",
"I  c #DDBF92",
"U  c #E0B681",
"Y  c #E6BE83",
"T  c #E8BF84",
"R  c #E4BE8A",
"E  c #DFC090",
"W  c #DCC69D",
"Q  c #E6C185",
"!  c #EAC285",
"~  c #EDCA83",
"^  c #E6C38B",
"/  c #EAC58A",
"(  c #ECCB8D",
")  c #F1CE82",
"_  c #F1CD8E",
"`  c #EFD08D",
"'  c #F3D286",
"]  c #F4D58B",
"[  c #F6D98E",
"{  c #F8D98D",
"}  c #E5C491",
"|  c #E9C693",
" . c #E6C993",
".. c #EDCC92",
"X. c #E2C498",
"o. c #E7C999",
"O. c #EACD9C",
"+. c #F1CF92",
"@. c #EED195",
"#. c #EDD39C",
"$. c #F3D394",
"%. c #F6DA92",
"&. c #F9DD94",
"*. c #F0D49C",
"=. c #F4DB9B",
"-. c #F8DE99",
";. c #FAE197",
":. c #FBE29C",
">. c #E2CCA4",
",. c #EACDA2",
"<. c #EDD1A5",
"1. c #EED8A4",
"2. c #ECD4AB",
"3. c #EFDDAE",
"4. c #F0D7A2",
"5. c #F3DBA3",
"6. c #F2D7AD",
"7. c #F2DCAC",
"8. c #ECD6B2",
"9. c #EEDEBB",
"0. c #F1D6B1",
"q. c #F2DBB3",
"w. c #F5DEBA",
"e. c #FBE4A4",
"r. c #F4E0AC",
"t. c #FAE6AB",
"y. c #FBE9AD",
"u. c #F5E2B3",
"i. c #F8E6B6",
"p. c #FBEBB6",
"a. c #F8E8B5",
"s. c #FDEBB4",
"d. c #FCECB7",
"f. c #FCEBB3",
"g. c #F5E2B8",
"h. c #F6E5BF",
"j. c #F5E1BE",
"k. c #F9E3BD",
"l. c #F7EABC",
"z. c #F7EABC",
"x. c #F9E9B9",
"c. c #FAEAB9",
"v. c #FBECBA",
"b. c #FDEDB8",
"n. c #FBEFBF",
"m. c #F9ECBD",
"M. c #FCEDBF",
"N. c #FCEDBB",
"B. c #EFE2C2",
"V. c #EFE1C2",
"C. c #F0E3C5",
"Z. c #F5E3C3",
"A. c #FAE5C4",
"S. c #F7E9C0",
"D. c #F7EAC6",
"F. c #F6E8C5",
"G. c #F6E9C2",
"H. c #F9ECC0",
"J. c #FAEEC3",
"K. c #FAEDC4",
"L. c #F4E6CA",
"P. c #FAE7C9",
"I. c #F3E8C9",
"U. c #F7EBC9",
"Y. c #F6EACB",
"T. c #F5EDCF",
"R. c #F5EACC",
"E. c #F8EECB",
"W. c #FBEACD",
"Q. c #FDF2C4",
"!. c #FEF2C6",
"~. c #FEF2C7",
"^. c #FCF1C5",
"/. c #FDF1C5",
"(. c #FCF2C9",
"). c #FCF2C8",
"_. c #FDF3CA",
"`. c #FDF3CB",
"'. c #FBF3CE",
"]. c #FDF3CB",
"[. c #F5ECD3",
"{. c #FBEBD1",
"}. c #F9F0D3",
"|. c #FAF4D2",
" X c #FAF3D3",
".X c #FAF4DA",
/* pixels */
"' ) J J J J J J ' ] %.-.e.f.N.M././._._._.(./././././.Q.m.p.5.` C c l 4 * * & & % % + + O + + + + + O O . O O . . O 0 L ^ ( ~ D ",
"J J J J J J J J J J J H J J ) ' ] %.-.e.e.e.e.e.e.5.%.] ~ C v v c l 2 * * & & % % % O O O O O + = , 9 t f K P P P P P P I W >.2.",
"J ) ] #.5.7.r.r.7.5.*.` ~ F Z Z Z Z Z Z Z Z Z Z Z Z v v v v v c l > * * & & & # + # = 9 a P >.8.B.L.I.I.K.F.S.j.u.q.q.7.q.7.q.q.",
"5.u.x.m.N.d.p.p.p.x.m.m.l.u.4.( D Z Z Z Z Z V V v v v v v c l 5 * & & & * ; r h X.8.C.[. XW.S.u.6.*...( / / / ! ! ! ! T T ! Y Y ",
"b.s.t.e.-.&.%.[ { { ] ] %.=.r.u.u.1.~ C v v c l l l j 5 5 2 > > 3 u h X.8.B.T. X'.J.u.5.O.../ / / ! ! ! ! ! Y Y Y Y Y Y Y Y Y Y ",
"e.&.&.{ { { ' ' J F F F F F D D F ( 4.4.*.@. .^ ^ ^ ^ } o.,.2.9.I.W. X'.(.m.u.5.O.( / / / / / ! ! ! T T Y Q Q ^ ^ Y Y Y Y Y Y Y ",
"{ %.[ ' Z v l j 5 4 4 4 4 5 j l c c l x / 1.u.7.7.u.u.i.x.x.x.i.i.u.7.*.O.| / ! ! ! ! ! ! T Y ^ | ,.2.9.C.L.R.R.R.I.C.9.2.O.^ Y ",
"{ ) m l 8 7 7 5 2 1 > * * & & & * > 4 5 5 5 x / #.../ / / / / / / / / ! ! ! / ! ! ! ! T R X.8.L.[..X X(.J.b.p.s.s.s.s.d.N.J.F.j.",
"Z z l l 8 7 7 5 2 2 > * * * & & % % % % * > > > w M / ( / ! ! ! ! ! ! ! ! ! ! ! ! Y ^ <.L..X X/.b.y.e.e.:.;.&.&.&.&.&.&.&.-.:.e.",
"l l l l l 7 7 5 2 2 1 > * * * & & % % # % + % & & & ; e M ! / / ! ! Y Y Y Y Y Y ^ 2.[..X(.N.t.e.:.:.%.{ ' J J H H H H G G A F F ",
"l l l l 8 7 7 5 2 2 1 > * * * & & & % # % + + + + + + + & ; 4 x N N N N N N Y ,.[..X/.s.e.:.:.[ ' J H A Z Z Z G G G G Z Z Z V V ",
"l l l l 7 7 7 5 2 2 2 > > * * & & & % % % + + + + + + + + @ @ % & * ; ; > g 9..X/.y.e.:.&.{ J G G Z G Z Z Z Z G Z v l 4 2 ; * * ",
"l l l 8 7 7 7 4 4 2 2 > > * * & & & & % # # + + + + + + + + % % % % % ; P R.].s.e.:.&.' J Z Z Z Z Z Z Z Z Z Z l > + O X X O X X ",
"l l l 7 7 7 7 4 2 2 2 > > * * & & & & % % # + + + + + + + + + # % % q 2. Xb.e.:.-.{ J Z Z Z Z Z Z Z Z Z Z c ; O     X X X X X X ",
"8 l 7 7 7 5 5 4 2 2 2 > > * * * & & & % % # + + + + + + & * & # # d C.(.t.e.:.[ J H Z Z Z Z Z Z Z Z Z Z e +   X X X X X X X X X ",
"C c l 7 7 5 6 2 2 1 1 > * * * * & & & % % % # % & ; 4 4 2 * @ = E U.b.e.;.&.' H G Z Z Z Z Z Z Z V V V 5 O   X X X X X X X X X X ",
"%.$.~ D c l 7 4 2 2 1 * * * * * & & * * > 4 e x n x 4 * + + q 2.(.y.:.;.{ J Z G Z Z Z Z Z Z V V V V l + X X X X X X X X X X X X ",
"S _ $.$.$._ ~ ! B n x x k e k x x b n S ~ ~ B x < # + + $ L S.Q.t.:.&.' F A A Z Z Z V V V V V V v v 1 X X X X X X X X X X X X X ",
"2 4 x B ~ _ $.$.$.$.+._ _ ( ( ( ( ( / B x 2 * @ + O + r 2.(.b.e.:.&.) A F A A Z Z v v v v v v v v c # X X X X X X X X X X X X X ",
"1 > > > 2 4 e x b n B B N n b x e 4 ; & % + + O + q o.K.].p.:.;.%.F D F D Z D D c c v v v v v v v l O X X X X X X X X X X X   X ",
"> > > > > * * * * * * * * * & & % % % % + O $ u O.S.'.(.y.:.;.[ F Z D F Z Z D c l c c c c c c c c e O X X X X X X X X X X     X ",
"* * > > * * * * * * * & & & & % % % & ; u ^ 3.K.'.(.M.t.:.&.' D D D D A A Z D l l z z c c c c c c e O X X X O X X X X X X   X X ",
"^ M u 3 > * * * * & & & * * : 3 u Y O.u.K.].]./.M.s.:.&.[ ~ D D D D D Z Z F c l z z z c c c c l l l +   X X X X X X X       X X ",
"(.E.l.u.6.#...| ^ ^ }  .#.1.u.l.K.(._.]./.J.p.e.:.&.[ ) D D D D D D D D D ~ j l z z c c x l l l l l :   X X X X X X X       X X ",
"t.d.M.Q./._._.].]._.'.'._._.(.(./.M.b.y.e.:.&.%.' F D D D D D D D D D D F F 4 l l c c l l l l l l l 4 O X X X X X X X           ",
"~ ' %.-.e.t.f.f.p.p.p.f.f.y.t.e.e.:.&.%.[ ' ~ F D D D D D D D D D D D D ~ D 2 j l l l l l l l j l l j * X X X X X X X X         ",
"D F F F ~ ~ ) ' ' ' ' ' ' ' ' ' ) ~ F F D D D D D D D D D D D D D D D D ~ B > 5 l l l l l l l 7 7 7 7 4 + X X X X X X X X       ",
"D F F F F F F F F F D D D D D D D D D D D D D D D D D D D D D D C C C D ( S > 4 8 l l l l l 7 7 7 5 5 7 > O X X X X             ",
"D D D D D D F D D D D D D D D D D D D D D D D D D D D D D D C D D D D D ( ~ 2 2 7 7 j j j 7 7 7 7 7 5 5 5 > O X                 ",
"........( ~ ! D D D D D D D D D D D D D D D D D D D D D D D D D D D D D ( +.4 > 4 7 7 7 7 7 5 7 5 5 5 5 5 5 > + X               ",
"P.P.P.P.A.k.w.6.#.( ! D D D D D D D D D D D D n C C n n n n n n n n n m ~ $.b > > 4 7 7 7 5 5 5 5 5 5 5 5 5 5 2 & X           X ",
"W.W.W.W.W.W.W.W.W.K.j.6...! D D n n n n n n n n n n n n n n n n n n n n ! $./ 2 ; > 5 5 5 5 5 5 5 5 5 5 5 5 5 5 5 > & O X X X X ",
"j.q.8.2.<.<.2.q.j.P.W.{.W.j.<./ B n n n n n n n n n n n n n n n n n n n S $.*.b > > > 4 5 5 5 5 5 5 4 4 4 4 4 5 5 5 5 2 * # O X ",
", $ + + O O + $ ; q h X.8.A.W.P.6.| n n n n n n n n n n n n n n n n n n n ( *...e * * > 4 4 4 4 4 4 4 4 4 4 4 5 5 5 7 j e e 4 4 ",
"  X X X X X           X # 9 K <.Z.P.q.( B n n n n n n n n n n n n n n N n / @.@./ 4 * * > 2 4 4 4 4 4 4 4 4 2 2 4 7 7 j e j j i ",
"X X X X X X X X X X X X X X X + , L 8.S.q./ N n n n n n n n n n n n n n N B ( @.@./ 4 * * ; > 2 2 4 4 4 2 2 2 1 > 2 4 7 j j j e ",
"X X X X X X X X X   X X X O O O O O $ t O.w.6./ N n n n n n n n n n n n n N ! ..@.@.( e * * * * > 2 2 2 2 2 2 > > ; * > 2 4 5 e ",
"            X X X   X X X O O O + + O O # q ^ q.2./ n n n n n n n n n n n M N / ....@.( M > * & * * ; > 2 2 1 > > > > ; * * * * ",
"              X X X     X X O O O + O + + O # , R 2.<.Y b M M M b b b n n M M N ( ......../ k ; & & * * * > > > > > > > * * & & ",
"                X X     X X O O O + + + + + % % % > U <.O.Y M M M M M M M M M M N / ..........Q e ; & & & * * * ; ; > ; > * * * ",
"                  X X X X X O O O + + O + + + % % % & : h O.,.^ M M b M M M M M M N ! ( ..........! p 2 * & & & & * * * * * * * ",
"                  X X X X X X O O O + O + + + # % % & & & ; u } O./ N M M M M M M M M B / ( ..........( B u 3 * & & & % & & & & ",
"                    X X X X X O O O O + + + + + % % & & & & & * w N |  .^ N M M M M M M M B / ( ............/ Y M u 3 ; * & % + ",
"          X         X   X X X O O O O + + + + + + % % & & & * * * * > e N / | ^ Y M M b b b M N Q / ( ( ......| ..( / / B N b x ",
"                  X X X X X   X X O + + O O + + + # % % & & & * * * * * > 2 e b Y / / ! Y N M M M M N Y ! / ( ( ( ( ( ........( ",
"      X X       X X X X X X X X X O O + O O O + % # % % & & & & * * * * > > > 1 2 4 e p M N Y Q Q ^ Q Q Q ^ / ^ / / Q Q B b x l ",
"    X X X X X X X X X X X X X X X O X O O O + + + # # & % & & & & * * * * > > > 1 2 1 1 2 2 4 4 4 4 e e e e e e 5 5 4 4 4 4 e p ",
"    X X X X X X X X X X X X X X X O O O O O + + + + # % % % & & & * * * * * * > > > > 1 1 1 1 2 2 2 2 2 4 4 4 4 2 4 e N | 2.w.Z.",
"  X X X X X X X X X X X X X X X X X O + + + + + + + + # % % & * * * > , 3 4 4 w w w e e e e 5 4 4 2 2 2 2 2 4 g ^ 2.j.P.W.W.W.W.",
"        X X X X X X X X X X X X X X O O O + + O O + @ & * > q r u g g h h M M M M g s u e w 4 2 2 2 > 1 u ^ 2.A.W.W.W.W.{.{.W.W.",
"    X X X X X X X X X X X X X X X O O O X O O + * ; q t t s g g g h h g u e w 3 > > * * ; * * * * 4 h ,.j.P.W.W.W.P.j.8.,.R h h ",
"    X X X X X X X X X X X X X X X O O O + $ ; q y s s s s s s g s u 3 : * & & & & & * * ; * ; r R q.P.W.W.P.j.<.R s , $ + O X X ",
"X X X X X X X X X X X X X X X X X + & ; 3 r r t a s s s s t t , * & & & & & & & & * * & > s O.w.P.W.P.w.O.h , + . X . X O O X O ",
"X   X X X X X X X X X X X X O + ; 3 t t t u t t t s s u 3 : & % % % % & & & & & * * , M <.A.P.P.j.,.h , O X O O O X X X X X X O ",
"X X X X X X X X X X   X + ; , r t t u t t t t t t r , & # # # # # % % & & & & $ q R 0.A.P.A.0.R , O X   X X X X X X X X X X X O ",
"X X X X X X   X X + ; , r r t t t t t t t t u r ; # + O + + + % % % % % # : u o.w.P.P.Z.,.s = X   X X X X X X X X X X X X X o o ",
"      X O + $ , q r r t t t t t t u t t u q ; + O O + + + + + + % # # , K <.j.A.P.w.} q + X X O X X X X X X X X X X X X X X o o ",
"& = ; , q r r t t t t t t t t t t u r , * + O O O O O O + + + + * r ^ q.A.A.Z.2.K - X O O O O O X X X X X X X X X X X X X X o o ",
"u u t u r y t t t t t t t u t r q ; # + O + + + O + + + O + , h ,.w.A.A.w.O.s $ X X . O O O O X X X X X X X X X X X X X X X X o ",
"t t t t t t t t t t t t q , ; # + + + + O + + + O O O # r ^ 6.A.A.A.q.R q O X X O O X X X X X X X X X X X X X X X X X X X X X X ",
"u t t t r r q q , , ; # + + O O + + O O O O O O + ; h O.w.k.k.j.<.h - X o X X X X X X X X X X X X X X X X X X X X X X X X X X X ",
"* * * * & & # + + + O O O O + + + + O O O O = t } 6.k.k.k.q.} t $ . X o o X X X X X X X X X X X X X X X X X X X X X X X X X X X ",
"+ + O O O O O + + + + + O O O + + O O & q Y <.w.j.Z.w.<.U , O X X X X X X X X X X X X X X X X X X X X X X X X X X X X X X X X X ",
"O + + + O O O O + + + + O O O O + ; g O.w.Z.w.j.w.,.s ; X X X X X o X X X X X X X X X X X X X X X X X X X X X X X X X X X X X X "
};
