/* XPM */
static const char *muro1[] = {
/* columns rows colors chars-per-pixel */
"64 64 251 2 ",
"   c #020202",
".  c #0B0906",
"X  c #0C0B0B",
"o  c #070708",
"O  c #130D0C",
"+  c #190F0E",
"@  c #140704",
"#  c #1A130D",
"$  c #16110B",
"%  c #0D0E11",
"&  c #131312",
"*  c #1C1412",
"=  c #1C1A19",
"-  c #1C1817",
";  c #110F11",
":  c #25170E",
">  c #231B14",
",  c #251C19",
"<  c #291B17",
"1  c #321B11",
"2  c #29231C",
"3  c #39251D",
"4  c #33241B",
"5  c #3F311E",
"6  c #281D21",
"7  c #292726",
"8  c #3A2622",
"9  c #372824",
"0  c #3D3329",
"q  c #373635",
"w  c #2B2F32",
"e  c #1A1E20",
"r  c #442C1E",
"t  c #4C3216",
"y  c #4D3319",
"u  c #47361F",
"i  c #52361A",
"p  c #55391B",
"a  c #5A3C1C",
"s  c #5D311E",
"d  c #5F2308",
"f  c #633D1D",
"g  c #442D2C",
"h  c #442B27",
"j  c #4D332D",
"k  c #483527",
"l  c #573A28",
"z  c #4C3331",
"x  c #463735",
"c  c #533633",
"v  c #553932",
"b  c #5B3B34",
"n  c #573C3A",
"m  c #4A2F30",
"M  c #643F2C",
"N  c #623F33",
"B  c #481300",
"V  c #5D421D",
"C  c #63411E",
"Z  c #59472A",
"A  c #4B4237",
"S  c #574837",
"D  c #5A503D",
"F  c #644422",
"G  c #6A4621",
"H  c #6C4923",
"J  c #68462C",
"K  c #744D25",
"L  c #7A5329",
"P  c #684636",
"I  c #744B34",
"U  c #7B4D34",
"Y  c #764B38",
"T  c #685638",
"R  c #7C523A",
"E  c #73593A",
"W  c #6F542E",
"Q  c #78643E",
"!  c #3E3D40",
"~  c #413E41",
"^  c #3F444C",
"/  c #494746",
"(  c #564A48",
")  c #5D5649",
"_  c #585756",
"`  c #4F5050",
"'  c #695646",
"]  c #7A5541",
"[  c #625B55",
"{  c #7B6544",
"}  c #6C6559",
"|  c #756B53",
" . c #696768",
".. c #797469",
"X. c #7A7575",
"o. c #746A6B",
"O. c #5E5F62",
"+. c #815529",
"@. c #875B2C",
"#. c #84553D",
"$. c #8C5A3E",
"%. c #86593A",
"&. c #915D36",
"*. c #94622E",
"=. c #98642F",
"-. c #886637",
";. c #986835",
":. c #9D713A",
">. c #8F6A32",
",. c #A36C33",
"<. c #A76F35",
"1. c #AA763A",
"2. c #B7793A",
"3. c #C27F3D",
"4. c #DF5921",
"5. c #8D5B41",
"6. c #835A44",
"7. c #925E41",
"8. c #866846",
"9. c #946142",
"0. c #9A6343",
"q. c #9B6849",
"w. c #97764B",
"e. c #987C53",
"r. c #8A6F51",
"t. c #A46C49",
"y. c #A97848",
"u. c #B4784C",
"i. c #A67655",
"p. c #B87C53",
"a. c #82776A",
"s. c #827977",
"d. c #9D7B68",
"f. c #B1813C",
"g. c #C6823D",
"h. c #CA843E",
"j. c #C9873C",
"k. c #978255",
"l. c #AA8248",
"z. c #B88846",
"x. c #AA8758",
"c. c #B98957",
"v. c #B89456",
"b. c #88827B",
"n. c #96886E",
"m. c #BA9863",
"M. c #A69671",
"N. c #BAA576",
"B. c #CC8641",
"V. c #CE8D44",
"C. c #C68D4A",
"Z. c #D18E46",
"A. c #CE9147",
"S. c #CE9249",
"D. c #C59A4C",
"F. c #D19146",
"G. c #D2944B",
"H. c #D49A4D",
"J. c #DA9B4E",
"K. c #C78557",
"L. c #CE9355",
"P. c #CC9857",
"I. c #D59C52",
"U. c #D89E53",
"Y. c #D49859",
"T. c #D38D5E",
"R. c #E09B55",
"E. c #D6A54F",
"W. c #CEA15A",
"Q. c #D4A453",
"!. c #DBA355",
"~. c #D6A953",
"^. c #D4A25C",
"/. c #DCA55A",
"(. c #DEA95C",
"). c #DBAD53",
"_. c #D2A54F",
"`. c #E1AA5B",
"'. c #E1A557",
"]. c #E6B757",
"[. c #C99767",
"{. c #D19162",
"}. c #E49864",
"|. c #DAA966",
" X c #DAAC72",
".X c #DBB677",
"XX c #CEAA69",
"oX c #E1AB61",
"OX c #E8AD63",
"+X c #E9BD6C",
"@X c #E5B667",
"#X c #E2B573",
"$X c #E4BA7C",
"%X c #E8BB77",
"&X c #E8B36F",
"*X c #EBC26E",
"=X c #EEC573",
"-X c #EBC57A",
";X c #F0C674",
":X c #F4CA77",
">X c #FBD47D",
",X c #F1C76E",
"<X c #7D7F80",
"1X c #8B8988",
"2X c #968C89",
"3X c #9A9694",
"4X c #98948A",
"5X c #A39C99",
"6X c #A09582",
"7X c #B4AA95",
"8X c #BBB5B2",
"9X c #B1AAA6",
"0X c #D7B785",
"qX c #E5BE84",
"wX c #E8BD85",
"eX c #C3B9B4",
"rX c #D7C192",
"tX c #E6C185",
"yX c #EAC286",
"uX c #E6C48B",
"iX c #EBC48A",
"pX c #EBC98D",
"aX c #E8C885",
"sX c #F2CB8A",
"dX c #F6D789",
"fX c #ECCC92",
"gX c #E8C794",
"hX c #EBD095",
"jX c #F6D797",
"kX c #F1CD90",
"lX c #FCE39D",
"zX c #CEC6B5",
"xX c #EBD6A9",
"cX c #EDD6AD",
"vX c #FCE5A2",
"bX c #FAE7AA",
"nX c #FBEBB6",
"mX c #F5EABB",
"MX c #CAC5C1",
"NX c #D4D0CB",
"BX c #E9DCCB",
"VX c #FBE6CA",
"CX c #FBEACD",
"ZX c #F9E7C5",
"AX c #FDF3CA",
"SX c #FDEDD3",
"DX c #F2E9D5",
"FX c #FAF5DA",
"GX c #EEE4CA",
"HX c #FBFAE7",
"JX c #F9F7EF",
/* pixels */
"(.'./.!.!.U.I.I.U.(.@X+X=X=X@X(.oXpXnXmXxXjXbXbXbXnXnXnXnXnXnXnXnXcXjXfXuXiXiXiXyXiXyXyXiXiXiXtXqX$XwXgXxXBXDXFXHXHXHXHXHXHXFXGX",
"`.(./.!.!.H.H.H.G.G.S.G.I.(.@X+X`.E.(.aXxXxXgXyXiXpXgXpXgXgXpXiXtXtXyXyXyXyXwXiXyXiXyXyXyXwX$XqXxXBXDXHXHXHXFXAXAXZXnXnXnXnXnXAX",
"`.`./.!.!.H.H.H.H.G.G.G.F.V.V.G./.`.'.H.U.tXxXxXuXqXwXwXyXyXyXyXyXyXyXyXyXyXyXyXyXyXyXqX$XgXcXFXJXHXFXAXnXbXbXbXvXlXlXlXlXlXlXlX",
"`.`././.!.U.H.H.H.G.G.G.G.G.F.Z.V.Z.H.U.U.F.H.#XfXhXgXtXwXwXyXyXyXwXqXwXqXqXqXqXyXwX$XgXGXJXJXFXnXnXvXlXvXvXlXlXlXjXdXdXdXdXdXdX",
"`.`././.!.!.H.H.H.H.G.G.G.G.G.A.A.A.V.V.S.H.G.V.Z.|.-XpXfXiXtXqXqXwXwXwXqXqXqXwX%XtXBXJXHXAXnXbXvXlXlXlXjXdXdX:X:X;X=X;X=X*X=X=X",
"`.`././.!.!.I.H.H.H.H.G.G.G.G.S.G.Z.V.A.V.V.F.G.Z.V.V.Y.|.%XiXiXiXtXtXtXqXtXqX%XxXHXHXAXnXbXvXvXvXlXdX:X;X=X=X;X;X;X;X;X;X=X=X;X",
"`.`././.!.U.U.I.H.H.G.G.G.G.G.S.A.V.V.V.V.F.V.V.V.Z.Z.Z.V.Z.H./.|.oX|.|.#X|.$XDXJXAXnXbXvXlXvXjXdX:X=X=X,X;X;X=X=X=X;X;X=X;X;X=X",
"`.`./.!.!.!.U.I.H.H.G.G.G.G.G.G.G.A.V.V.V.A.F.Z.V.V.V.A.G.G.F.A.V.G.G.G.V.0XHXHXnXbXvXvXvXjXdX;X=X;X;X=X=X;X=X=X=X=X;X:X=XoX!.G.",
"`.'././.!.!.U.I.H.H.G.G.G.G.G.G.G.S.A.V.V.V.V.A.A.V.A.V.G.G.G.G.G.G.F.S.xXJXAXnXvXlXlXlXdX;X=X=X=X=X=X=X=X=X=X=X=X;X+X/.V.j.h.h.",
"`.'././.!.!.U.I.H.H.G.G.G.G.G.G.G.S.A.V.V.V.V.V.V.V.G.Z.G.S.G.S.G.V.P.GXHXnXbXlXlXlXdX:X=X=X=X=X=X=X=X=X=X=X=X=X=X(.V.h.h.B.B.V.",
"(.(./.!.!.!.U.H.H.H.G.G.G.G.G.G.G.A.A.A.V.A.V.V.F.Z.V.V.V.V.S.G.j.XXFXFXnXvXlXvXjX:X;X=X=X=X=X=X=X=X=X=X=X=X=X+XH.g.h.B.B.B.B.B.",
"(.(./.!.!.!.U.I.H.H.H.G.G.G.G.G.G.G.S.S.V.V.V.B.B.B.S.I.H.G.F.j.0XHXAXbXlXlXlXdX=X=X=X=X=X=X=X=X=X=X=X=X=X=X+XA.g.B.B.B.B.B.B.B.",
"`././.!.!.!.H.H.H.H.H.H.G.G.G.G.G.S.S.V.F.J.J.'.OX+XOXI.F.V.j.rXHXZXvXlXlXjXdX>X>X>X:X=X=X=X=X=X=X*X*X*X*X=XS.g.B.B.B.B.B.B.B.B.",
"'././.!.!.!.U.H.H.I.H.H.G.G.S.A.F.F.G.U.z.-.r.e.k.8.;.F.Z.S.cXHXnXvXlXlXjX>Xm.e.k.e.m.:X=X=X=X=X*X*X*X*X*X!.g.V.B.B.B.B.B.B.B.B.",
"@XoX(.!.!.H.H.H.H.H.G.G.G.G.G.I.Y.XX XiXr.  % % % o 9 C.v.zXGXxXhXhXhXaX.X-XD   %   T -X#X*X=X=X*X*X*X*X@XB.B.B.B.B.B.B.B.B.B.B.",
"kXkXsXaX-X%X%X#X#X#X#X#X$X.XyXjX| o & ; = ` 5XNX8X5Xb.. & = & & & & & & & X ` 3X5X9X}   T >X+X*X+X*X+X=X/.h.V.B.B.B.B.B.B.B.B.B.",
"jXkXkXkXkXkXkXfXfXpXuXuXqXpX| q ; V f.>.#.z q s.3X3XeX2X .. 8 8 8 8 8 8 8 8 S ' a.9X3XX._ Q >X+X+X+X+X+XG.h.B.B.B.B.B.B.B.B.B.B.",
"-XaXsXkXkXsXpXuXtXqX.X.XXXx.2 1 k l.].(.L.-.l P ` o.5XeX8X( 3 3 3 3 3 3 3 3 4 < x [ s.8X2X( v.*X+X+X+X+XV.B.B.B.B.B.B.B.B.B.B.B.",
"H.I.U.!.^.^.Y.P.P.v.z.1.y.4   l.Y.C.D.D.D._.'.9.* v j s.MXMX7   . X X X X X X ; X   q 3XNX3X0 %X+X+X+X@XB.B.B.B.B.B.B.B.V.B.B.B.",
"J.H.H.G.S.C.z.f.1.1.,.1.7 J 5.K.' w x 2 2 q A t.T.9.X ( 1XMX8X= U 7.#.#.#.#.#.#.#.#.$.' <XBX2Xk :X@X+X@XB.B.B.B.B.B.B.B.B.B.B.B.",
"H.H.H.S.C.z.z.1.:.;.;.k l $.k 4 P b x - & x z l J K.#.v ' 5XMX3X3 U $.t.u.u.u.u.u.u.u.u.r.3X8XA E ,X+X@XB.B.B.B.V.B.B.B.B.B.B.B.",
"H.H.S.S.z.y.1.;.>.@.P & U U <   l Y P 4 < I N < > i.t.< 8 } zXNX_ 9.t.p.L.L.L.L.L.L.L.Y.u.a.8XX., x.@X@XV.h.B.B.B.B.B.B.B.B.h.h.",
"S.A.C.z.1.:.>.@.L W & . Y : h > < Y 0.r 3 0.R 8 X x I . o n 8XMXNX[.K.K.I.~.~.~.~.~.~.~.!.p.1XeXm 2 XX@XS.j.B.B.B.B.B.B.B.B.h.h.",
"xXhXrX0XN.M.n.a.....= I < 7 v + l 9.9.r 3 0.R 4 # x S t.O c b.MXMX[.H.~.~.~.~.Q.Q.Q.Q.Q.).l.o.NXeXt.9 |./.j.B.B.B.B.B.B.B.B.B.h.",
"CXGXcXzX7X6Xb...| q o #.: 7 n O l 7.9.r 3 0.R 8 # z A &.. c ' 9XMX[.L.Y.Y.Y.Y./.).).)./.Y.L.d.1XzXy.> |.oXB.h.B.B.B.B.B.B.B.B.h.",
"mXxXrX7XM.n...} } & < M , h b O l 7.9.r 3 0.R 4 # z x P j 3 8 1X9Xe.0.q.5.9.q.y.l.y.l.q.#.$.R  .zX0., |.@XI.j.B.B.B.B.B.B.B.B.h.",
"gXrXN.M.k.| | ' ) = #.# 7 z b + l 7.9.r 3 7.R 8 + b g A c.. . X.s.S c v * 8 v j z z v 8 o   & X.eXI 7 ^.oX(.B.h.B.B.B.B.B.B.B.B.",
" XXXx.e.{ E T D D - U : 7 m #.< l 9.7.r > v Y M O v g S D.$ z 3X5XW._._._.K.p.c.p.L.Q._.D.p.q. .2XP t.9 ^.oXI.h.B.B.B.B.B.B.B.B.",
"XXm.k.8.E T Z Z S - U : 9 c 7.4 8 #.t.k - c P M O v g S D.$ z b.8X[.E.).).Q.I.I.I.Q.).)././.c. .2XP u.> W.`.`.G.j.B.B.B.B.B.h.h.",
"XXx.w.{ T D Z Z S - U # , 8 l # < b J < > b #.I O v g A D.# z X.zX[.L.I.I.I.Q.~.~.Q.Y.Y.Y.!.c. .2XP u., ^.`.`.(.V.h.B.B.B.h.h.h.",
"m.x.8.E T Z Z Z S - U 1 @ @ @ @ h , X o , P u.9.O v g A D.$ z s.eX[.K.K.K.K.P.~.~.P.K.K.K.K.i. .2XP u., ^.`.(.(.!.B.h.B.h.h.B.h.",
"m.k.{ E D Z Z Z S - U 4.4.4.4.4.d _ NX .O P u.9.O v g A D.$ z s.eX[.K.K.Q.E.E.E.~.Q.Q.~.Y.T.i. .2XP p., W.`.(.(.(.!.V.h.B.h.h.h.",
"7Xn.{ T Z Z Z Z S - U f B 7.s B S _ _ 3X .3 u.-.O v g A D.# z s.zX[.t.t.y.L.Y.Y.Y.Y.Y.Y.c.t.9. .X.N $.> W.`.(.(.(.(./.V.h.h.B.h.",
"7X6Xa.} ) D S Z S = U $ e 1XO.7 X. .- 5X3X: K.$.O v g A D.$ 8 X.8Xi.R Y M R 5.6.9.t.q.i.q.I P  .s.b I > W.`.(.(.(.(.(.(.G.B.h.B.",
"7XM.a.} [ ) ) ( S = U : 1XDXBX8X5X3X/ b.X.r }.$.O v g S D.O o X.5XS j v :   o   < v m P R j c o.2Xb Y 9 ^.`.(.(.(.(.(.(.|./.G.B.",
"7Xn...} [ ) ) ) ) = %.# 1XNX3Xs.s.1X/ .. .u }.$.O z A Q.Q.$ m s.5X8.#.#.#.#.#.#.#.$.$.$.$.#.] O.s.I 4 [.(.(.(.(.(.(.(.(.(.(.oX!.",
"=.@.W Z S D ) ) [ & 1 b x 1Xd.x  . .7  .` r }.$.O g A H.Z 8 c X.5Xq.7.5.5.5.$.5.5.$.5.5.$.7.6._ s.R , ^.`.(.(.(.(.(.(.(.(.(.`.oX",
"=.L C p t t y k S q o #.: / ] @ q _ / _ / R T.R O x ] z.o c v X.5X6.Y 5.$.$.$.$.$.$.$.5.#.U ]  .s.M > ^.(.(.(.(././.(.(.(.(.`.oX",
"=.+.G a i y t t t l * I < 7 &     ` 2Xq l }.u.l o D T.q.$ j v X.3X( g R $.#.$.$.$.$.%.$.Y g ( 1Xo.h 7 ^.(./.!.(././.U.!.(.oXoXoX",
"=.+.G a i y y y t y O . Y > 9 O %.P   2 Y ;.#.8 o S z.> j c X.s. .n v b b b b b b b b b b n [ X.g > P.!./.!.!./././.!.I.I.U.(.oX",
"=.+.G a i y y y t y x X R I x . U I < , l 0.#.6 > v.z.  , }  . .7 * * * * * * * * * * * O 9 s. ., w.!.!./.!.!.!.!.!.U.U.I.G.H.I.",
";.@.H a i y y y y t i 0 b $.P = j l 9 & < I P 0 L '.:.* w o._ ~ - O + + # # $ $ + # + * = / X.` T '.G.I.U.!./.!.!.!.U.U.U.I.I.G.",
",.@.K f p y y y t y t l = M ;.A q =   X . - w T '.t.g S X._ ` O j b v v v v v v v v v S  .1X_ 4 '.H.H.G.H.I.U.!.U.U.U.U.U.I.I.I.",
",.*.K F p i y y t t t t y > o J p.K.C.H.H._.!.-.> v S X._ _ & h c j j j j j j j j j n _  .! q .XG.F.G.H.H.G.G.I.U.U.U.I.U.I.I.I.",
"<.=.+.H a p y y y y y y i # * 3 u P r.k.r.%.9.J 0  .)  ._ 7 . z b c v v v c c c S ( [ / e x N.jXpX|.G.G.H.H.G.H.H.I.I.I.I.I.I.I.",
"2.,.@.K C a i y y y y y i # j 4 o & w ^ / x x x S O./ ~ q   . 8 8 9 9 8 8 g z m / / / 7   A lXpXfXkXyX|.G.F.G.G.G.G.G.H.I.I.I.I.",
"2.<.*.+.H a p y y y y y i # J Y b <   - / _ _ ` = X 7 o                 o 7 q w q -   .   A hXfXfXfXfXkXiX|.I.A.F.G.G.G.G.G.G.H.",
"2.1.;.@.K F a i y y y t i # J 7.N z >   X X X X   > #.g 9 .     h j j & D 9   o o   5 I h 8 D kXfXfXfXfXhXhXpX#X^.G.F.F.G.G.G.G.",
"3.2.<.*.+.H a p y y y t i $ J 0.P c > > h 3 0 4 . h Y 0.P   o 4 z c c & A S A ' 9 X j #.q.h 0 jXfXkXfXfXfXfXfXkXfXyX#X|.U.S.V.V.",
"g.2.2.,.@.K C p y y t y k 4 I t.P c , 4 p y i 5 - c P K.%.< . z c c c & S { 8.x.S , z ] K.J x m.tXpXfXfXfXfXfXfXfXfXhXfXpXtX#X|.",
"h.3.2.<.*.L C p i y t l = I 7.p.R j > 9 Z l Z k * c P p.5.#.O g v c v * D r.n.N.D > c #.u.9.J 4 #X.XqXyXpXkXfXfXfXfXpXpXfXfXfXkX",
"h.g.2.<.*.L G p i y t l = J $.p.6.*   . & & & X   O c P p.#..           X % & e o , <   l K.l 4 yX X X X#X%XyXaXiXpXpXiXpXpXpXpX",
"h.g.2.<.=.L G a i i i Z = J u.y.5.J l l l l l l l l j S K.$.l R #.R -.>.>.>.>.-.>.w.9.Y q.K.R l | fXuXuXqXqXqXqXtXiXfXfXfXhXhXfX",
"h.g.2.<.*.L G a i i i F = M K.9.P I Y I Y Y Y I Y P z n 0.5.9.t.p.p.z.z.z.z.z.z.z.y.t.p.y.9.0.J 2 $X$XqXtXtXtXtXtXqXqX$X$X#X#X|.",
"h.g.2.<.*.L F p i i p F = M K.R &   o . . . . . o O b h O $.#.O 8 j .   o o o o .   > b < < q.J 9 /.!.E.!.!.!.!.!.!.!.!.!.!.!.!.",
"h.g.2.<.@.K C p i i p J = M K.] m - 9 l y y k i k & c h O 5.5.O g v ; k Z Z W -.y.Z ; n , > 0.M 2 (./././././.(.(.(.(.(.!.E.!.|.",
"h.g.2.,.@.K f p i i p F Z E w.E P S l y y y y y l x S S S 8.8.S S P A l a F K -.1.w.8.w.8.w.c.y.w.!.!.!.!././.(.(.!.H.^. XgXcXCX",
"h.g.2.,.@.K f p i p a f C G C C V a i y y y y y i p p V H H H W W J Z Z Z J E 8.e.m. X#X%X%X#X&X&X|.|./././.!.H.H.|.gXcXCXSXSXCX",
"h.3.2.,.@.K C a p a a F G H H G C a p p i i i p p a Z J W E E E T T T S S T ' r.e.m.[.XX|.|.^.^.I.U.U.Q.U.H.I..XxXZXSXSXVXVXVXCX",
"h.3.2.,.@.K G C f C G H K K K K H F C V a a Z Z J P T E { { 8.{ { E T T T T E Q :.y.z.A.G.G.G.H.H.H.H.G.^.qXcXSXSXVXVXVXSXSXSXVX",
"h.g.2.<.*.+.K H H K K L +.+.+.L L K H H W W E E E E { { 8.r.r.r.r.{ E W W K L @.;.1.z.S.G.I.I.J.H.S.^.uXmXSXCXZXVXCXSXCXcXgX XY.",
"h.g.2.<.;.@.+.L L +.@.@.*.*.*.*.@.@.-.-.8.8.8.8.8.8.r.w.e.e.i.w.:.-.@.@.L @.-.;.:.y.z.S.G.I.G.S.^.gXZXSXCXVXCXSXVXcX0XY.B.g.g.j.",
"h.g.2.2.<.;.*.*.*.*.=.;.,.<.1.y.i.i.e.w.w.w.w.w.e.e.x.x.x.l.1.1.<.,.;.;.;.;.;.:.1.z.C.S.G.S.|.gXZXSXVXZXCXCXcXqXY.B.g.j.B.V.V.V.",
"B.g.3.2.2.<.<.,.,.<.<.1.u.c.m.m.v.c.x.x.x.x.x.x.x.c.c.l.y.2.f.z.2.2.1.1.1.1.1.y.z.z.C.S.|.gXVXCXVXZXVXZXxX|.B.g.h.V.V.V.V.B.B.B."
};
