/* XPM */
static const char *pirata[] = {
/* columns rows colors chars-per-pixel */
"64 64 255 2 ",
"   c #020519",
".  c #130719",
"X  c #2F0B1B",
"o  c #332A1E",
"O  c #010C23",
"+  c #0A0D26",
"@  c #170E27",
"#  c #07152A",
"$  c #18182A",
"%  c #171B32",
"&  c #0B1833",
"*  c #270A27",
"=  c #28192A",
"-  c #371828",
";  c #251933",
":  c #361B36",
">  c #360B2B",
",  c #172438",
"<  c #1A232D",
"1  c #28272A",
"2  c #382928",
"3  c #282737",
"4  c #372837",
"5  c #393537",
"6  c #323331",
"7  c #4B0917",
"8  c #711219",
"9  c #5E3E1E",
"0  c #543A1D",
"q  c #480829",
"w  c #561A29",
"e  c #491734",
"r  c #51112C",
"t  c #700F2B",
"y  c #472627",
"u  c #4A3725",
"i  c #452938",
"p  c #582B37",
"a  c #463A37",
"s  c #592E2D",
"d  c #652834",
"f  c #703031",
"g  c #5E411E",
"h  c #63421F",
"j  c #5C4325",
"k  c #56483A",
"l  c #4F4838",
"z  c #654C2A",
"x  c #674925",
"c  c #785429",
"v  c #685639",
"b  c #745C3A",
"n  c #6B4D2E",
"m  c #75613D",
"M  c #1A2F49",
"N  c #393A48",
"B  c #2B324A",
"V  c #301F42",
"C  c #593A46",
"Z  c #4B2E45",
"A  c #663448",
"S  c #4F2850",
"D  c #38475C",
"F  c #365070",
"G  c #484648",
"H  c #554846",
"J  c #464653",
"K  c #565254",
"L  c #664648",
"P  c #734949",
"I  c #655947",
"U  c #775954",
"Y  c #6F524F",
"T  c #776647",
"R  c #716655",
"E  c #4B5469",
"W  c #68596D",
"Q  c #736E6E",
"!  c #566376",
"~  c #B52B1B",
"^  c #960B2B",
"/  c #99152A",
"(  c #960C32",
")  c #8C0E31",
"_  c #A81B29",
"`  c #AB132D",
"'  c #87362C",
"]  c #8D3031",
"[  c #A72328",
"{  c #B32D2A",
"}  c #971618",
"|  c #C61911",
" . c #DB361A",
".. c #D02916",
"X. c #E4361A",
"o. c #FD3C1D",
"O. c #E43010",
"+. c #CA2A24",
"@. c #D83624",
"#. c #D23027",
"$. c #E73823",
"%. c #F43822",
"&. c #E32E23",
"*. c #885D2C",
"=. c #924B35",
"-. c #B04C37",
";. c #8D602E",
":. c #876234",
">. c #996B36",
",. c #956D38",
"<. c #A8763A",
"1. c #B57C3C",
"2. c #A16C33",
"3. c #FC461B",
"4. c #F24718",
"5. c #CF4C33",
"6. c #E74427",
"7. c #F74723",
"8. c #EC562E",
"9. c #D16E38",
"0. c #F46A32",
"q. c #E4561D",
"w. c #883149",
"e. c #8E524C",
"r. c #AF5347",
"t. c #98784A",
"y. c #997B55",
"u. c #8A7050",
"i. c #AD7253",
"p. c #8F746D",
"a. c #A65E6E",
"s. c #CC5546",
"d. c #D36F55",
"f. c #EC6F4D",
"g. c #D57C70",
"h. c #E77962",
"j. c #BD813E",
"k. c #CA843D",
"l. c #C7843C",
"z. c #D8893B",
"x. c #FB813E",
"c. c #9E835B",
"v. c #9F804C",
"b. c #BA8644",
"n. c #A58856",
"m. c #B18C55",
"M. c #988568",
"N. c #928977",
"B. c #AE946E",
"V. c #BBA377",
"C. c #CC8641",
"Z. c #CD8A43",
"A. c #C68A45",
"S. c #D58D43",
"D. c #D68C43",
"F. c #CD924A",
"G. c #CB9147",
"H. c #D3954B",
"J. c #D59A4D",
"K. c #D69549",
"L. c #C99855",
"P. c #D69C52",
"I. c #D89E53",
"U. c #D39B58",
"Y. c #CB8B55",
"T. c #F48958",
"R. c #DAA255",
"E. c #DCA55A",
"W. c #DDA95C",
"Q. c #D3A15A",
"!. c #D3A157",
"~. c #E4A959",
"^. c #E2A04E",
"/. c #CE936A",
"(. c #F39167",
"). c #C6A368",
"_. c #D8A76B",
"`. c #D9A96C",
"'. c #D7A668",
"]. c #C9A876",
"[. c #D7AD76",
"{. c #DAB477",
"}. c #DDB168",
"|. c #E7B86A",
" X c #E7A776",
".X c #F6AA76",
"XX c #E4BA78",
"oX c #F9B67B",
"OX c #F0AD66",
"+X c #EBC16E",
"@X c #EEC573",
"#X c #E9C37B",
"$X c #ECC777",
"%X c #F3C876",
"&X c #F6CA71",
"*X c #656C8B",
"=X c #345781",
"-X c #A57881",
";X c #798895",
":X c #7A91AF",
">X c #8E9193",
",X c #AA9684",
"<X c #AAA485",
"1X c #B2A88F",
"2X c #8E99AA",
"3X c #96A6B6",
"4X c #ACB0B4",
"5X c #B298A4",
"6X c #D8908C",
"7X c #E2978D",
"8X c #D8BA87",
"9X c #CCB38C",
"0X c #E5BC85",
"qX c #E6A797",
"wX c #F3BA86",
"eX c #D0B7A8",
"rX c #EBB9AC",
"tX c #D6C496",
"yX c #EBC385",
"uX c #E8C68A",
"iX c #FDCB8C",
"pX c #F8C886",
"aX c #FAD389",
"sX c #ECCC92",
"dX c #E8CA99",
"fX c #F7CD93",
"gX c #EED299",
"hX c #FED493",
"jX c #F8D696",
"kX c #FBE39C",
"lX c #D9CAB0",
"zX c #EED3AD",
"xX c #FCE4A1",
"cX c #FBE8A8",
"vX c #F7E6BB",
"bX c #F2E5B4",
"nX c #A6B6C7",
"mX c #94B0C8",
"MX c #B1C3D0",
"NX c #B7CBE3",
"BX c #D2D2D1",
"VX c #ECD9CF",
"CX c #FCEACD",
"ZX c #F9E6C7",
"AX c #FDF2C7",
"SX c #FBEAD4",
"DX c #FEF7D7",
"FX c #E9E5D3",
"GX c #D5DDE3",
"HX c #D9E3E7",
"JX c #F5EBE5",
"KX c #FBF7E9",
"LX c #FDFEFE",
"PX c #F6FBFA",
"IX c #E9EEEF",
/* pixels */
"u ,.,.,.t.t.t.v.n.n.n.v.t.,.,.c.B.<XB.B.B.<X<X<X<X1X,X1X1X<X<X<X<X<X<X<XB.B.B.M.M.c.c.c.c.c.c.c.c.c.c.c.c.y.y.y.y.c.M.N.N.,X1X1X",
"j G.b.b.b.b.b.b.b.b.L.L.Q.Q.L.G.L.).8XtX9X9X].V.V.N.G N.9XdXtXtX8X9X9X9X].].].].].].].].].].].].].].).).].9X9XlXlXlXBXBXBXFXDXDX",
"j P.G.A.A.A.A.A.A.b.j.j.b.A.L.L.L.F.b.L.[.8XV.y.T < e.2 & Q M.B.].{.{.[.[.[.[.[.[.{.[.[.[.[.[.[.[.9XtXlXFXFXFXFXbXzXzXgXgXgXxXkX",
"z ~.P.J.J.J.J.H.H.H.H.H.F.S.Z.j.A.t.% H P.H.t.T I < P i.L 4 $ & D Q 1XyXuXyXyXyXyX0XyXyX0XXX0XzXFXKXKXDXAXvXcXcXxXxXkXxXxXkXkXkX",
"z ~.P.I.J.J.J.J.H.H.H.H.H.H.A.>.;.v 4 n a A.,.x j H 3 P r.-.] ] ] ] d 6 5 3 M.uX8XyXXXXXuXVXKXKXDXAXvXcXkXkXkXkXkXjXaXaXaX%X$X$X",
"z ~.P.I.P.J.J.J.H.H.H.H.H.F.b.*.x l 3 i.P 1 1 % 3 3 y 5.q.8.8.8.8.6.| ~ ~ ) d 1 K 8X8XZXKXKXDXvXcXcXxXxXkXjXjXaX$X$X@X@X@X@X%X%X",
"z ~.P.I.I.P.J.J.H.H.H.H.H.H.b.*.x l , C i.e.=.' 5.q.8.4.h.KXKXJXPXzX$.X.X.X.| } w @ W JXAXcXcXxXkXxXkXaX%X$X@X@X@X@X%X@X@X@X@X@X",
"z ~.I.R.I.P.J.J.H.H.H.H.H.F.b.:.j j H 3 : p 5.T.f.7.4.0.IXBXGXPXBXHXrX . .6.f.s.^ ( 7 J lXcXkXxXjXaX%X@X@X%X%X@X@X@X@X@X@X@X@X%X",
"z ~.R.R.P.P.J.J.J.H.H.H.H.J.G.1.*.h x G + -.0.VXJX6.O.f.GX  ! GX  E SX6...5.PXVX{ / ( 8 N tXkX$X$X@X@X@X@X@X@X@X@X@X@X@X@X$X@X|.",
"z ~.R.R.P.P.J.J.J.H.F.G.G.u.t.I a 6 5 C -.3.rXLXLX7XO.f.IXN E HX% ;XSXX.5.qXPXLXqX| / ( t i ].&X@X@X@X@X@X@X@X@X@X@X@X@X@X|.F.l.",
"z ~.P.R.P.P.J.J.J.H.b.<.,.< A H C H Z ' 7.4.T.qXqXPX7X#.rXGX4XLXBXFXg.5.VXLX7X7Xd...+._ ` A D ,XpX@X@X@X@X@X@X@X@X@X@X|.J.l.k.Z.",
"z ~.P.R.P.P.J.J.J.F.<.c z < i e.e.e.e.q.7.7.X.O.X./.PXeX..qXKXg.BXVX| VXLXg...| ..+.@.@.` w.*XF V.&X@X@X@X@X@X+X+X@X|.Z.l.Z.Z.C.",
"z ~.R.R.I.J.J.J.J.F.<.x j k , 4 p A { 3.7.7.$.6.$.$.d.qXqX5.PXlXeXqXFXVXd...@.#.@.+._ #.` ^ Q M B.&X@X@X+X+X+X+X+X|.A.l.Z.C.C.C.",
"z ~.J.J.J.J.J.J.H.F.1.c x g I 3 + d 7.7.7.$.$.$.f.zXrXrXzX6Xg.qXg.5.6X7XrXqX@.#.#.@.+./ ) ( ) *XD ).%X+X+X+X+X+X+XJ.l.C.C.C.C.C.",
"b pXXXXXXX|.|.|.|.XX`.m.u.v b I ; / 7.6.&.&.X. .zXPXrXd.5.s.| | ..#.| s.FXLXqX+.+.+.+.+._ ) ^ 2XM L.%X|.|.|.|.+X}.k.D.C.C.C.C.C.",
"T jXsXsXsXfXsXfXfXsXsXuXV.u.v k : +.%.$.&.$.$.X.d.VX8.....O.$.$.$.X.$...qXKXd.+.+._ ) ` ` ( ( :XM L.@X|.&X&X&X&X^.l.C.C.C.C.C.C.",
"b iXyXpXpXuXyXyXyXXXXX{.).,.x u = &.%.%.$.@._ ^ } ] / _ [ [ [ ~ ~ ~ +.+.#.5...@. .+./ ) t ) ( 2XM m.|.[.M.M.B.c.u.A.D.C.C.C.C.C.",
"x ^.U.U.I.I.P.J.H.H.G.G.l.;.x u - %.%.@.[ q e A e q > > e e q > e e r q q q w { +.#.#.` ) t t :XM v.V.K X y y y : Y Z.z.l.C.C.C.",
"x R.H.H.H.H.H.H.H.H.H.H.F.>.x j - _ 8 q > ; U p.L i $ # H L C C C Z ; $ G Z 4 > > e t { ` ) r ! , l H 8 3.0.0.0.6.d k y.L.D.C.C.",
"x R.H.J.J.J.H.H.F.Z.A.A.v a 1 1 + * 4 3 ; 4 C i ; ; p $ Y Y Y U L : : w.C C 4 = p % ; > t ` ( X > > 7 o.+.~ _ +.3.o.} A A T S.C.",
"x K.Z.G.Z.Z.G.G.F.b.t.n.1 ; L Y U Y e.C 4 $ + @ d e.-.$ P Y Y L : ; r.f.] ] ] -.r.: : ; ; ; t ) ) ^ r t q r ) &.o.3.3.` : y.D.C.",
"v yX8XuXuXdXgXzXbXtXN.Q Q 3 C e.e.e.P C ; p =.i. XoX X=.: 4 4 ; + $ y u y y y f r.: 3 A Z V $ q ^ ) * t { +.$.%.%.{ / e t.K.C.C.",
"Q DXDXDXDXDXDXDXAXlXN.R R R 3 $ : i Y C @ e.iXR 3 3 M.XXr.=.] -.=.- O O O O # # 1 ; C p.C Z % + t t @ = e ) ) t ) - % u.Z.C.C.Z.",
"R DXAXAXAXAXAXAXvXbX9XM.T T Q 5 i.i Z ; s .Xu.O 3XE O I wX.X.X.XoXy.  Q IXE   # O i e.L C ; i./.4 q t r & % % % % W t.l.C.C.C.C.",
"T cXkXxXxXkXkXkXkXjXuXB.T v 5 ].fXe.+ O T hXH ;XLXBX& 3 pXiXpXpXaXB.  ;XIXN   # O f e.$ Z u.oX%XXX4 t ( q ! N.b t.L.F.l.C.C.C.C.",
"b aXyXpXyXyXyXpXyXyX#Xm.m R 5 0Xd.w ; i U hXK e 4 , + a pXiXpXpXiXB.  & & O # # O p e.4 H d [ -.oX/.* / ^ Z R b.L.W.W.Z.k.Z.C.C.",
"b aX#X#X#X#X#X#X#X#X{.n.b R N uXd.w 4 U 4 p.,X] r O X ' pXiXiXpXaXV.$ O # # # # $ < 4 P Z f { 5.oX/.. ^ %.} H OXW.~.~.~.Z.k.Z.Z.",
"b aX#X#X#X#X#X#X#X#X{.c.v I N V.fXd.' $ $ M.AX7X{ } { f.hXiXpXpXpXhXV.$ O O O O p.B.= 3 f 5.5.(.oXi.> ^ &.%.d T OXW.~.~.W.Z.k.Z.",
"b aX#X#X#X#X#X#X#X#X{.n.m v v 6 B.zXT.-.i.hXpXVXd.9.oX8XM.uXiXiXiX].B.].G G a U hXpXd.s.f.s.d.8Xr.X t ( +.o.8 v OXE.W.W.W.E.H.k.",
"b %X#X#X#X#X#X#X#X#XXX).t.b v I 2 i.dXi.d.jX.X(.wXhXhXfXp.a 0XyXB.y y.hXhXiXoX.X.XjXoXs.9XK N.Y . t t ( ..o.8 I OXE.W.W.W.W.~.P.",
"R cXuXyXXXXX#X#X#X#XXX{.).t.b v v 3 i - R fXhXiXiXiXiXiXhXB.3 3 L  XaXpXiXpXpXpXiXhX Xf $ 4 $ Q B ) ( / X.o.8 I OXE.W.W.W.W.W.W.",
"Q DXZXZXbXgXuXXXXXXXXXXX{.).t.m m m v b G U wXhXhXhXhXiXiXiXyX0XpXpXpXiXiXiXiXiXwXT.f a c z z z B t ( ` ..o.8 I OXE.W.W.W.W.W.E.",
"Q DXSXSXSXSXZXbXgX#XXXXXXX{.).m.n.v.m z T G f /.0XpXiXpXhXiXhXhXhXiXhXiXpXpXiX X-.f k i.,.:.z z v 3 S ( +.o.8 I OXE.~.E.E.E.E.E.",
"z 0X8XzXZXCXDXDXSXZXzXuXXXXXXX{.{.).v.m v I K % e.r.-.r.].[. X XwX.XwX/.r.-.-.e.3 R 8XF.F.b.:.z j z B ; { &.d u.~.E.E.E.E.E.E.W.",
"9 z.9.l.G.U.{.dXZXSXDXSXvXsXXXXXXX{.).y.T v m T Q M # & * > e w d d w > & M M D 2XlXgXXXJ.F.b.:.z x n 3 t 8 k OXR.E.E.E.E.R.R.R.",
"g S.C.C.k.l.l.l.G.'.0XzXSXDXZXgXXX|.}.).n.y.K 6 4 ; C % $ ' d s p p s - E nXmXE : p.jXfXXXJ.F.b.:.z j v Z e y.~.R.E.E.E.E.R.R.I.",
"9 S.C.C.C.Z.Z.Z.k.k.l.Z.Q.uXZXDXCXgX{.m.B.W F >Xs.- =.=.y e..X(.(.T.T.r.f a.a.a.w.F Q zXgXuXU.Z.b.:.x c U R OXR.E.E.E.R.R.R.R.R.",
"g S.C.C.C.C.C.C.Z.Z.Z.Z.Z.l.A.'.dXVXeXM.K E BXLXh.{ y -.=.- R pX%X.Xd.5.$.@. .../.HXE K eXgXfX'.G.<.*.;.b.L.J.R.R.R.R.R.I.R.R.I.",
"g S.C.C.C.C.C.Z.Z.Z.Z.Z.Z.Z.Z.l.1.i.R M d  .rXPXFXJX3Xi =.' - I .XT.6XJXKXKXJXJXPXVXr.t V N.jXgXXXL.<.i.F.H.H.H.P.I.R.R.R.R.I.I.",
"g S.k.C.C.C.C.C.Z.Z.Z.Z.Z.Z.Z.i.>.k E IX6XO. .6XnXJXBX3 f =.f = A /.VXSXJXJXGXnXrX6.4.5.5X! Q fXgXsX{.U.F.H.H.H.H.H.J.P.I.I.I.I.",
"9 S.k.C.C.C.C.C.Z.Z.Z.Z.Z.Z.1.;.j M nXLXPX7XX._ ) ..X.~ y f C 2XMXQ -...O. ./ / 6.X.8.zXLXHXB M.jXsXfXsXXXQ.H.H.H.H.H.H.H.J.P.P.",
"9 S.k.C.C.C.C.C.Z.Z.Z.Z.Z.A.>.x v B M nXLXLX7X} > i.f.f.r.% 4XKX5XBX;Xf T.d.w.r } 8.zXLXGX2XD B.jXsXsXsXgXsXXX'.H.F.F.H.H.H.H.H.",
"9 S.k.C.C.C.C.C.Z.Z.Z.Z.Z.j.;.x j a s K nXIXMXa.: GXLXLXHX>XGX>XX 4X3XJ GXLX3X: e.5XPXMXQ s K tXhXsXsXsXsXsXfXgXuX|.R.H.G.F.H.H.",
"9 S.k.C.C.C.C.C.C.Z.Z.Z.Z.j.;.z 1 P (.s.J :XNXNXB Q 6X6X7Xp.M J E >Xp.X N >XE , :XNXmXW -.(.e.G eXsXsXsXsXsXsXsXsXgXsXuXXX'.P.H.",
"9 S.C.k.C.C.C.C.C.C.Z.C.b.2.:.6 e.oXfX.Xi.J E E ; . 7 7 t ,X2X2XnXJ X ] e . * * , *X=Xr.T.sXiXe.N 9XyXsXsXfXsXsXsXsXsXsXgXgXuXyX",
"9 S.C.k.k.C.C.C.C.C.C.j.>.:.G y.pXhXiXhX(.- 3 $ t { -.f D IX,Xp.*X:XE - w [ +.^ * < 5 ' .XjXfXpXi.K 9XXX0XyXuXsXsXsXsXsXsXsXsXsX",
"9 S.C.k.C.C.C.C.C.C.l.>.c a e.fXhXpXiXhXd.L I 1 [ 7.5.[ E BX7 8 : :X*XX * ~ 3.&.q 6 H f .XkXiXiXhX=.H [. X{.XXXX0XyXuXsXsXsXsXsX",
"9 S.k.C.C.C.C.C.C.C.<.c x 3 -.(.fXjXwXd.T.P a 1 t +.{ } J GXU U Q 2XW t > ~ 3.&.q 6 u e.(.d.pXjX.X5.= 8X0X0XXXXXXXXXXXXX0XyXuXsX",
"9 S.k.C.C.C.C.C.C.l.2.x 0 K p 5.(..XT.8.T.L 6 1 X 7 w 7 B MXMXMXMX;X3 q * ~ 3.&.q N a e.(.5.Y. Xf.w T 0XyXyXuXdXsXuXuXuXuXuXuXuX",
"9 S.k.C.C.C.C.C.C.A.2.n 0 z G i d 8.-.f f H k 1 & , , , 3 B M M B M % , @ ~ 3.&.r M ! L n p -.8.p R ~.R.R.R.R.R.E.E.E.E.E.E.E.E.",
"9 S.k.k.C.C.C.C.C.C.1.;.x 9 x 2 2 L C u u 0 b 3 B J J J N N N N N Z J N @ +.3.&.t Z *XF l u C Z I Q.R.R.R.R.R.R.R.R.R.R.R.E.E.E.",
"9 S.C.k.C.C.C.C.C.C.k.1.>.c x h n v b >.;.x K B N J J J J B , , , % B N $ / 7.7.^ S nXnXE a l v R.^.R.R.R.R.R.R.R.R.R.E.E.R.I.P.",
"9 S.k.C.C.C.C.C.C.C.C.C.j.1.>.*.>.<.1.>.c u.E $ J J J J B & $ 2 5 N # M % w @./ t p :XIXBX3X2X;XK ).|.`.}.'.'.E.E.R.R.J.J.E.{.dX",
"9 S.l.C.C.k.C.C.C.C.C.C.Z.Z.A.j.j.A.j.;.x K , + % , , % # 3 T b v v K M # = [ * = r & D *X;X;X=XM m.R.P.P.P.I.!.J.J.Q.XXdXvXCXSX",
"9 S.k.C.C.C.C.C.k.C.C.C.Z.Z.Z.Z.Z.Z.<.c z 1 f 9.f w w w w - H y.v n l s =.- q @ e t Z F N o 2 v n.J.J.J.J.J.H.P.[.sXZXSXCXCXZXCX",
"9 S.k.C.C.C.C.C.C.Z.Z.Z.Z.Z.Z.k.Z.A.<.c l % =.x.9.5.-.' f Z W B.b T W ' 9.] d f ] 8 *X=Xk >.<.H.I.P.J.H.H.'.uXzXCXSXCXZXCXSXCXvX",
"9 S.k.C.C.C.C.C.C.Z.Z.C.Z.k.Z.L.U.L.t.v l B =.-.=.=.=.f f S W m.n v K ' 9.-.-.-.=.r W F b A.A.F.H.F.U.{.zXZXCXCXCXCXSXZXzX0X'.F.",
"9 S.C.C.C.C.C.Z.C.k.Z.S.H.'.'.`.`.L.u.z z M.E   * @ @ i w Z Q >.x g a i ' p $ @ *   % >X'.Z.F.H.`.dXvXCXCXZXCXCXZXdX{.U.k.l.l.k.",
"9 S.k.C.C.k.k.C.G.H.Q.'.`.`.`._._.).t.u.K N K =.f w y @ + I U.<.c j j H , @ w w f d N Q n.}.0XzXZXCXCXCXCXvXdX[.F.l.l.k.Z.Z.Z.Z.",
"9 S.k.k.C.F.U.'.'.`.`._._.'.`.`.'.m.t.R C s 9.T.-.' ] r 2 H.Z.b.>.c 9 x 2 w ' ] 5.9.' - N 1XSXZXZXCXZXzX{.Y.l.l.C.Z.Z.C.C.C.C.C.",
"g K.Y.U.'.'.`._._._._._._.`.`.`.).t.b 5 . s s y y - * + = b.H.Z.b.>.x g o @ = y y y y :   p.ZXZXzX0XU.A.l.k.Z.Z.C.C.C.C.C.C.C.C.",
"z }._.`._._.'._._._._.'.`.`.`.`.m.u.z 9 u o o o o u j n >.S.Z.F.G.1.c 9 0 a G G G G K Q >XlXdX'.Z.l.k.Z.Z.C.C.C.C.C.C.C.C.C.C.C.",
"n |.'._._._._._._._._.'.`.`.`.'.Y.>.*.*.;.;.;.*.*.*.>.l.K.Z.G.Z.k.j.,.u.M.B.,X,X,X<X<X9X[.F.l.k.Z.Z.Z.Z.C.C.C.C.C.C.C.C.C.C.C.C.",
"n |.'.`.`._.`.`._._._.`.'.U.F.Z.k.j.1.1.1.j.b.1.1.1.j.Z.A.G.F.G.'.0XlXlXlXlXlXlXlX].m.j.l.l.Z.Z.Z.C.Z.Z.C.C.C.C.C.C.C.C.C.C.C.C."
};
