/* XPM */
static const char *tesoro[] = {
/* columns rows colors chars-per-pixel */
"64 64 256 2 ",
"   c #2A0817",
".  c #310B11",
"X  c #191224",
"o  c #180B27",
"O  c #251423",
"+  c #2A1423",
"@  c #381725",
"#  c #2C0D25",
"$  c #33252E",
"%  c #160112",
"&  c #521419",
"*  c #681C1B",
"=  c #5A2317",
"-  c #4C3419",
";  c #4A361B",
":  c #50371A",
">  c #543A1C",
",  c #5B3D1B",
"<  c #462A13",
"1  c #652715",
"2  c #773415",
"3  c #713317",
"4  c #4A1625",
"5  c #5C1C28",
"6  c #591B25",
"7  c #490C23",
"8  c #631D26",
"9  c #771F24",
"0  c #543C21",
"q  c #502F26",
"w  c #6A2425",
"e  c #732424",
"r  c #782825",
"t  c #743732",
"y  c #5E401C",
"u  c #64441A",
"i  c #735017",
"p  c #5B4121",
"a  c #56462A",
"s  c #594B34",
"d  c #644521",
"f  c #6C4A24",
"g  c #694824",
"h  c #734D25",
"j  c #745228",
"k  c #7B5428",
"l  c #795429",
"z  c #695837",
"x  c #6A5736",
"c  c #76623C",
"v  c #373343",
"b  c #374763",
"n  c #595146",
"m  c #6D5648",
"M  c #776A54",
"N  c #727070",
"B  c #4B6078",
"V  c #403745",
"C  c #983A09",
"Z  c #972A18",
"A  c #96321C",
"S  c #8C3012",
"D  c #AA3A06",
"F  c #A83814",
"G  c #AD350D",
"H  c #882B23",
"J  c #963823",
"K  c #902E23",
"L  c #A13922",
"P  c #811805",
"I  c #964A0D",
"U  c #B74609",
"Y  c #AC451A",
"T  c #B2431D",
"R  c #B94618",
"E  c #B4530D",
"W  c #B56E12",
"Q  c #875A2C",
"!  c #8C4F2F",
"~  c #B74B22",
"^  c #A9502D",
"/  c #96632F",
"(  c #886436",
")  c #996732",
"_  c #906934",
"`  c #A56C34",
"'  c #AC7237",
"]  c #A67337",
"[  c #B6793A",
"{  c #BC7C3B",
"}  c #B47638",
"|  c #AF742C",
" . c #946D0C",
".. c #C5530C",
"X. c #C74C0B",
"o. c #C56306",
"O. c #CD7011",
"+. c #C45622",
"@. c #C27C3A",
"#. c #CF7126",
"$. c #E17B08",
"%. c #816C45",
"&. c #977849",
"*. c #8C754E",
"=. c #AF7649",
"-. c #847A6F",
";. c #9B5745",
":. c #C03E05",
">. c #B48D0B",
",. c #BCA537",
"<. c #DB8606",
"1. c #D59211",
"2. c #E69903",
"3. c #E78C05",
"4. c #FAB809",
"5. c #F0A80A",
"6. c #C4833E",
"7. c #CA853E",
"8. c #CA883B",
"9. c #D1912E",
"0. c #D5A338",
"q. c #ECB12B",
"w. c #D6A117",
"e. c #FEC706",
"r. c #FFCD17",
"t. c #FDD536",
"y. c #FDC92F",
"u. c #FFE629",
"i. c #9C8354",
"p. c #A58958",
"a. c #B4935E",
"s. c #B68C4E",
"d. c #BCAD4A",
"f. c #958E74",
"g. c #B99864",
"h. c #AC9068",
"j. c #BCA56C",
"k. c #CC8641",
"l. c #CE8E45",
"z. c #CC8E48",
"x. c #C38946",
"c. c #D18D45",
"v. c #D28C47",
"b. c #CE9046",
"n. c #CE924A",
"m. c #C99749",
"M. c #D19146",
"N. c #D2944B",
"B. c #D59A4D",
"V. c #D8994D",
"C. c #CA9656",
"Z. c #D59C52",
"A. c #D99E52",
"S. c #D39A56",
"D. c #C18B5E",
"F. c #DBA255",
"G. c #DCA45A",
"H. c #DEAA5D",
"J. c #D6A35B",
"K. c #D3B54A",
"L. c #E1AC5D",
"P. c #E1A956",
"I. c #E3B35A",
"U. c #C69C66",
"Y. c #CF986C",
"T. c #CAA56B",
"R. c #DDAB63",
"E. c #D4A66C",
"W. c #D5AA6D",
"Q. c #DAAA6D",
"!. c #D7A567",
"~. c #D7AB74",
"^. c #CAB478",
"/. c #DAB576",
"(. c #CFAD71",
"). c #E2AE61",
"_. c #E0AC6A",
"`. c #E3B364",
"'. c #E6BA6A",
"]. c #E9BE6C",
"[. c #E4B669",
"{. c #E3B474",
"}. c #E4BB7B",
"|. c #E5B978",
" X c #E1AF72",
".X c #EA9A49",
"XX c #F4D648",
"oX c #F1D150",
"OX c #FBE84B",
"+X c #D6C173",
"@X c #EBC16E",
"#X c #EDC573",
"$X c #EEC975",
"%X c #ECC67A",
"&X c #E9C67A",
"*X c #F0C774",
"=X c #F1C976",
"-X c #F0C66D",
";X c #FBF06D",
":X c #697A8D",
">X c #526881",
",X c #708DA1",
"<X c #728A9C",
"1X c #898A8A",
"2X c #AA998E",
"3X c #93ABB7",
"4X c #A4AAA4",
"5X c #D7BA85",
"6X c #CFBC92",
"7X c #E5BD84",
"8X c #E8BF83",
"9X c #E2B780",
"0X c #C1B2AB",
"qX c #D9C698",
"wX c #D8C187",
"eX c #E9C185",
"rX c #EECA8C",
"tX c #E8C588",
"yX c #F1CB88",
"uX c #F4D58A",
"iX c #ECCC92",
"pX c #E7C896",
"aX c #F1CD92",
"sX c #EBD29A",
"dX c #F6D995",
"fX c #ECD28B",
"gX c #FCE39C",
"hX c #FEE996",
"jX c #FAF08F",
"kX c #D9CAA8",
"lX c #DDD2B4",
"zX c #D3CCB1",
"xX c #E6CDA5",
"cX c #E9D5A8",
"vX c #E5D9B7",
"bX c #F0D7B4",
"nX c #FCE4A2",
"mX c #FCE9AA",
"MX c #EBE2BA",
"NX c #FAEAB7",
"BX c #FAF6B5",
"VX c #DFE1B6",
"CX c #B7CBC8",
"ZX c #D3E9D7",
"AX c #FCEBCC",
"SX c #F7E7C6",
"DX c #FAF4CA",
"FX c #F7ECD5",
"GX c #FCF7D7",
"HX c #E9EBD0",
"JX c #FBFAE7",
"KX c #FDFDFC",
"LX c #FAFBF4",
"PX c #EDF4E8",
"IX c #DADED2",
"UX c #B8C09C",
/* pixels */
"B.B.B.B.B.N.N.N.N.N.M.M.M.b.N.A.G.F.A.B.A.{.iXcXsXtXeX8X8XeXeXeXeXeXeXeXeXeXeXeXeXeXeXeXeXeXeX}.9XpXvXPXLXJXGXDXNXNXmXmXnXnXnXnX",
"B.B.B.B.B.N.N.N.N.N.M.c.M.b.M.l.c.N.B.V.V.M.M.F.{.rXsXiXrXeX8X8X8X8X8X8X8X8X8X8X8X8X7X8X8X}.7XxXSXJXJXGXDXNXmXmXnXgXgXnXgXgXdXdX",
"A.A.B.B.B.B.B.N.N.N.N.n.n.n.N.l.c.l.l.l.N.B.N.l.k.b.A. XeXrXrXiXtXeX8X8X8X8X8X8X8X8X8X|.7XcXFXLXJXDXNXmXnXnXnXgXgXgXdXuXyX=X$X#X",
"A.A.B.B.B.B.N.N.N.N.N.N.n.n.N.l.c.l.c.l.l.l.N.N.n.z.l.l.c.N.F.Q.{.|.}.}.}.}.}.7X7X{.}.cXJXLXGXBXNXmXnXnXgXgXgXdXuX=X$X-X@X$X$X*X",
"A.A.A.B.B.B.N.N.N.N.N.N.N.n.n.l.l.l.b.b.M.M.l.l.n.v.l.c.v.z.l.l.l.N.N.B.Z.S.S.Z.A.5XFXLXGXNXmXmXnXnXnXgXdXuX=X#X*X#X#X*X*X*X$X#X",
"F.A.A.B.B.B.N.N.N.N.N.N.N.N.n.b.l.l.l.l.l.l.l.l.l.l.l.l.l.N.N.N.N.N.N.N.N.N.8.W.MXLXGXNXmXnXgXnXgXgXuX=X*X#X$X*X*X$X$X$X$X$X#X#X",
"A.A.A.B.B.B.N.N.N.N.N.N.N.n.n.N.l.l.l.l.l.l.l.l.l.l.l.l.l.N.N.N.N.N.N.B.l.C.xXJXJXDXmXnXgXgXnXdXuX=X#X#X$X$X#X#X#X$X$X#X#X#X#X#X",
"A.A.A.B.B.B.N.N.N.N.N.N.N.N.n.b.b.l.b.l.l.l.l.l.b.n.v.v.l.l.l.M.N.N.c.8./.FXJXDXmXnXgXgXnXdXuX=X#X#X$X#X#X#X#X#X#X#X#X#X#X#X#X$X",
"A.A.A.B.B.B.B.N.N.N.N.N.N.N.N.b.l.l.l.b.l.l.l.l.l.l.k.l.N.N.N.n.M.8.C.cXJXGXNXnXnXgXgXgXuX$X*X*X*X$X#X#X#X#X#X#X#X#X#X#X#X#X$X[.",
"A.A.B.B.B.B.B.N.N.N.N.N.N.N.N.n.n.b.b.M.c.k.8.k.n.S.J.F.A.N.n.8.7./.FXJXNXmXgXgXnXgXuX$X#X*X$X$X#X#X#X#X#X#X#X#X#X#X@X@X@X$XL.6.",
"F.B.B.B.B.B.B.B.B.N.N.N.N.N.M.M.l.l.l.M.N.A.R.{.|.).F.n.c.l.8.C.cXJXDXmXnXgXgXgXdX%X*X*X*X*X#X#X#X#X#X#X#X#X#X@X@X@X@X@X#XH.6.7.",
"B.B.B.B.B.B.B.N.N.M.b.b.b.M.B.A.J.R.{.|.yXtX|.R.N.l.8.b.k.z.5XFXGXNXnXgXgXgXdXyX$X$X*X*X*X#X#X#X#X#X#X#X#X@X@X@X@X@X@X@X`.6.k.k.",
"G.F.F.A.A.A.F.F.F.R.R.[.{.}.eXyXrXaXrX8X_.Z.l.k.c.M.l.8.E.MXJXDXNXnXgXgXgXfX$X#X$X$X=X$X$X$X#X@X@X@X@X@X@X@X@X@X@X].].@XN.7.k.k.",
"rXrXrXrXrXrXrXrXrXaXrXaXaXiXrXeX|.R.B.b.l.8.l.M.l.6.S.sXGXGXNXmXgXdXgXdXyX$X$X$X$X$X$X$X#X#X].].].@X@X].].].].].].].@X`.7.k.k.k.",
"fXaXaXaXaXaXaXrXrXrXrXeX|._.J.N.M.8.l.c.l.kXz.8.S.pXDXGXDXNXnXnXnXgXdX$X$X*X%X%X$X$X$X$X$X].'.@X].].'.'.].].].].'.'.@XA.7.k.k.k.",
"eXeX&X&X|.|.{._.R.!.S.N.b.l.l.8.l.n.b.N.qXLXqXqXDXGXDXDXmXdXdXdXdXyX].$X%X%X%X%X$X$X#X$X].`.'.[.'.'.'.'.].].'.'.'.'.].N.7.k.k.k.",
"B.B.B.B.N.b.b.b.l.l.l.c.l.n.8.6XE.8.8.C.FXJXJXDXDXDXDXgXMXJXFXFXFXFXFXyX=X%X$X$X$X#X#X#XR.`.}.cXI.'.'.'.'.'.'.'.'.'.'.l.7.k.k.k.",
"N.N.N.N.N.N.n.n.n.n.z.z.l.7.(.FXvX(.5XbXSXFXSXSXAXNXdXMXJXKXPXLXKXLXZX2X^.=X&X#X#X#X&XR.L.|.MXJXcX'.'.'.[.[.'.'.'.'.'.n.7.k.k.k.",
"N.N.N.N.n.n.n.z.x.6.6.6.x.C.vXJXJXFXSXSXSXSXSXcXsXdXcXLXKXPXZXJXJXZX3X,X1X&X&X&X&X%X'.H.`.}.HXJXbX'.'.[.[.[.[.[.'.[.'.N.7.k.k.k.",
"n.l.l.l.8.6.x.x.C.C.(.5XxXMXMXHXSXMXMXvXcXkXsXtX+XsXLXKXKXKXLXJXPXZXPX,X3X0X/.&X&XyXH.H.[.).[.sXI.'.[.[.[.[.[.[.[.[.'.A.7.k.k.k.",
"J.!.(./.5XqXqXxXvXvXvXvXvXvXvXvXvXvXqXlXJXSX@.^.+XqXLXPXPXPXLXPXPXZX3XCX3X:Xq t k t ! FXGXtX'.`.).[.[.[.[.[.[.[.[.[.[.H.x.7.k.k.",
"DXDXSXSXSXSXMXvXlXlXlXlXlXlXkXkXqX5X^.PXPXY.A =.x.=.N CXZXZXCXCX3X,X>X<XB v 4 K A ;.0XKXpX9.v.`.).eX5X`.[.`.`.`.`.[.`.[.N.7.k.k.",
"AXSXSXMXvXvXlXlXzXkXqXqXqXwX5X^.^.j.lXKX~.* J R R A @ :XCXZX3X3X<XB b b $ & L ~ G Y.KXJX+.C C #.'.`.R.[.`.`.`.`.`.`.`.`.G.k.k.k.",
"NXNXMXcXxXqXqXwX5X5X^.^.^.^.^.j.a.i.LX;XW 4 r e r r r % 1XZX3X3X<X>XB $ 4 r e 1 m LXAXr.E + = #.'.`.).`.`.`.`.).).).`.L.`.B.6.k.",
"dXuXfXtXtX+X/.^.(.T.j.j.g.a.p.p.p.zXDXs.I J J J Y J J Y t N CX3X,XB $ 6 J J ! J ^ JXSXO.@ o 1 #.[.L.).`.`.`.).L.).).).).).R.l.7.",
"&X&X}././.W.T.T.g.a.a.p.p.p.6X&.i.LXjXs * R T T R T T R 2 q N 3X:XV & J R T ~ F Y.JXlX* O X 1 #.`.iX XG.`.`.L.L.L.L.L.L.H.H.G.k.",
"&X&X}././.(.T.g.a.p.p.i.&.&.h.%.*.BXt.u 4 H r r r r r r H *   N V . H r r r H & 6XjXw.5 + X 1 #.[.|.sX/.L.).L.L.L.L.H.H.L.L.L.G.",
"&X&X}././.(.T.a.p.i.&.*.%.%.c c %.jXe., 6 A A A A A A K K K r = 1 H K A K K J * T.OXO.5 + X 1 #.[.P.}. XL.L.L.L.L.L.L.L.L.L.L.L.",
"&X&X}././.T.g.a.i.*.%.m c c c x c XX4., w R Y T T T T T T T T R R T T T Y Y T r K.y...5 + X = #.`.).L.L.L.L.L.L.L.L.L.L.H.H.H.H.",
"&X&X}./.(.T.a.p.&.%.c z z z x s c XX4., @ w 8 8 8 8 8 w 6 & & 6 w 8 8 8 8 5 w # d.y.o.8 O @ C #.`.L.L.H.H.H.L.L.H.H.H.H.H.H.H.H.",
"].|.}./.(.U.a.i.*.m z a M zXa a z XX4., @ w 8 8 8 8 8 & f.lX6XY * 4 8 8 8 8 w @ d.y.o.6 = U D ^ `.F._._.F.L.H.H.H.H.H.H.H.H.H.H.",
"sXeX/.W.T.g.p.&.%.c a -.HXJXzXs z XX4.: % .         @ 2X&X;X;X3.O.i           % d.t.o.A X.F 9 ^ ).H.bXvXR.H.H.H.H.H.H.G.H.H.H.H.",
"SXSXvX6XT.a.p.*.m z x z f.IXM a z OX5.p.1X1X1X1X-.m 1 HXOX2.>.t.r.W 4 M 1X1X1X1XK.r.3.U A r Z +.F.xXJXJXxXG.H.H.H.H.H.H.H.H.G.G.",
"AXSXMXvXkX2Xh.*.c x x a a M 0 a x 0.E [.hXdXhXhX).R +.oXr. .X HXt.O.Z ^ uXhXhXhX9.o.E H H U ..7.F.A.cXxXA.L.H.H.H.H.H.H.G.G.G.G.",
"6XkXvXlXzX0X2Xf.M m s a a 0 a a a F F D D D D U D =.LXy.u o + o >.2.Z Z D D D U G F K A X.C ! V.Z.B.H.R.G.H.H.H.G.G.G.G.H.G.G.G.",
"{ [ s.a.j.2X2Xf.-.M m s a a a a z ;Xr.e.e.e.e.e.3.R x.t.w.u + f.q.<.F L 4.e.e.e.e.e.5.X.2 X = +.A.Z.B.Z.G.G.G.G.G.G.G.G.G.G.G.G.",
"@.[ } ` ) _ ( %.M M M n n s 0 a a ( W I i i i i , 1 X.XXu. .X jXu.3.F q i i i i I E E = X X 1 +.Z.B.Z.B.Z.A.G.G.F.G.G.G.G.G.G.G.",
"@.{ } ' ` / Q h d p s n n N f.s s M W < o # # # # @ 3 #.4.oXzXt.1.I = + # # # o ! ~ r X O X 1 #.S.M.Z.B.Z.Z.Z.F.F.F.G.G.G.G.F.F.",
"@.{ } ' ` / Q l g , : - ; m 2Xn N DXr.u @ 8 6 6 6 4 # & E 0.|.3.S @ + 5 6 5 5 # d.y.I O O X = #.rXS.N.N.Z.B.B.Z.Z.A.F.F.F.F.F.F.",
"@.{ [ } ` ) Q l g p > - - - < ; m NXr.y @ r w w w e e 4 1 S P S 4 @ r e e w t @ d.q.I X O X 1 #.cXrX[.Z.N.B.Z.B.B.N.Z.A.A.F.F.F.",
"6.@.{ } ' ) Q k f p > : - < . f.MXDXr.y w +.~ R ~ ~ ~ +.= o O X @ e ~ ~ ~ ~ +.w K.y.C X O X = O.t.pXcXtXR.N.N.V.B.B.N.N.B.Z.A.A.",
"6.6.{ [ ' ) Q k f p > - 0 f.f.g.'.;X5.: 6 A H H H H H K r w w w w r K H K H K 4 ,.q.C X X = S Y <.oXoX$XsXeXR.N.N.N.B.B.B.B.N.B.",
"6.6.@.[ ' ) Q k f y > - x mXmX+.U XX$.= 4 r e e e e e e e r r r r r e e e e r 7 9.5.C X 2 U F Z F 2.2.0.sXaXaXtXQ.Z.N.N.B.B.N.N.",
"6.@.{ } ' ) Q k g , > - u 2.U Z ^ OX<.S 4 7 5 5 5 5 5 5 5 5 5 5 5 5 5 5 5 6 7 4 0.5.C S :.A A G A F Z =.dXiXiXiXaXrX|.J.N.M.M.N.",
"6.@.[ ' ` / Q h u , : - < < P J.jXe.e.<.` N 7 1.W @ # # + + + + + + O +   @ -.+XOXq.G c.T <.e.4.5.q   M dXiXiXiXiXiXaXiXtX_.J.B.",
"6.{ } ` ) Q k f u > : < s 4Xm.0.M.o.W <.y.;X2XXX1.r  .i 3 2 2 2 2 2 2 2 *.UXjXt.9.8.I.OXY U O.O.O.W >.s.aXiXiXiXiXiXiXiXiXsXiXtX",
"{ [ ' ) Q Q h d , > : < x BXXXo.F =.;.#.<.1.hXXXO.F 5.o.U ............D `.jX4.<.E { oX<.W ~ R Z Z 2.5.0.8XrXiXiXaXiXiXiXiXiXiXiX",
"[ } ` / Q h g , > : - ; u 2.U Z ;.BXBX{ K ^ 5.o.F K K K H r r r r e r t O.2.3.J w.1.Z L q.e.2.F U G Z ;.|./.}.eXrXiXiXiXiXiXiXiX",
"} ' ) Q k f u , : - - - - , - I $.R D /.DXuXY U X.7.DXy.E w : > > : p VXGXfXA 4.E { ;XOXW D D T !.S.U.!.{.{.{./.{.}.8XtXrXrXiXiX",
"} ` / Q h d , > : - - - - - ; , i 3 1 } .X#.3 , I O.v.$.I - : : : : > l..X#.A | / ` 9.1.G ^ D.~.sXiXrX8X9X{.{. X{.Q.Q. X{.|.}.8X",
"} ` / Q h u , : : - - - - - - - ; ; ; 2 I I > ; 3 C S C , ; > : > > > I I C H j c ) Y E Y =.L.R.Q.|.7XeXiXpXpXiXiXiXpXpXeXeXtXtX",
"} ` / Q h d , > > : : - : : : : : > , 0 p p y y 0 0 0 0 > > > > > > > 0 a a g l ( ] s.s.S.A.A.A.A.A.A.A.F.G.H.R.Q./.{.|.|.}.|.}.",
"[ ' ) Q k h d , , , > > > > > > , y d d g f f f d d p p p 0 0 0 y p p p g f l ( _ ] s.x.n.Z.A.F.F.F.F.F.G.G.F.F.F.F.F.F.F.F.F.F.",
"[ } ` / Q k h f d d d y d p y u d g f h l l l l j f f g d d d d d g g f j l ( _ ] =.s.z.n.B.A.A.F.F.F.F.F.F.F.F.F.G.G.G.G.F.G.G.",
"@.[ ' ` / Q Q k k h h f f f f f h l l Q Q Q Q Q Q k l l l j j j j j l l k ( _ ] =.s.x.m.B.Z.A.F.F.F.F.F.F.F.F.F.F.F.F.F.F.F.F.G.",
"6.{ } ' ` ) / / Q Q Q Q Q Q k k Q Q / / ) ) ) ) ) / Q Q Q Q Q ( ( ( ( &.&.p.p.a.U.T.E.~.~./.}.}.}.}.{.{.{._. XR.R.R.G.J.F.F.F.B.",
"6.6.{ [ } ' ` ` ) ) / / / / / / / ) ) ] ' ' ' ' ' ] &.&.&.&.&.&.i.p.p.p.h.g.g.T.(.~./././././.Q.Q.!.G.J.A.A.A.A.A.A.F.A.V.B.J.{.",
"7.7.6.@.{ [ [ } ' ' ' ] ] ] ` ] ] ' ' [ =.s.s.a.D.a.g.a.a.a.a.a.h.h.g.g.g.U.T.E.!.J.J.S.S.Z.B.B.B.N.B.B.B.B.B.B.B.B.N.S./.sXSXAX",
"k.k.7.6.6.@.@.{ [ [ [ [ [ [ [ [ [ s.s.C.U.E.E.T.U.U.U.U.U.U.U.U.U.T.T.U.C.C.C.n.n.N.N.N.N.B.B.B.B.B.Z.Z.B.V.V.N.B.Q.pXbXAXAXAXSX",
"k.k.k.7.7.7.6.6.6.6.6.6.6.x.x.C.C.T.T.E.E.E.W.W.E.E.E.T.T.(.E.E.U.C.n.x.x.l.z.N.N.N.N.N.N.N.N.N.B.B.Z.B.N.N.J.7XbXAXAXAXSXSXAXAX",
"k.k.k.k.k.k.k.7.7.6.l.z.S.!.E.E.E.E.E.W.W.W.Q.W.W.W.W.~.W.!.S.n.l.l.l.l.n.n.N.N.N.N.N.N.N.N.B.Z.B.M.b.S./.xXSXAXAXSXSXAXAXSXcX9X",
"k.k.k.k.7.k.7.l.n.S.!.W.W.W.W.E.Q.Q.Q.Q.Q.Q.Q.~.~.Q.!.S.n.l.l.n.n.n.n.n.N.N.N.N.N.N.N.N.B.B.N.M.n.!.pXMXAXAXSXSXAXAXSXxX/.C.7.7.",
"k.k.7.k.z.C.S.!.W.Q.W.W.W.W.W.Q.Q.Q.Q.Q.Q.~.Q.Q.S.B.l.l.b.n.n.n.n.n.n.n.N.N.N.N.N.N.N.N.n.n.S.9XbXSXAXSXSXSXAXNXxX~.n.6.8.7.k.k.",
"k.z.S.J.!.W.W.W.E.W.Q.Q.Q.Q.Q.Q.Q.Q.Q.W.Q.Q.S.N.k.l.l.b.n.z.n.n.n.n.N.N.N.N.n.N.N.N.N.m.E.pXSXFXAXSXSXSXSXbX5XS.6.8.7.l.k.k.k.k."
};
